<?xml version="1.0" encoding="UTF-8" standalone="no"?>
<!DOCTYPE svg PUBLIC "-//W3C//DTD SVG 1.1//EN" "http://www.w3.org/Graphics/SVG/1.1/DTD/svg11.dtd"[]>
<svg width="596px" height="842px" version="1.1" xmlns="http://www.w3.org/2000/svg" xmlns:xlink="http://www.w3.org/1999/xlink" xml:space="preserve" xmlns:serif="http://www.serif.com/" style="fill-rule:evenodd;clip-rule:evenodd;stroke-linejoin:round;stroke-miterlimit:2;" xmlns:shaper="http://www.shapertools.com/namespaces/shaper">
    <path id="Griff-d:8mm" serif:id="Griff d:8mm" d="M127.86,419.461C206.848,258.884 274.869,112.833 311.255,33.164C330.818,-9.671 377.28,27.744 362.835,56.693C333.947,114.586 230.98,332.326 283.465,342.998C348.125,356.145 396.85,413.372 396.85,481.89C396.85,560.114 333.342,623.622 255.118,623.622C176.894,623.622 113.386,560.114 113.386,481.89C113.386,459.494 118.591,438.305 127.86,419.461Z" shaper:cutDepth="8mm" />
    <circle id="Loch-d:8mm" serif:id="Loch d:8mm" cx="182.835" cy="482.13" r="26.929" style="fill:rgb(235,235,235);" shaper:cutDepth="8mm" />
    <path d="M121.953,674.22L121.953,648.45L139.338,648.45L139.338,651.491L125.363,651.491L125.363,659.472L137.457,659.472L137.457,662.513L125.363,662.513L125.363,674.22L121.953,674.22Z" style="fill:rgb(0,104,255);fill-rule:nonzero;" />
    <path d="M143.328,674.22L143.328,655.552L146.175,655.552L146.175,658.382C146.902,657.058 147.573,656.185 148.188,655.763C148.803,655.341 149.48,655.13 150.218,655.13C151.285,655.13 152.369,655.47 153.47,656.15L152.38,659.085C151.607,658.628 150.834,658.4 150.06,658.4C149.369,658.4 148.748,658.608 148.197,659.024C147.646,659.44 147.254,660.017 147.019,660.755C146.668,661.88 146.492,663.111 146.492,664.447L146.492,674.22L143.328,674.22Z" style="fill:rgb(0,104,255);fill-rule:nonzero;" />
    <path d="M167.533,671.917C166.361,672.913 165.233,673.616 164.149,674.027C163.065,674.437 161.902,674.642 160.66,674.642C158.609,674.642 157.033,674.141 155.931,673.139C154.83,672.137 154.279,670.857 154.279,669.298C154.279,668.384 154.487,667.549 154.903,666.793C155.319,666.037 155.864,665.431 156.538,664.974C157.212,664.517 157.97,664.171 158.814,663.937C159.435,663.773 160.373,663.614 161.627,663.462C164.181,663.157 166.062,662.794 167.269,662.372C167.281,661.939 167.287,661.663 167.287,661.546C167.287,660.257 166.988,659.349 166.39,658.822C165.582,658.107 164.38,657.749 162.787,657.749C161.298,657.749 160.2,658.01 159.491,658.531C158.782,659.053 158.257,659.976 157.918,661.3L154.824,660.878C155.105,659.554 155.568,658.485 156.213,657.67C156.857,656.856 157.789,656.229 159.007,655.789C160.226,655.35 161.638,655.13 163.244,655.13C164.838,655.13 166.132,655.318 167.129,655.693C168.125,656.068 168.857,656.539 169.326,657.108C169.795,657.676 170.123,658.394 170.31,659.261C170.416,659.8 170.468,660.773 170.468,662.179L170.468,666.398C170.468,669.339 170.536,671.199 170.671,671.979C170.805,672.758 171.072,673.505 171.47,674.22L168.166,674.22C167.838,673.564 167.627,672.796 167.533,671.917ZM167.269,664.851C166.121,665.32 164.398,665.718 162.101,666.046C160.8,666.234 159.88,666.445 159.341,666.679C158.802,666.913 158.386,667.256 158.093,667.707C157.8,668.158 157.654,668.659 157.654,669.21C157.654,670.054 157.973,670.757 158.612,671.32C159.251,671.882 160.185,672.163 161.416,672.163C162.634,672.163 163.718,671.897 164.668,671.364C165.617,670.83 166.314,670.101 166.759,669.175C167.099,668.46 167.269,667.406 167.269,666.011L167.269,664.851ZM157.953,651.896L157.953,648.292L161.257,648.292L161.257,651.896L157.953,651.896ZM164.509,651.896L164.509,648.292L167.814,648.292L167.814,651.896L164.509,651.896Z" style="fill:rgb(0,104,255);fill-rule:nonzero;" />
    <path d="M174.107,668.648L177.236,668.156C177.412,669.409 177.901,670.37 178.704,671.038C179.506,671.706 180.629,672.04 182.07,672.04C183.523,672.04 184.601,671.744 185.304,671.153C186.007,670.561 186.359,669.866 186.359,669.07C186.359,668.355 186.048,667.792 185.427,667.382C184.994,667.101 183.916,666.743 182.193,666.31C179.873,665.724 178.264,665.217 177.368,664.789C176.471,664.362 175.792,663.77 175.329,663.014C174.866,662.258 174.634,661.423 174.634,660.509C174.634,659.677 174.825,658.906 175.206,658.198C175.587,657.489 176.105,656.9 176.761,656.431C177.254,656.068 177.924,655.76 178.774,655.508C179.624,655.256 180.535,655.13 181.507,655.13C182.972,655.13 184.258,655.341 185.366,655.763C186.473,656.185 187.291,656.756 187.818,657.477C188.345,658.198 188.709,659.161 188.908,660.368L185.814,660.79C185.673,659.829 185.266,659.079 184.592,658.54C183.919,658.001 182.966,657.732 181.736,657.732C180.283,657.732 179.246,657.972 178.625,658.452C178.004,658.933 177.693,659.495 177.693,660.14C177.693,660.55 177.822,660.919 178.08,661.247C178.338,661.587 178.742,661.868 179.293,662.091C179.609,662.208 180.541,662.478 182.088,662.9C184.326,663.497 185.887,663.987 186.772,664.367C187.657,664.748 188.351,665.302 188.855,666.029C189.359,666.755 189.611,667.657 189.611,668.736C189.611,669.79 189.303,670.783 188.688,671.715C188.073,672.647 187.185,673.367 186.025,673.877C184.865,674.387 183.552,674.642 182.088,674.642C179.662,674.642 177.813,674.138 176.542,673.13C175.27,672.122 174.459,670.628 174.107,668.648Z" style="fill:rgb(0,104,255);fill-rule:nonzero;" />
    <path d="M206.152,668.208L209.422,668.613C208.906,670.523 207.951,672.005 206.556,673.06C205.162,674.114 203.38,674.642 201.213,674.642C198.482,674.642 196.317,673.801 194.717,672.119C193.118,670.438 192.318,668.079 192.318,665.044C192.318,661.904 193.127,659.466 194.744,657.732C196.361,655.997 198.459,655.13 201.037,655.13C203.533,655.13 205.572,655.98 207.154,657.679C208.736,659.378 209.527,661.769 209.527,664.851C209.527,665.038 209.521,665.32 209.509,665.695L195.588,665.695C195.705,667.745 196.285,669.316 197.328,670.406C198.371,671.495 199.672,672.04 201.23,672.04C202.39,672.04 203.38,671.736 204.201,671.126C205.021,670.517 205.672,669.544 206.152,668.208ZM195.763,663.093L206.187,663.093C206.047,661.523 205.648,660.345 204.992,659.56C203.984,658.341 202.677,657.732 201.072,657.732C199.619,657.732 198.397,658.218 197.407,659.191C196.417,660.163 195.869,661.464 195.763,663.093Z" style="fill:rgb(0,104,255);fill-rule:nonzero;" />
    <path d="M213.359,674.22L213.359,655.552L216.207,655.552L216.207,658.382C216.933,657.058 217.604,656.185 218.219,655.763C218.835,655.341 219.511,655.13 220.25,655.13C221.316,655.13 222.4,655.47 223.502,656.15L222.412,659.085C221.638,658.628 220.865,658.4 220.091,658.4C219.4,658.4 218.779,658.608 218.228,659.024C217.677,659.44 217.285,660.017 217.05,660.755C216.699,661.88 216.523,663.111 216.523,664.447L216.523,674.22L213.359,674.22Z" style="fill:rgb(0,104,255);fill-rule:nonzero;" />
    <path d="M226.261,659.156L226.261,655.552L229.865,655.552L229.865,659.156L226.261,659.156ZM226.261,674.22L226.261,670.616L229.865,670.616L229.865,674.22L226.261,674.22Z" style="fill:rgb(0,104,255);fill-rule:nonzero;" />
    <path d="M264.177,665.185L267.588,666.046C266.873,668.847 265.587,670.983 263.729,672.453C261.872,673.924 259.601,674.659 256.918,674.659C254.14,674.659 251.881,674.094 250.141,672.963C248.401,671.832 247.077,670.195 246.169,668.05C245.26,665.906 244.806,663.603 244.806,661.142C244.806,658.458 245.319,656.117 246.344,654.119C247.37,652.121 248.829,650.604 250.721,649.567C252.614,648.53 254.697,648.011 256.97,648.011C259.548,648.011 261.716,648.667 263.474,649.98C265.232,651.292 266.457,653.138 267.148,655.517L263.791,656.308C263.193,654.433 262.326,653.068 261.189,652.212C260.052,651.357 258.623,650.929 256.9,650.929C254.92,650.929 253.264,651.404 251.934,652.353C250.604,653.302 249.67,654.576 249.13,656.176C248.591,657.776 248.322,659.425 248.322,661.124C248.322,663.316 248.641,665.229 249.28,666.864C249.919,668.498 250.912,669.72 252.259,670.529C253.607,671.337 255.066,671.741 256.636,671.741C258.547,671.741 260.164,671.191 261.488,670.089C262.812,668.988 263.709,667.353 264.177,665.185Z" style="fill:rgb(0,104,255);fill-rule:nonzero;" />
    <path d="M271.244,681.409L270.892,678.439C271.584,678.626 272.187,678.72 272.703,678.72C273.406,678.72 273.968,678.603 274.39,678.368C274.812,678.134 275.158,677.806 275.427,677.384C275.627,677.068 275.949,676.282 276.394,675.029C276.453,674.853 276.547,674.595 276.675,674.255L269.591,655.552L273.002,655.552L276.886,666.363C277.39,667.734 277.841,669.175 278.24,670.687C278.603,669.234 279.037,667.816 279.541,666.433L283.531,655.552L286.695,655.552L279.593,674.536C278.832,676.587 278.24,677.999 277.818,678.773C277.255,679.816 276.611,680.58 275.884,681.067C275.158,681.553 274.291,681.796 273.283,681.796C272.673,681.796 271.994,681.667 271.244,681.409Z" style="fill:rgb(0,104,255);fill-rule:nonzero;" />
    <rect x="289.314" y="648.45" width="3.164" height="25.77" style="fill:rgb(0,104,255);fill-rule:nonzero;" />
    <path d="M297.4,652.089L297.4,648.45L300.564,648.45L300.564,652.089L297.4,652.089ZM297.4,674.22L297.4,655.552L300.564,655.552L300.564,674.22L297.4,674.22Z" style="fill:rgb(0,104,255);fill-rule:nonzero;" />
    <path d="M305.38,674.22L305.38,655.552L308.228,655.552L308.228,658.206C309.599,656.156 311.58,655.13 314.17,655.13C315.295,655.13 316.329,655.332 317.272,655.737C318.215,656.141 318.922,656.671 319.39,657.327C319.859,657.984 320.187,658.763 320.375,659.665C320.492,660.251 320.55,661.277 320.55,662.741L320.55,674.22L317.386,674.22L317.386,662.864C317.386,661.575 317.263,660.612 317.017,659.973C316.771,659.334 316.335,658.824 315.708,658.444C315.081,658.063 314.345,657.872 313.502,657.872C312.154,657.872 310.991,658.3 310.012,659.156C309.034,660.011 308.545,661.634 308.545,664.025L308.545,674.22L305.38,674.22Z" style="fill:rgb(0,104,255);fill-rule:nonzero;" />
    <path d="M337.513,674.22L337.513,671.864C336.33,673.716 334.589,674.642 332.293,674.642C330.804,674.642 329.436,674.232 328.188,673.411C326.94,672.591 325.973,671.446 325.288,669.975C324.602,668.504 324.259,666.814 324.259,664.904C324.259,663.04 324.57,661.35 325.191,659.832C325.812,658.315 326.744,657.152 327.986,656.343C329.228,655.534 330.617,655.13 332.152,655.13C333.277,655.13 334.279,655.367 335.158,655.842C336.037,656.317 336.752,656.935 337.302,657.697L337.302,648.45L340.449,648.45L340.449,674.22L337.513,674.22ZM327.511,664.904C327.511,667.294 328.015,669.081 329.023,670.265C330.031,671.448 331.22,672.04 332.591,672.04C333.974,672.04 335.149,671.475 336.116,670.344C337.083,669.213 337.566,667.488 337.566,665.167C337.566,662.613 337.074,660.738 336.089,659.542C335.105,658.347 333.892,657.749 332.451,657.749C331.045,657.749 329.87,658.323 328.926,659.472C327.983,660.62 327.511,662.431 327.511,664.904Z" style="fill:rgb(0,104,255);fill-rule:nonzero;" />
    <path d="M358.203,668.208L361.472,668.613C360.957,670.523 360.002,672.005 358.607,673.06C357.213,674.114 355.431,674.642 353.263,674.642C350.533,674.642 348.368,673.801 346.768,672.119C345.169,670.438 344.369,668.079 344.369,665.044C344.369,661.904 345.177,659.466 346.795,657.732C348.412,655.997 350.509,655.13 353.088,655.13C355.584,655.13 357.623,655.98 359.205,657.679C360.787,659.378 361.578,661.769 361.578,664.851C361.578,665.038 361.572,665.32 361.56,665.695L347.638,665.695C347.755,667.745 348.336,669.316 349.379,670.406C350.422,671.495 351.722,672.04 353.281,672.04C354.441,672.04 355.431,671.736 356.252,671.126C357.072,670.517 357.722,669.544 358.203,668.208ZM347.814,663.093L358.238,663.093C358.097,661.523 357.699,660.345 357.043,659.56C356.035,658.341 354.728,657.732 353.123,657.732C351.67,657.732 350.448,658.218 349.458,659.191C348.467,660.163 347.92,661.464 347.814,663.093Z" style="fill:rgb(0,104,255);fill-rule:nonzero;" />
    <path d="M365.41,674.22L365.41,655.552L368.257,655.552L368.257,658.382C368.984,657.058 369.655,656.185 370.27,655.763C370.885,655.341 371.562,655.13 372.3,655.13C373.367,655.13 374.451,655.47 375.552,656.15L374.463,659.085C373.689,658.628 372.916,658.4 372.142,658.4C371.451,658.4 370.83,658.608 370.279,659.024C369.728,659.44 369.336,660.017 369.101,660.755C368.75,661.88 368.574,663.111 368.574,664.447L368.574,674.22L365.41,674.22Z" style="fill:rgb(0,104,255);fill-rule:nonzero;" />
    <path d="M407.035,650.806L409.988,647.501L411.728,648.978L408.634,652.458C409.642,653.958 410.322,655.271 410.673,656.396C411.142,657.872 411.377,659.525 411.377,661.353C411.377,663.989 410.843,666.339 409.777,668.402C408.711,670.464 407.213,672.023 405.286,673.077C403.358,674.132 401.31,674.659 399.142,674.659C397.525,674.659 396.06,674.431 394.748,673.974C393.74,673.622 392.562,672.948 391.214,671.952L388.261,675.257L386.521,673.781L389.615,670.318C388.466,668.572 387.699,667.08 387.312,665.844C386.925,664.608 386.732,663.122 386.732,661.388C386.732,658.739 387.259,656.381 388.314,654.313C389.369,652.244 390.848,650.677 392.753,649.611C394.657,648.544 396.775,648.011 399.107,648.011C400.677,648.011 402.051,648.219 403.229,648.635C404.407,649.051 405.675,649.775 407.035,650.806ZM404.925,653.179C403.824,652.312 402.86,651.72 402.034,651.404C401.208,651.087 400.238,650.929 399.125,650.929C396.558,650.929 394.437,651.799 392.761,653.539C391.086,655.28 390.248,657.878 390.248,661.335C390.248,662.695 390.377,663.902 390.634,664.956C390.822,665.741 391.214,666.708 391.812,667.857L404.925,653.179ZM406.367,654.989L393.306,669.614C394.209,670.353 395.041,670.868 395.802,671.161C396.798,671.548 397.877,671.741 399.037,671.741C401.591,671.741 403.701,670.839 405.365,669.034C407.029,667.23 407.861,664.698 407.861,661.441C407.861,659.003 407.363,656.853 406.367,654.989Z" style="fill:rgb(0,104,255);fill-rule:nonzero;" />
    <path d="M416.316,659.156L416.316,655.552L419.92,655.552L419.92,659.156L416.316,659.156ZM416.316,674.22L416.316,670.616L419.92,670.616L419.92,674.22L416.316,674.22Z" style="fill:rgb(0,104,255);fill-rule:nonzero;" />
    <path d="M450.98,654.761L447.834,655.007C447.552,653.765 447.154,652.863 446.638,652.3C445.783,651.398 444.728,650.947 443.474,650.947C442.466,650.947 441.582,651.228 440.82,651.79C439.824,652.517 439.039,653.577 438.464,654.972C437.89,656.366 437.591,658.353 437.568,660.931C438.33,659.771 439.261,658.909 440.363,658.347C441.464,657.784 442.619,657.503 443.826,657.503C445.935,657.503 447.731,658.28 449.213,659.832C450.696,661.385 451.437,663.392 451.437,665.853C451.437,667.47 451.088,668.973 450.391,670.362C449.694,671.75 448.736,672.814 447.517,673.552C446.298,674.29 444.916,674.659 443.369,674.659C440.732,674.659 438.582,673.69 436.918,671.75C435.254,669.811 434.422,666.614 434.422,662.161C434.422,657.181 435.341,653.56 437.181,651.298C438.787,649.329 440.949,648.345 443.668,648.345C445.695,648.345 447.356,648.913 448.651,650.05C449.946,651.187 450.722,652.757 450.98,654.761ZM438.06,665.87C438.06,666.96 438.292,668.003 438.755,668.999C439.217,669.995 439.865,670.754 440.697,671.276C441.529,671.797 442.402,672.058 443.316,672.058C444.652,672.058 445.8,671.519 446.761,670.441C447.722,669.363 448.203,667.898 448.203,666.046C448.203,664.265 447.728,662.862 446.779,661.836C445.83,660.811 444.634,660.298 443.193,660.298C441.763,660.298 440.55,660.811 439.554,661.836C438.558,662.862 438.06,664.206 438.06,665.87Z" style="fill:rgb(0,104,255);fill-rule:nonzero;" />
    <path d="M455.463,674.22L455.463,655.552L458.293,655.552L458.293,658.171C458.879,657.257 459.658,656.522 460.63,655.965C461.603,655.408 462.711,655.13 463.953,655.13C465.336,655.13 466.469,655.417 467.354,655.991C468.239,656.566 468.863,657.368 469.226,658.4C470.703,656.22 472.625,655.13 474.992,655.13C476.843,655.13 478.267,655.643 479.263,656.668C480.259,657.694 480.757,659.273 480.757,661.406L480.757,674.22L477.611,674.22L477.611,662.46C477.611,661.195 477.508,660.283 477.303,659.727C477.098,659.17 476.726,658.722 476.187,658.382C475.648,658.042 475.015,657.872 474.289,657.872C472.976,657.872 471.886,658.309 471.019,659.182C470.152,660.055 469.718,661.452 469.718,663.374L469.718,674.22L466.554,674.22L466.554,662.091C466.554,660.685 466.297,659.63 465.781,658.927C465.265,658.224 464.422,657.872 463.25,657.872C462.359,657.872 461.536,658.107 460.78,658.575C460.024,659.044 459.476,659.73 459.136,660.632C458.797,661.534 458.627,662.835 458.627,664.534L458.627,674.22L455.463,674.22Z" style="fill:rgb(0,104,255);fill-rule:nonzero;" />
    <path d="M485.451,674.22L485.451,655.552L488.281,655.552L488.281,658.171C488.867,657.257 489.646,656.522 490.619,655.965C491.591,655.408 492.699,655.13 493.941,655.13C495.324,655.13 496.458,655.417 497.342,655.991C498.227,656.566 498.851,657.368 499.214,658.4C500.691,656.22 502.613,655.13 504.98,655.13C506.832,655.13 508.255,655.643 509.252,656.668C510.248,657.694 510.746,659.273 510.746,661.406L510.746,674.22L507.599,674.22L507.599,662.46C507.599,661.195 507.497,660.283 507.292,659.727C507.087,659.17 506.714,658.722 506.175,658.382C505.636,658.042 505.004,657.872 504.277,657.872C502.964,657.872 501.875,658.309 501.007,659.182C500.14,660.055 499.707,661.452 499.707,663.374L499.707,674.22L496.543,674.22L496.543,662.091C496.543,660.685 496.285,659.63 495.769,658.927C495.254,658.224 494.41,657.872 493.238,657.872C492.347,657.872 491.524,658.107 490.768,658.575C490.012,659.044 489.464,659.73 489.125,660.632C488.785,661.534 488.615,662.835 488.615,664.534L488.615,674.22L485.451,674.22Z" style="fill:rgb(0,104,255);fill-rule:nonzero;" />
</svg>