<?xml version="1.0" encoding="UTF-8" standalone="no"?>
<!DOCTYPE svg PUBLIC "-//W3C//DTD SVG 1.1//EN" "http://www.w3.org/Graphics/SVG/1.1/DTD/svg11.dtd">
<svg width="100%" height="100%" viewBox="0 0 596 842" version="1.1" xmlns="http://www.w3.org/2000/svg" xmlns:xlink="http://www.w3.org/1999/xlink" xml:space="preserve" xmlns:serif="http://www.serif.com/" style="fill-rule:evenodd;clip-rule:evenodd;stroke-linejoin:round;stroke-miterlimit:2;">
    <g transform="matrix(0.24,0,0,0.24,0,0)">
        <path d="M1003.94,772.122C1003.94,772.122 990.517,770.779 1002.92,772.18C1049.14,777.4 1072.11,707.219 1122.05,707.219C1200.27,707.219 1263.78,770.727 1263.78,848.951C1263.78,927.175 1200.27,990.683 1122.05,990.683C1085.76,990.683 1049.44,937.1 1003.94,943.439C991.711,945.143 1003.94,943.439 1003.94,943.439L1003.94,1240.16L685.039,1240.16C685.039,1240.16 663.383,1230.75 685.039,1204.72C716.634,1166.76 761.811,1141.43 761.811,1086.61C761.811,1008.39 698.303,944.882 620.079,944.882C541.855,944.882 478.346,1008.39 478.346,1086.61C478.346,1146.05 526.971,1170.89 566.929,1210.16C587.251,1230.13 566.929,1240.16 566.929,1240.16L236.22,1240.16L236.22,472.441L1003.94,472.441L1003.94,772.122Z"/>
        <g transform="matrix(1,0,0,1,336.614,3.56303)">
            <path d="M1003.94,772.283L1003.94,472.441L1771.65,472.441L1771.65,1240.16L1440.94,1240.16C1440.94,1240.16 1433.87,1266.13 1440.94,1275.59C1456.69,1296.65 1535.43,1323.3 1535.43,1366.52C1535.43,1418.66 1477.22,1461 1405.51,1461C1333.81,1461 1275.59,1418.66 1275.59,1366.52C1275.59,1324.71 1349.92,1297.83 1364.78,1276.77C1371.82,1266.8 1364.78,1240.16 1364.78,1240.16L1003.94,1240.16L1003.94,943.439C1049.44,937.1 1085.76,990.683 1122.05,990.683C1200.27,990.683 1263.78,927.175 1263.78,848.951C1263.78,770.727 1200.27,707.219 1122.05,707.219C1072.48,707.219 1049.49,776.365 1003.94,772.283Z"/>
        </g>
        <path d="M1027.56,2409.45L259.843,2409.45L259.843,1322.84L259.843,1641.73L590.551,1641.73C590.551,1641.73 610.873,1631.7 590.551,1611.73C550.593,1572.46 501.969,1547.62 501.969,1488.19C501.969,1409.96 565.477,1346.46 643.701,1346.46C721.925,1346.46 785.433,1409.96 785.433,1488.19C785.433,1543.01 740.256,1568.34 708.661,1606.3C687.005,1632.32 708.661,1641.73 708.661,1641.73L1027.56,1641.73L1027.56,1960.63C1027.56,1960.63 1012.52,1964.57 1006.86,1960.63C989.879,1948.82 973.042,1876.75 922.828,1876.75C873.123,1876.75 803.15,1942.03 803.15,2011.07C803.15,2080.1 870.059,2139.22 919.764,2139.22C956.108,2139.22 990.623,2079.05 1007.6,2066.88C1013.01,2063 1027.56,2066.88 1027.56,2066.88L1027.56,2409.45Z"/>
        <path d="M1748.03,1641.73L2078.74,1641.73L2078.74,2409.45L1311.02,2409.45L1311.02,2066.88C1311.02,2066.88 1296.47,2063 1291.07,2066.88C1274.09,2079.05 1239.57,2139.22 1203.23,2139.22C1153.52,2139.22 1086.61,2080.1 1086.61,2011.07C1086.61,1942.03 1156.59,1876.75 1206.29,1876.75C1256.51,1876.75 1273.34,1948.82 1290.32,1960.63C1295.99,1964.57 1311.02,1960.63 1311.02,1960.63L1311.02,1641.73L1671.87,1641.73C1671.87,1641.73 1678.91,1668.38 1671.87,1678.35C1657.01,1699.41 1582.68,1726.29 1582.68,1768.09C1582.68,1820.24 1640.89,1862.58 1712.6,1862.58C1784.3,1862.58 1842.52,1820.24 1842.52,1768.09C1842.52,1724.87 1763.78,1698.23 1748.03,1677.16C1740.96,1667.71 1748.03,1641.73 1748.03,1641.73Z"/>
    </g>
</svg>
