<?xml version="1.0" encoding="UTF-8" standalone="no"?>
<!DOCTYPE svg PUBLIC "-//W3C//DTD SVG 1.1//EN" "http://www.w3.org/Graphics/SVG/1.1/DTD/svg11.dtd">
<svg width="55px" height="179px" version="1.1" xmlns="http://www.w3.org/2000/svg" xmlns:xlink="http://www.w3.org/1999/xlink" xml:space="preserve" xmlns:serif="http://www.serif.com/" style="fill-rule:evenodd;clip-rule:evenodd;stroke-linecap:round;stroke-linejoin:round;stroke-miterlimit:1.5;">
    <path id="Bezugspunkt" d="M40.658,0.12L40.658,25.193L54.791,25.193L40.658,0.12Z" style="fill:rgb(255,0,0);stroke:rgb(255,0,0);stroke-width:0.24px;"/>
    <path d="M17.981,60.574L17.981,75.014C16.767,75.918 15.981,77.365 15.981,78.994C15.981,81.731 18.203,83.954 20.941,83.954C22.575,83.954 24.025,83.163 24.929,81.943L40.658,81.943L40.658,110.384L24.919,110.384C24.014,109.172 22.568,108.387 20.941,108.387C18.203,108.387 15.981,110.61 15.981,113.347C15.981,114.976 16.767,116.423 17.981,117.327L17.981,131.832C16.767,132.736 15.981,134.183 15.981,135.811C15.981,138.549 18.203,140.772 20.941,140.772C22.586,140.772 24.044,139.97 24.947,138.737L40.658,138.737L40.658,178.315L0,178.315L0,13.905L40.658,13.905L40.658,53.59L24.888,53.59C23.982,52.401 22.55,51.634 20.941,51.634C18.203,51.634 15.981,53.856 15.981,56.594C15.981,58.223 16.767,59.669 17.981,60.574Z"/>
</svg>
