<?xml version="1.0" encoding="UTF-8" standalone="no"?>
<!DOCTYPE svg PUBLIC "-//W3C//DTD SVG 1.1//EN" "http://www.w3.org/Graphics/SVG/1.1/DTD/svg11.dtd">
<svg width="44px" height="179px" version="1.1" xmlns="http://www.w3.org/2000/svg" xmlns:xlink="http://www.w3.org/1999/xlink" xml:space="preserve" xmlns:serif="http://www.serif.com/" style="fill-rule:evenodd;clip-rule:evenodd;stroke-linecap:round;stroke-linejoin:round;stroke-miterlimit:1.5;">
    <path id="Bezugspunkt" d="M0.12,0.12L0.12,25.193L14.253,25.193L0.12,0.12Z" style="fill:rgb(255,0,0);stroke:rgb(255,0,0);stroke-width:0.24px;"/>
    <path d="M22.864,46.575L22.741,13.905L43.382,13.833L43.382,178.315C43.382,178.315 22.724,178.382 22.741,178.366L22.864,145.452C24.074,144.548 24.858,143.103 24.858,141.477C24.858,138.74 22.635,136.517 19.897,136.517C18.266,136.517 16.818,137.306 15.914,138.523L0.12,138.523L0.12,110.182L16,110.182C16.908,111.335 18.317,112.075 19.897,112.075C22.635,112.075 24.858,109.853 24.858,107.115C24.858,105.491 24.077,104.049 22.87,103.144L22.87,88.718C24.077,87.812 24.858,86.37 24.858,84.747C24.858,82.009 22.635,79.786 19.897,79.786C18.249,79.786 16.788,80.592 15.886,81.83L0.12,81.83L0.12,53.562L15.956,53.562C16.864,54.747 18.292,55.511 19.897,55.511C22.635,55.511 24.858,53.288 24.858,50.55C24.858,48.924 24.074,47.48 22.864,46.575Z"/>
</svg>
