<?xml version="1.0" encoding="UTF-8" standalone="no"?>
<!DOCTYPE svg PUBLIC "-//W3C//DTD SVG 1.1//EN" "http://www.w3.org/Graphics/SVG/1.1/DTD/svg11.dtd">
<svg width="79px" height="105px" version="1.1" xmlns="http://www.w3.org/2000/svg" xmlns:xlink="http://www.w3.org/1999/xlink" xml:space="preserve" xmlns:serif="http://www.serif.com/" style="fill-rule:evenodd;clip-rule:evenodd;stroke-linecap:round;stroke-linejoin:round;stroke-miterlimit:1.5;">
    <path d="M40.008,62.93L20.883,62.93L20.883,92.109C20.883,96.281 19.898,99.445 17.93,101.602C15.961,103.758 13.477,104.836 10.477,104.836C7.336,104.836 4.805,103.77 2.883,101.637C0.961,99.504 0,96.375 0,92.25L0,12.797C0,8.203 1.055,4.922 3.164,2.953C5.273,0.984 8.625,0 13.219,0L40.008,0C47.93,0 54.023,0.609 58.289,1.828C62.508,3 66.152,4.945 69.223,7.664C72.293,10.383 74.625,13.711 76.219,17.648C77.813,21.586 78.609,26.016 78.609,30.938C78.609,41.438 75.375,49.395 68.906,54.809C62.438,60.223 52.805,62.93 40.008,62.93ZM25.108,47.18C25.117,47.18 34.945,47.18 34.945,47.18C39.867,47.18 43.98,46.664 47.285,45.633C50.59,44.602 53.109,42.914 54.844,40.57C56.578,38.227 57.445,35.156 57.445,31.359C57.445,26.813 56.109,23.109 53.438,20.25C50.438,17.203 44.273,15.68 34.945,15.68L25.12,15.68C22.773,15.68 20.883,17.562 20.883,19.909L20.883,42.938C20.888,45.271 22.777,47.165 25.108,47.18Z"/>
    <path id="Bezugspunkt" d="M39.305,31.62L39.305,56.693L53.437,56.693L39.305,31.62Z" style="fill:rgb(255,0,0);stroke:rgb(255,0,0);stroke-width:0.24px;"/>
</svg>
