<?xml version="1.0" encoding="UTF-8" standalone="no"?>
<!DOCTYPE svg PUBLIC "-//W3C//DTD SVG 1.1//EN" "http://www.w3.org/Graphics/SVG/1.1/DTD/svg11.dtd">
<svg width="82px" height="107px" version="1.1" xmlns="http://www.w3.org/2000/svg" xmlns:xlink="http://www.w3.org/1999/xlink" xml:space="preserve" xmlns:serif="http://www.serif.com/" style="fill-rule:evenodd;clip-rule:evenodd;stroke-linecap:round;stroke-linejoin:round;stroke-miterlimit:1.5;">
    <path d="M81.914,73.898C81.914,80.133 80.309,85.734 77.098,90.703C73.887,95.672 69.188,99.563 63,102.375C56.813,105.188 49.477,106.594 40.992,106.594C30.82,106.594 22.43,104.672 15.82,100.828C11.133,98.063 7.324,94.371 4.395,89.754C1.465,85.137 0,80.648 0,76.289C0,73.758 0.879,71.59 2.637,69.785C4.395,67.98 6.633,67.078 9.352,67.078C11.555,67.078 13.418,67.781 14.941,69.188C16.465,70.594 17.766,72.68 18.844,75.445C20.156,78.727 21.574,81.469 23.098,83.672C24.621,85.875 26.766,87.691 29.531,89.121C32.297,90.551 35.93,91.266 40.43,91.266C46.617,91.266 51.645,89.824 55.512,86.941C59.379,84.059 61.313,80.461 61.313,76.148C61.313,72.727 60.27,69.949 58.184,67.816C56.098,65.684 53.402,64.055 50.098,62.93C46.793,61.805 42.375,60.609 36.844,59.344C29.438,57.609 23.238,55.582 18.246,53.262C13.254,50.941 9.293,47.777 6.363,43.77C3.434,39.762 1.969,34.781 1.969,28.828C1.969,23.156 3.516,18.117 6.609,13.711C9.703,9.305 14.18,5.918 20.039,3.551C25.898,1.184 32.789,0 40.711,0C47.039,0 52.512,0.785 57.129,2.355C61.746,3.926 65.578,6.012 68.625,8.613C71.672,11.215 73.898,13.945 75.305,16.805C76.711,19.664 77.414,22.453 77.414,25.172C77.414,27.656 76.535,29.895 74.777,31.887C73.02,33.879 70.828,34.875 68.203,34.875C65.813,34.875 63.996,34.277 62.754,33.082C61.512,31.887 60.164,29.93 58.711,27.211C56.836,23.32 54.586,20.285 51.961,18.105C49.336,15.926 45.117,14.836 39.305,14.836C33.914,14.836 29.566,16.02 26.262,18.387C22.957,20.754 21.305,23.602 21.305,26.93C21.305,28.992 21.867,30.773 22.992,32.273C24.117,33.773 25.664,35.063 27.633,36.141C29.602,37.219 31.594,38.063 33.609,38.672C35.625,39.281 38.953,40.172 43.594,41.344C49.406,42.703 54.668,44.203 59.379,45.844C64.09,47.484 68.098,49.477 71.402,51.82C74.707,54.164 77.285,57.129 79.137,60.715C80.988,64.301 81.914,68.695 81.914,73.898Z" style="fill-rule:nonzero;"/>
    <path id="Bezugspunkt" d="M40.971,31.725L40.971,56.798L55.103,56.798L40.971,31.725Z" style="fill:rgb(255,0,0);stroke:rgb(255,0,0);stroke-width:0.24px;"/>
</svg>
