<?xml version="1.0" encoding="UTF-8" standalone="no"?>
<!DOCTYPE svg PUBLIC "-//W3C//DTD SVG 1.1//EN" "http://www.w3.org/Graphics/SVG/1.1/DTD/svg11.dtd">
<svg width="596px" height="842px" version="1.1" xmlns="http://www.w3.org/2000/svg" xmlns:xlink="http://www.w3.org/1999/xlink" xml:space="preserve" xmlns:serif="http://www.serif.com/" style="fill-rule:evenodd;clip-rule:evenodd;stroke-miterlimit:10;">
    <path d="M517.308,406.53C516.463,452.177 479.141,488.976 433.291,488.976L161.984,488.976C116.135,488.976 78.812,452.177 77.967,406.53C80.818,412.968 84.88,418.996 90.153,424.268C113.107,447.223 150.38,447.223 173.335,424.268C196.29,401.314 196.29,364.041 173.335,341.086C150.38,318.131 113.107,318.131 90.153,341.086C84.88,346.359 80.818,352.387 77.967,358.824C78.812,313.178 116.135,276.378 161.984,276.378L433.291,276.378C479.141,276.378 516.463,313.178 517.308,358.824C514.457,352.387 510.396,346.359 505.123,341.086C482.168,318.131 444.895,318.131 421.94,341.086C398.986,364.041 398.986,401.314 421.94,424.268C444.895,447.223 482.168,447.223 505.123,424.268C510.396,418.996 514.457,412.968 517.308,406.53Z"/>
    <circle cx="297.638" cy="382.677" r="24.094" style="fill:white;stroke:black;stroke-width:0.22px;"/>
</svg>
