<?xml version="1.0" encoding="UTF-8" standalone="no"?>
<!DOCTYPE svg PUBLIC "-//W3C//DTD SVG 1.1//EN" "http://www.w3.org/Graphics/SVG/1.1/DTD/svg11.dtd">
<svg width="596px" height="842px" version="1.1" xmlns="http://www.w3.org/2000/svg" xmlns:xlink="http://www.w3.org/1999/xlink" xml:space="preserve" xmlns:serif="http://www.serif.com/" style="fill-rule:evenodd;clip-rule:evenodd;stroke-miterlimit:10;">
    <path id="Außenkante-L-d:12mm" serif:id="Außenkante L d:12mm" d="M272.072,56.693L272.126,56.693C278.384,56.693 283.465,61.773 283.465,68.031L283.465,68.031C283.465,68.031 283.465,221.325 283.465,221.325L249.449,187.31L249.449,187.372C247.415,185.439 244.665,184.252 241.641,184.252C235.383,184.252 230.302,189.333 230.302,195.591C230.302,198.977 231.79,202.018 234.147,204.097L249.449,219.399L249.449,380.053C249.449,386.307 254.522,391.385 260.775,391.392L260.787,391.404L283.465,391.404L283.465,612.283C283.465,618.541 278.384,623.622 272.126,623.622C272.126,623.622 208.504,623.622 170.079,623.622C91.855,623.622 28.346,560.114 28.346,481.89C28.346,374.151 108.532,234.07 170.079,113.386C184.294,85.512 195.482,56.693 226.772,56.693L272.072,56.693L272.072,56.693Z"/>
    <rect id="Rücken-Nut-L-d:4mm" serif:id="Rücken Nut L d:4mm" x="215.433" y="58.116" width="34.016" height="565.506" style="fill:rgb(235,235,235);"/>
    <path id="Ablage-Nut-L-d:4mm" serif:id="Ablage Nut L d:4mm" d="M215.433,513.071L215.433,479.055L28.346,479.055L28.346,513.071L215.433,513.071Z" style="fill:rgb(235,235,235);"/>
    <path id="Zapfenloch-senkrecht-unten-L-d:12mm" serif:id="Zapfenloch senkrecht unten L d:12mm" d="M215.433,463.37C215.433,457.947 220.475,453.543 226.684,453.543L237.935,453.543C244.145,453.543 249.187,457.947 249.187,463.37L249.449,463.37L249.449,527.244L249.187,527.244C249.187,533.502 244.145,538.583 237.935,538.583L226.684,538.583C220.475,538.583 215.433,533.502 215.433,527.244L215.433,463.37Z" style="fill:white;stroke:black;stroke-width:0.24px;"/>
    <path id="Zapfenloch-senkrecht-oben-L-d:12mm" serif:id="Zapfenloch senkrecht oben L d:12mm" d="M215.673,150.911C215.673,145.487 220.715,141.084 226.924,141.084L238.175,141.084C244.385,141.084 249.427,145.487 249.427,150.911L249.689,150.911L249.689,214.785L249.427,214.785C249.427,221.043 244.385,226.123 238.175,226.123L226.924,226.123C220.715,226.123 215.673,221.043 215.673,214.785L215.673,150.911Z" style="fill:white;stroke:black;stroke-width:0.24px;"/>
    <path id="Zapfenloch-waagrecht-L-d:12mm" serif:id="Zapfenloch waagrecht L d:12mm" d="M94.866,513.071C89.443,513.071 85.039,508.029 85.039,501.82L85.039,490.568C85.039,484.359 89.443,479.317 94.866,479.317L94.866,479.055L158.74,479.055L158.74,479.317C164.998,479.317 170.079,484.359 170.079,490.568L170.079,501.82C170.079,508.029 164.998,513.071 158.74,513.071L94.866,513.071Z" style="fill:white;stroke:black;stroke-width:0.24px;"/>
    <path id="Außenkante-R-d:12mm" serif:id="Außenkante R d:12mm" d="M323.204,56.693L323.15,56.693C316.892,56.693 311.811,61.773 311.811,68.031L311.811,68.031C311.811,68.031 311.811,221.325 311.811,221.325L345.827,187.31L345.827,187.372C347.861,185.439 350.61,184.252 353.635,184.252C359.893,184.252 364.973,189.333 364.973,195.591C364.973,198.977 363.486,202.018 361.128,204.097L345.827,219.399L345.827,380.053C345.827,386.307 340.753,391.385 334.5,391.392L334.488,391.404L311.811,391.404L311.811,612.283C311.811,618.541 316.892,623.622 323.15,623.622C323.15,623.622 386.772,623.622 425.197,623.622C503.421,623.622 566.929,560.114 566.929,481.89C566.929,374.151 486.744,234.07 425.197,113.386C410.981,85.512 399.794,56.693 368.504,56.693L323.204,56.693L323.204,56.693Z"/>
    <rect id="Rücken-Nut-R-d:4mm" serif:id="Rücken Nut R d:4mm" x="345.827" y="58.116" width="34.016" height="565.506" style="fill:rgb(235,235,235);"/>
    <path id="Ablage-Nut-R-d:4mm" serif:id="Ablage Nut R d:4mm" d="M379.843,513.071L379.843,479.055L566.929,479.055L566.929,513.071L379.843,513.071Z" style="fill:rgb(235,235,235);"/>
    <path id="Zapfenloch-senkrecht-unten-R-d:12mm" serif:id="Zapfenloch senkrecht unten R d:12mm" d="M379.843,463.37C379.843,457.947 374.801,453.543 368.591,453.543L357.34,453.543C351.13,453.543 346.089,457.947 346.089,463.37L345.827,463.37L345.827,527.244L346.089,527.244C346.089,533.502 351.13,538.583 357.34,538.583L368.591,538.583C374.801,538.583 379.843,533.502 379.843,527.244L379.843,463.37Z" style="fill:white;stroke:black;stroke-width:0.24px;"/>
    <path id="Zapfenloch-senkrecht-oben-R-d:12mm" serif:id="Zapfenloch senkrecht oben R d:12mm" d="M379.603,150.911C379.603,145.487 374.561,141.084 368.351,141.084L357.1,141.084C350.89,141.084 345.849,145.487 345.849,150.911L345.587,150.911L345.587,214.785L345.849,214.785C345.849,221.043 350.89,226.123 357.1,226.123L368.351,226.123C374.561,226.123 379.603,221.043 379.603,214.785L379.603,150.911Z" style="fill:white;stroke:black;stroke-width:0.24px;"/>
    <path id="Zapfenloch-waagrecht-R-d:12mm" serif:id="Zapfenloch waagrecht R d:12mm" d="M500.409,513.311C505.833,513.311 510.236,508.269 510.236,502.06L510.236,490.808C510.236,484.599 505.833,479.557 500.409,479.557L500.409,479.295L436.535,479.295L436.535,479.557C430.277,479.557 425.197,484.599 425.197,490.808L425.197,502.06C425.197,508.269 430.277,513.311 436.535,513.311L500.409,513.311Z" style="fill:white;stroke:black;stroke-width:0.24px;"/>
    <path d="M103.241,686.469L103.241,660.7L120.626,660.7L120.626,663.741L106.651,663.741L106.651,671.721L118.745,671.721L118.745,674.762L106.651,674.762L106.651,686.469L103.241,686.469Z" style="fill:rgb(0,104,255);fill-rule:nonzero;"/>
    <path d="M124.616,686.469L124.616,667.801L127.464,667.801L127.464,670.631C128.191,669.307 128.861,668.434 129.477,668.012C130.092,667.59 130.769,667.379 131.507,667.379C132.573,667.379 133.657,667.719 134.759,668.399L133.669,671.334C132.896,670.877 132.122,670.649 131.349,670.649C130.657,670.649 130.036,670.857 129.485,671.273C128.935,671.689 128.542,672.266 128.308,673.004C127.956,674.129 127.78,675.36 127.78,676.696L127.78,686.469L124.616,686.469Z" style="fill:rgb(0,104,255);fill-rule:nonzero;"/>
    <path d="M148.821,684.166C147.65,685.163 146.522,685.866 145.438,686.276C144.354,686.686 143.191,686.891 141.948,686.891C139.898,686.891 138.321,686.39 137.22,685.388C136.118,684.386 135.567,683.106 135.567,681.547C135.567,680.633 135.775,679.798 136.192,679.042C136.608,678.287 137.152,677.68 137.826,677.223C138.5,676.766 139.259,676.42 140.103,676.186C140.724,676.022 141.661,675.864 142.915,675.711C145.47,675.407 147.351,675.043 148.558,674.622C148.569,674.188 148.575,673.913 148.575,673.795C148.575,672.506 148.276,671.598 147.679,671.071C146.87,670.356 145.669,669.999 144.075,669.999C142.587,669.999 141.488,670.259 140.779,670.781C140.07,671.302 139.546,672.225 139.206,673.549L136.112,673.127C136.394,671.803 136.857,670.734 137.501,669.919C138.146,669.105 139.077,668.478 140.296,668.039C141.515,667.599 142.927,667.379 144.532,667.379C146.126,667.379 147.421,667.567 148.417,667.942C149.413,668.317 150.146,668.789 150.614,669.357C151.083,669.925 151.411,670.643 151.599,671.51C151.704,672.049 151.757,673.022 151.757,674.428L151.757,678.647C151.757,681.588 151.824,683.449 151.959,684.228C152.094,685.007 152.36,685.754 152.759,686.469L149.454,686.469C149.126,685.813 148.915,685.045 148.821,684.166ZM148.558,677.1C147.409,677.569 145.687,677.967 143.39,678.295C142.089,678.483 141.169,678.694 140.63,678.928C140.091,679.163 139.675,679.505 139.382,679.957C139.089,680.408 138.942,680.909 138.942,681.459C138.942,682.303 139.262,683.006 139.9,683.569C140.539,684.131 141.474,684.413 142.704,684.413C143.923,684.413 145.007,684.146 145.956,683.613C146.905,683.08 147.603,682.35 148.048,681.424C148.388,680.709 148.558,679.655 148.558,678.26L148.558,677.1ZM139.241,664.145L139.241,660.541L142.546,660.541L142.546,664.145L139.241,664.145ZM145.798,664.145L145.798,660.541L149.103,660.541L149.103,664.145L145.798,664.145Z" style="fill:rgb(0,104,255);fill-rule:nonzero;"/>
    <path d="M155.396,680.897L158.525,680.405C158.7,681.659 159.19,682.62 159.992,683.288C160.795,683.956 161.917,684.29 163.358,684.29C164.812,684.29 165.89,683.994 166.593,683.402C167.296,682.81 167.648,682.116 167.648,681.319C167.648,680.604 167.337,680.041 166.716,679.631C166.282,679.35 165.204,678.993 163.482,678.559C161.161,677.973 159.553,677.466 158.656,677.039C157.76,676.611 157.08,676.019 156.617,675.263C156.154,674.507 155.923,673.672 155.923,672.758C155.923,671.926 156.113,671.156 156.494,670.447C156.875,669.738 157.394,669.149 158.05,668.68C158.542,668.317 159.213,668.009 160.063,667.757C160.912,667.505 161.823,667.379 162.796,667.379C164.261,667.379 165.547,667.59 166.654,668.012C167.762,668.434 168.579,669.005 169.107,669.726C169.634,670.447 169.997,671.411 170.196,672.618L167.103,673.04C166.962,672.079 166.555,671.329 165.881,670.79C165.207,670.25 164.255,669.981 163.025,669.981C161.571,669.981 160.534,670.221 159.913,670.702C159.292,671.182 158.982,671.745 158.982,672.389C158.982,672.799 159.11,673.168 159.368,673.497C159.626,673.836 160.03,674.118 160.581,674.34C160.898,674.457 161.829,674.727 163.376,675.149C165.614,675.747 167.176,676.236 168.061,676.617C168.945,676.998 169.64,677.551 170.144,678.278C170.648,679.004 170.9,679.907 170.9,680.985C170.9,682.04 170.592,683.033 169.977,683.964C169.361,684.896 168.474,685.617 167.314,686.126C166.153,686.636 164.841,686.891 163.376,686.891C160.95,686.891 159.102,686.387 157.83,685.379C156.559,684.372 155.747,682.877 155.396,680.897Z" style="fill:rgb(0,104,255);fill-rule:nonzero;"/>
    <path d="M187.441,680.457L190.71,680.862C190.194,682.772 189.239,684.254 187.845,685.309C186.45,686.364 184.669,686.891 182.501,686.891C179.771,686.891 177.606,686.05 176.006,684.369C174.406,682.687 173.607,680.329 173.607,677.293C173.607,674.153 174.415,671.715 176.032,669.981C177.65,668.247 179.747,667.379 182.325,667.379C184.821,667.379 186.86,668.229 188.442,669.928C190.025,671.627 190.816,674.018 190.816,677.1C190.816,677.288 190.81,677.569 190.798,677.944L176.876,677.944C176.993,679.995 177.573,681.565 178.616,682.655C179.659,683.745 180.96,684.29 182.519,684.29C183.679,684.29 184.669,683.985 185.489,683.375C186.31,682.766 186.96,681.793 187.441,680.457ZM177.052,675.342L187.476,675.342C187.335,673.772 186.937,672.594 186.28,671.809C185.273,670.59 183.966,669.981 182.36,669.981C180.907,669.981 179.686,670.467 178.695,671.44C177.705,672.413 177.157,673.713 177.052,675.342Z" style="fill:rgb(0,104,255);fill-rule:nonzero;"/>
    <path d="M194.648,686.469L194.648,667.801L197.495,667.801L197.495,670.631C198.222,669.307 198.893,668.434 199.508,668.012C200.123,667.59 200.8,667.379 201.538,667.379C202.605,667.379 203.689,667.719 204.79,668.399L203.7,671.334C202.927,670.877 202.153,670.649 201.38,670.649C200.689,670.649 200.067,670.857 199.517,671.273C198.966,671.689 198.573,672.266 198.339,673.004C197.987,674.129 197.812,675.36 197.812,676.696L197.812,686.469L194.648,686.469Z" style="fill:rgb(0,104,255);fill-rule:nonzero;"/>
    <path d="M207.55,671.405L207.55,667.801L211.153,667.801L211.153,671.405L207.55,671.405ZM207.55,686.469L207.55,682.866L211.153,682.866L211.153,686.469L207.55,686.469Z" style="fill:rgb(0,104,255);fill-rule:nonzero;"/>
    <path d="M245.466,677.434L248.876,678.295C248.161,681.096 246.875,683.232 245.018,684.703C243.16,686.173 240.89,686.909 238.206,686.909C235.429,686.909 233.17,686.343 231.43,685.212C229.69,684.082 228.365,682.444 227.457,680.299C226.549,678.155 226.095,675.852 226.095,673.391C226.095,670.707 226.608,668.367 227.633,666.369C228.658,664.371 230.117,662.853 232.01,661.816C233.902,660.779 235.985,660.26 238.259,660.26C240.837,660.26 243.005,660.916 244.763,662.229C246.521,663.541 247.745,665.387 248.437,667.766L245.079,668.557C244.482,666.682 243.614,665.317 242.478,664.461C241.341,663.606 239.911,663.178 238.189,663.178C236.208,663.178 234.553,663.653 233.223,664.602C231.893,665.551 230.958,666.826 230.419,668.425C229.88,670.025 229.61,671.674 229.61,673.374C229.61,675.565 229.93,677.478 230.568,679.113C231.207,680.748 232.2,681.969 233.548,682.778C234.896,683.586 236.355,683.991 237.925,683.991C239.835,683.991 241.452,683.44 242.776,682.338C244.101,681.237 244.997,679.602 245.466,677.434Z" style="fill:rgb(0,104,255);fill-rule:nonzero;"/>
    <path d="M252.532,693.659L252.181,690.688C252.872,690.875 253.476,690.969 253.991,690.969C254.694,690.969 255.257,690.852 255.679,690.618C256.101,690.383 256.446,690.055 256.716,689.633C256.915,689.317 257.237,688.532 257.683,687.278C257.741,687.102 257.835,686.844 257.964,686.504L250.88,667.801L254.29,667.801L258.175,678.612C258.679,679.983 259.13,681.424 259.528,682.936C259.892,681.483 260.325,680.065 260.829,678.682L264.819,667.801L267.983,667.801L260.882,686.786C260.12,688.836 259.528,690.249 259.107,691.022C258.544,692.065 257.9,692.83 257.173,693.316C256.446,693.802 255.579,694.045 254.571,694.045C253.962,694.045 253.282,693.916 252.532,693.659Z" style="fill:rgb(0,104,255);fill-rule:nonzero;"/>
    <rect x="270.603" y="660.7" width="3.164" height="25.77" style="fill:rgb(0,104,255);fill-rule:nonzero;"/>
    <path d="M278.689,664.338L278.689,660.7L281.853,660.7L281.853,664.338L278.689,664.338ZM278.689,686.469L278.689,667.801L281.853,667.801L281.853,686.469L278.689,686.469Z" style="fill:rgb(0,104,255);fill-rule:nonzero;"/>
    <path d="M286.669,686.469L286.669,667.801L289.517,667.801L289.517,670.456C290.888,668.405 292.868,667.379 295.458,667.379C296.583,667.379 297.617,667.582 298.561,667.986C299.504,668.39 300.21,668.92 300.679,669.577C301.148,670.233 301.476,671.012 301.663,671.915C301.78,672.5 301.839,673.526 301.839,674.991L301.839,686.469L298.675,686.469L298.675,675.114C298.675,673.825 298.552,672.861 298.306,672.222C298.06,671.583 297.623,671.074 296.996,670.693C296.369,670.312 295.634,670.122 294.79,670.122C293.442,670.122 292.279,670.549 291.301,671.405C290.322,672.26 289.833,673.883 289.833,676.274L289.833,686.469L286.669,686.469Z" style="fill:rgb(0,104,255);fill-rule:nonzero;"/>
    <path d="M318.802,686.469L318.802,684.114C317.618,685.965 315.878,686.891 313.581,686.891C312.093,686.891 310.725,686.481 309.477,685.661C308.229,684.84 307.262,683.695 306.576,682.224C305.891,680.753 305.548,679.063 305.548,677.153C305.548,675.29 305.858,673.599 306.48,672.082C307.101,670.564 308.032,669.401 309.275,668.592C310.517,667.784 311.905,667.379 313.441,667.379C314.566,667.379 315.567,667.617 316.446,668.091C317.325,668.566 318.04,669.184 318.591,669.946L318.591,660.7L321.737,660.7L321.737,686.469L318.802,686.469ZM308.8,677.153C308.8,679.543 309.304,681.331 310.312,682.514C311.319,683.698 312.509,684.29 313.88,684.29C315.263,684.29 316.438,683.724 317.404,682.593C318.371,681.462 318.855,679.737 318.855,677.416C318.855,674.862 318.362,672.987 317.378,671.791C316.394,670.596 315.181,669.999 313.739,669.999C312.333,669.999 311.158,670.573 310.215,671.721C309.272,672.87 308.8,674.68 308.8,677.153Z" style="fill:rgb(0,104,255);fill-rule:nonzero;"/>
    <path d="M339.491,680.457L342.761,680.862C342.245,682.772 341.29,684.254 339.896,685.309C338.501,686.364 336.72,686.891 334.552,686.891C331.821,686.891 329.656,686.05 328.057,684.369C326.457,682.687 325.657,680.329 325.657,677.293C325.657,674.153 326.466,671.715 328.083,669.981C329.7,668.247 331.798,667.379 334.376,667.379C336.872,667.379 338.911,668.229 340.493,669.928C342.075,671.627 342.866,674.018 342.866,677.1C342.866,677.288 342.86,677.569 342.849,677.944L328.927,677.944C329.044,679.995 329.624,681.565 330.667,682.655C331.71,683.745 333.011,684.29 334.569,684.29C335.73,684.29 336.72,683.985 337.54,683.375C338.36,682.766 339.011,681.793 339.491,680.457ZM329.103,675.342L339.526,675.342C339.386,673.772 338.987,672.594 338.331,671.809C337.323,670.59 336.017,669.981 334.411,669.981C332.958,669.981 331.736,670.467 330.746,671.44C329.756,672.413 329.208,673.713 329.103,675.342Z" style="fill:rgb(0,104,255);fill-rule:nonzero;"/>
    <path d="M346.698,686.469L346.698,667.801L349.546,667.801L349.546,670.631C350.273,669.307 350.943,668.434 351.559,668.012C352.174,667.59 352.851,667.379 353.589,667.379C354.655,667.379 355.739,667.719 356.841,668.399L355.751,671.334C354.978,670.877 354.204,670.649 353.431,670.649C352.739,670.649 352.118,670.857 351.567,671.273C351.017,671.689 350.624,672.266 350.39,673.004C350.038,674.129 349.862,675.36 349.862,676.696L349.862,686.469L346.698,686.469Z" style="fill:rgb(0,104,255);fill-rule:nonzero;"/>
    <path d="M388.323,663.055L391.276,659.75L393.017,661.227L389.923,664.707C390.931,666.207 391.61,667.52 391.962,668.645C392.431,670.122 392.665,671.774 392.665,673.602C392.665,676.239 392.132,678.588 391.066,680.651C389.999,682.713 388.502,684.272 386.574,685.327C384.647,686.381 382.599,686.909 380.431,686.909C378.814,686.909 377.349,686.68 376.036,686.223C375.028,685.872 373.851,685.198 372.503,684.202L369.55,687.506L367.81,686.03L370.903,682.567C369.755,680.821 368.987,679.33 368.601,678.093C368.214,676.857 368.021,675.372 368.021,673.637C368.021,670.989 368.548,668.63 369.603,666.562C370.657,664.494 372.137,662.926 374.041,661.86C375.945,660.793 378.064,660.26 380.396,660.26C381.966,660.26 383.34,660.468 384.518,660.884C385.695,661.3 386.964,662.024 388.323,663.055ZM386.214,665.428C385.112,664.561 384.149,663.969 383.322,663.653C382.496,663.336 381.526,663.178 380.413,663.178C377.847,663.178 375.726,664.048 374.05,665.789C372.374,667.529 371.536,670.127 371.536,673.584C371.536,674.944 371.665,676.151 371.923,677.206C372.11,677.991 372.503,678.957 373.101,680.106L386.214,665.428ZM387.655,667.239L374.595,681.864C375.497,682.602 376.329,683.118 377.091,683.411C378.087,683.797 379.165,683.991 380.325,683.991C382.88,683.991 384.989,683.088 386.653,681.284C388.317,679.479 389.15,676.948 389.15,673.69C389.15,671.252 388.651,669.102 387.655,667.239Z" style="fill:rgb(0,104,255);fill-rule:nonzero;"/>
    <path d="M397.605,671.405L397.605,667.801L401.208,667.801L401.208,671.405L397.605,671.405ZM397.605,686.469L397.605,682.866L401.208,682.866L401.208,686.469L397.605,686.469Z" style="fill:rgb(0,104,255);fill-rule:nonzero;"/>
    <path d="M420.72,672.495C419.407,672.014 418.435,671.329 417.802,670.438C417.169,669.547 416.853,668.481 416.853,667.239C416.853,665.364 417.526,663.788 418.874,662.51C420.222,661.233 422.015,660.594 424.253,660.594C426.503,660.594 428.314,661.248 429.685,662.554C431.056,663.861 431.741,665.452 431.741,667.327C431.741,668.522 431.428,669.562 430.801,670.447C430.174,671.332 429.222,672.014 427.944,672.495C429.526,673.01 430.731,673.842 431.557,674.991C432.383,676.139 432.796,677.51 432.796,679.104C432.796,681.307 432.017,683.159 430.458,684.659C428.9,686.159 426.849,686.909 424.306,686.909C421.763,686.909 419.712,686.156 418.153,684.65C416.595,683.144 415.816,681.266 415.816,679.016C415.816,677.34 416.24,675.937 417.09,674.806C417.94,673.675 419.15,672.905 420.72,672.495ZM420.087,667.133C420.087,668.352 420.48,669.348 421.265,670.122C422.05,670.895 423.069,671.282 424.323,671.282C425.542,671.282 426.541,670.898 427.32,670.13C428.1,669.363 428.489,668.422 428.489,667.309C428.489,666.149 428.088,665.173 427.285,664.382C426.483,663.591 425.483,663.196 424.288,663.196C423.081,663.196 422.079,663.582 421.282,664.356C420.485,665.129 420.087,666.055 420.087,667.133ZM419.067,679.034C419.067,679.936 419.281,680.809 419.709,681.653C420.137,682.497 420.773,683.15 421.616,683.613C422.46,684.076 423.368,684.307 424.341,684.307C425.853,684.307 427.101,683.821 428.085,682.848C429.069,681.875 429.562,680.639 429.562,679.139C429.562,677.616 429.055,676.356 428.041,675.36C427.027,674.364 425.759,673.866 424.235,673.866C422.747,673.866 421.514,674.358 420.535,675.342C419.557,676.327 419.067,677.557 419.067,679.034Z" style="fill:rgb(0,104,255);fill-rule:nonzero;"/>
    <path d="M436.751,686.469L436.751,667.801L439.581,667.801L439.581,670.42C440.167,669.506 440.946,668.771 441.919,668.214C442.892,667.658 443.999,667.379 445.241,667.379C446.624,667.379 447.758,667.666 448.643,668.241C449.527,668.815 450.151,669.618 450.515,670.649C451.991,668.469 453.913,667.379 456.28,667.379C458.132,667.379 459.556,667.892 460.552,668.917C461.548,669.943 462.046,671.522 462.046,673.655L462.046,686.469L458.9,686.469L458.9,674.709C458.9,673.444 458.797,672.533 458.592,671.976C458.387,671.419 458.015,670.971 457.476,670.631C456.937,670.291 456.304,670.122 455.577,670.122C454.265,670.122 453.175,670.558 452.308,671.431C451.441,672.304 451.007,673.702 451.007,675.624L451.007,686.469L447.843,686.469L447.843,674.34C447.843,672.934 447.585,671.879 447.069,671.176C446.554,670.473 445.71,670.122 444.538,670.122C443.648,670.122 442.824,670.356 442.068,670.825C441.313,671.293 440.765,671.979 440.425,672.881C440.085,673.784 439.915,675.084 439.915,676.784L439.915,686.469L436.751,686.469Z" style="fill:rgb(0,104,255);fill-rule:nonzero;"/>
    <path d="M466.739,686.469L466.739,667.801L469.569,667.801L469.569,670.42C470.155,669.506 470.935,668.771 471.907,668.214C472.88,667.658 473.987,667.379 475.23,667.379C476.612,667.379 477.746,667.666 478.631,668.241C479.516,668.815 480.14,669.618 480.503,670.649C481.98,668.469 483.901,667.379 486.269,667.379C488.12,667.379 489.544,667.892 490.54,668.917C491.536,669.943 492.034,671.522 492.034,673.655L492.034,686.469L488.888,686.469L488.888,674.709C488.888,673.444 488.785,672.533 488.58,671.976C488.375,671.419 488.003,670.971 487.464,670.631C486.925,670.291 486.292,670.122 485.566,670.122C484.253,670.122 483.163,670.558 482.296,671.431C481.429,672.304 480.995,673.702 480.995,675.624L480.995,686.469L477.831,686.469L477.831,674.34C477.831,672.934 477.573,671.879 477.058,671.176C476.542,670.473 475.698,670.122 474.526,670.122C473.636,670.122 472.813,670.356 472.057,670.825C471.301,671.293 470.753,671.979 470.413,672.881C470.073,673.784 469.903,675.084 469.903,676.784L469.903,686.469L466.739,686.469Z" style="fill:rgb(0,104,255);fill-rule:nonzero;"/>
</svg>
