<?xml version="1.0" encoding="UTF-8" standalone="no"?>
<!DOCTYPE svg PUBLIC "-//W3C//DTD SVG 1.1//EN" "http://www.w3.org/Graphics/SVG/1.1/DTD/svg11.dtd">
<svg width="100%" height="100%" viewBox="0 0 596 842" version="1.1" xmlns="http://www.w3.org/2000/svg" xmlns:xlink="http://www.w3.org/1999/xlink" xml:space="preserve" xmlns:serif="http://www.serif.com/" style="fill-rule:evenodd;clip-rule:evenodd;stroke-linejoin:round;stroke-miterlimit:2;">
    <g transform="matrix(0.24,0,0,0.24,0,0)">
        <path d="M1393.7,1138.7L1393.7,1889.76L1535.43,1889.76C1535.43,1889.76 1536.32,2360.58 1535.43,2480.32C1534.99,2540.57 1476.02,2598.44 1417.32,2598.43C1339.91,2598.41 1223.1,2598.43 1062.99,2598.43C737.058,2598.43 472.441,2333.81 472.441,2007.87C472.441,1558.96 1060.8,1029.74 1062.99,472.441C1063.51,342.068 1168.84,236.22 1299.21,236.22C1342.23,236.22 1382.57,236.329 1417.32,236.22C1476.11,236.038 1534.41,296.049 1535.43,354.331C1538.21,513.012 1535.43,1181.1 1535.43,1181.1L1459.53,1105.19L1459.97,1104.75L1368.1,1012.88L1367.55,1013.43C1361.66,1009.06 1354.36,1006.47 1346.46,1006.47C1326.9,1006.47 1311.02,1022.34 1311.02,1041.9C1311.02,1049.8 1313.62,1057.1 1317.99,1062.99L1317.99,1062.99C1320.07,1065.8 1322.56,1068.28 1325.36,1070.36L1393.7,1138.7Z"/>
        <g transform="matrix(0.857143,0,0,1.52542,-296.963,-654.611)">
            <rect x="1807.09" y="661.417" width="165.354" height="1393.7" style="fill:rgb(235,235,235);"/>
        </g>
        <g transform="matrix(5.24849e-17,0.857143,-0.525424,3.21729e-17,1599.49,388.076)">
            <rect x="1807.09" y="661.417" width="165.354" height="1393.7" style="fill:rgb(235,235,235);"/>
        </g>
    </g>
</svg>
