<?xml version="1.0" encoding="UTF-8" standalone="no"?>
<!DOCTYPE svg PUBLIC "-//W3C//DTD SVG 1.1//EN" "http://www.w3.org/Graphics/SVG/1.1/DTD/svg11.dtd">
<svg width="596px" height="842px" version="1.1" xmlns="http://www.w3.org/2000/svg" xmlns:xlink="http://www.w3.org/1999/xlink" xml:space="preserve" xmlns:serif="http://www.serif.com/" style="fill-rule:evenodd;clip-rule:evenodd;stroke-linejoin:round;stroke-miterlimit:2;">
    <path id="Außenkante-L-d:12mm" serif:id="Außenkante L d:12mm" d="M272.072,56.693L272.126,56.693C278.384,56.693 283.465,61.773 283.465,68.031L283.465,68.031C283.465,68.031 283.465,249.672 283.465,249.672L249.449,215.656L249.449,215.718C247.415,213.785 244.665,212.598 241.641,212.598C235.383,212.598 230.302,217.679 230.302,223.937C230.302,227.323 231.79,230.365 234.147,232.443L249.449,247.745L249.449,408.4C249.449,414.653 254.522,419.731 260.775,419.738L260.787,419.751L283.465,419.751L283.465,612.283C283.465,618.541 278.384,623.622 272.126,623.622C272.126,623.622 208.504,623.622 170.079,623.622C91.855,623.622 28.346,560.114 28.346,481.89C28.346,374.151 108.532,234.07 170.079,113.386C184.294,85.512 195.482,56.693 226.772,56.693L272.072,56.693L272.072,56.693Z"/>
    <rect id="Rücken-Nut-L-d:4mm" serif:id="Rücken Nut L d:4mm" x="221.102" y="34.016" width="28.346" height="612.283" style="fill:rgb(235,235,235);"/>
    <path id="Ablage-Nut-LU-d:4mm" serif:id="Ablage Nut LU d:4mm" d="M238.11,510.236L238.11,481.89L5.669,481.89L5.669,510.236L238.11,510.236Z" style="fill:rgb(235,235,235);"/>
    <path id="Außenkante-R-d:12mm" serif:id="Außenkante R d:12mm" d="M323.204,56.693L323.15,56.693C316.892,56.693 311.811,61.773 311.811,68.031L311.811,68.031C311.811,68.031 311.811,249.672 311.811,249.672L345.827,215.656L345.827,215.718C347.861,213.785 350.61,212.598 353.635,212.598C359.893,212.598 364.973,217.679 364.973,223.937C364.973,227.323 363.486,230.365 361.128,232.443L345.827,247.745L345.827,408.4C345.827,414.653 340.753,419.731 334.5,419.738L334.488,419.751L311.811,419.751L311.811,612.283C311.811,618.541 316.892,623.622 323.15,623.622C323.15,623.622 386.772,623.622 425.197,623.622C503.421,623.622 566.929,560.114 566.929,481.89C566.929,374.151 486.744,234.07 425.197,113.386C410.981,85.512 399.794,56.693 368.504,56.693L323.204,56.693L323.204,56.693Z"/>
    <rect id="Rücken-Nut-R-d:4mm" serif:id="Rücken Nut R d:4mm" x="345.827" y="34.016" width="28.346" height="612.283" style="fill:rgb(235,235,235);"/>
    <path id="Ablage-Nut-RU-d:4mm" serif:id="Ablage Nut RU d:4mm" d="M357.165,510.236L357.165,481.89L589.606,481.89L589.606,510.236L357.165,510.236Z" style="fill:rgb(235,235,235);"/>
    <path id="Ablage-Nut-LM-d:4mm" serif:id="Ablage Nut LM d:4mm" d="M238.11,340.157L238.11,311.811L39.685,311.811L39.685,340.157L238.11,340.157Z" style="fill:rgb(235,235,235);"/>
    <path id="Ablage-Nut-RM-d:4mm" serif:id="Ablage Nut RM d:4mm" d="M357.165,340.157L357.165,311.811L555.591,311.811L555.591,340.157L357.165,340.157Z" style="fill:rgb(235,235,235);"/>
    <path id="Ablage-Nut-LO-d:4mm" serif:id="Ablage Nut LO d:4mm" d="M238.11,170.079L238.11,141.732L113.386,141.732L113.386,170.079L238.11,170.079Z" style="fill:rgb(235,235,235);"/>
    <path id="Ablage-Nut-RO-d:4mm" serif:id="Ablage Nut RO d:4mm" d="M357.165,170.079L357.165,141.732L481.89,141.732L481.89,170.079L357.165,170.079Z" style="fill:rgb(235,235,235);"/>
</svg>
