<?xml version="1.0" encoding="UTF-8" standalone="no"?>
<!DOCTYPE svg PUBLIC "-//W3C//DTD SVG 1.1//EN" "http://www.w3.org/Graphics/SVG/1.1/DTD/svg11.dtd">
<svg width="596px" height="842px" version="1.1" xmlns="http://www.w3.org/2000/svg" xmlns:xlink="http://www.w3.org/1999/xlink" xml:space="preserve" xmlns:serif="http://www.serif.com/" style="fill-rule:evenodd;clip-rule:evenodd;stroke-linejoin:round;stroke-miterlimit:2;">
    <path id="Außenkante-L-d:12mm" serif:id="Außenkante L d:12mm" d="M272.072,56.693L272.126,56.693C278.384,56.693 283.465,61.773 283.465,68.031L283.465,68.031C283.465,68.031 283.465,221.325 283.465,221.325L249.449,187.31L249.449,187.372C247.415,185.439 244.665,184.252 241.641,184.252C235.383,184.252 230.302,189.333 230.302,195.591C230.302,198.977 231.79,202.018 234.147,204.097L249.449,219.399L249.449,380.053C249.449,386.307 254.522,391.385 260.775,391.392L260.787,391.404L283.465,391.404L283.465,612.283C283.465,618.541 278.384,623.622 272.126,623.622C272.126,623.622 208.504,623.622 170.079,623.622C91.855,623.622 28.346,560.114 28.346,481.89C28.346,374.151 108.532,234.07 170.079,113.386C184.294,85.512 195.482,56.693 226.772,56.693L272.072,56.693L272.072,56.693Z"/>
    <rect id="Rücken-Nut-L-d:4mm" serif:id="Rücken Nut L d:4mm" x="221.102" y="34.016" width="28.346" height="612.283" style="fill:rgb(235,235,235);"/>
    <path id="Ablage-Nut-LU-d:4mm" serif:id="Ablage Nut LU d:4mm" d="M238.11,510.236L238.11,481.89L5.669,481.89L5.669,510.236L238.11,510.236Z" style="fill:rgb(235,235,235);"/>
    <path id="Außenkante-R-d:12mm" serif:id="Außenkante R d:12mm" d="M323.204,56.693L323.15,56.693C316.892,56.693 311.811,61.773 311.811,68.031L311.811,68.031C311.811,68.031 311.811,221.325 311.811,221.325L345.827,187.31L345.827,187.372C347.861,185.439 350.61,184.252 353.635,184.252C359.893,184.252 364.973,189.333 364.973,195.591C364.973,198.977 363.486,202.018 361.128,204.097L345.827,219.399L345.827,380.053C345.827,386.307 340.753,391.385 334.5,391.392L334.488,391.404L311.811,391.404L311.811,612.283C311.811,618.541 316.892,623.622 323.15,623.622C323.15,623.622 386.772,623.622 425.197,623.622C503.421,623.622 566.929,560.114 566.929,481.89C566.929,374.151 486.744,234.07 425.197,113.386C410.981,85.512 399.794,56.693 368.504,56.693L323.204,56.693L323.204,56.693Z"/>
    <rect id="Rücken-Nut-R-d:4mm" serif:id="Rücken Nut R d:4mm" x="345.827" y="34.016" width="28.346" height="612.283" style="fill:rgb(235,235,235);"/>
    <path id="Ablage-Nut-RU-d:4mm" serif:id="Ablage Nut RU d:4mm" d="M357.165,510.236L357.165,481.89L589.606,481.89L589.606,510.236L357.165,510.236Z" style="fill:rgb(235,235,235);"/>
    <path id="Ablage-Nut-LM-d:4mm" serif:id="Ablage Nut LM d:4mm" d="M238.11,340.157L238.11,311.811L39.685,311.811L39.685,340.157L238.11,340.157Z" style="fill:rgb(235,235,235);"/>
    <path id="Ablage-Nut-RM-d:4mm" serif:id="Ablage Nut RM d:4mm" d="M357.165,340.157L357.165,311.811L555.591,311.811L555.591,340.157L357.165,340.157Z" style="fill:rgb(235,235,235);"/>
    <path id="Ablage-Nut-LO-d:4mm" serif:id="Ablage Nut LO d:4mm" d="M238.11,170.079L238.11,141.732L113.386,141.732L113.386,170.079L238.11,170.079Z" style="fill:rgb(235,235,235);"/>
    <path id="Ablage-Nut-RO-d:4mm" serif:id="Ablage Nut RO d:4mm" d="M357.165,170.079L357.165,141.732L481.89,141.732L481.89,170.079L357.165,170.079Z" style="fill:rgb(235,235,235);"/>
    <path d="M103.241,686.469L103.241,660.7L120.626,660.7L120.626,663.741L106.651,663.741L106.651,671.721L118.745,671.721L118.745,674.762L106.651,674.762L106.651,686.469L103.241,686.469Z" style="fill:rgb(0,104,255);fill-rule:nonzero;"/>
    <path d="M124.616,686.469L124.616,667.801L127.464,667.801L127.464,670.631C128.191,669.307 128.861,668.434 129.477,668.012C130.092,667.59 130.769,667.379 131.507,667.379C132.573,667.379 133.657,667.719 134.759,668.399L133.669,671.334C132.896,670.877 132.122,670.649 131.349,670.649C130.657,670.649 130.036,670.857 129.485,671.273C128.935,671.689 128.542,672.266 128.308,673.004C127.956,674.129 127.78,675.36 127.78,676.696L127.78,686.469L124.616,686.469Z" style="fill:rgb(0,104,255);fill-rule:nonzero;"/>
    <path d="M148.821,684.166C147.65,685.163 146.522,685.866 145.438,686.276C144.354,686.686 143.191,686.891 141.948,686.891C139.898,686.891 138.321,686.39 137.22,685.388C136.118,684.386 135.567,683.106 135.567,681.547C135.567,680.633 135.775,679.798 136.192,679.042C136.608,678.287 137.152,677.68 137.826,677.223C138.5,676.766 139.259,676.42 140.103,676.186C140.724,676.022 141.661,675.864 142.915,675.711C145.47,675.407 147.351,675.043 148.558,674.622C148.569,674.188 148.575,673.913 148.575,673.795C148.575,672.506 148.276,671.598 147.679,671.071C146.87,670.356 145.669,669.999 144.075,669.999C142.587,669.999 141.488,670.259 140.779,670.781C140.07,671.302 139.546,672.225 139.206,673.549L136.112,673.127C136.394,671.803 136.857,670.734 137.501,669.919C138.146,669.105 139.077,668.478 140.296,668.039C141.515,667.599 142.927,667.379 144.532,667.379C146.126,667.379 147.421,667.567 148.417,667.942C149.413,668.317 150.146,668.789 150.614,669.357C151.083,669.925 151.411,670.643 151.599,671.51C151.704,672.049 151.757,673.022 151.757,674.428L151.757,678.647C151.757,681.588 151.824,683.449 151.959,684.228C152.094,685.007 152.36,685.754 152.759,686.469L149.454,686.469C149.126,685.813 148.915,685.045 148.821,684.166ZM148.558,677.1C147.409,677.569 145.687,677.967 143.39,678.295C142.089,678.483 141.169,678.694 140.63,678.928C140.091,679.163 139.675,679.505 139.382,679.957C139.089,680.408 138.942,680.909 138.942,681.459C138.942,682.303 139.262,683.006 139.9,683.569C140.539,684.131 141.474,684.413 142.704,684.413C143.923,684.413 145.007,684.146 145.956,683.613C146.905,683.08 147.603,682.35 148.048,681.424C148.388,680.709 148.558,679.655 148.558,678.26L148.558,677.1ZM139.241,664.145L139.241,660.541L142.546,660.541L142.546,664.145L139.241,664.145ZM145.798,664.145L145.798,660.541L149.103,660.541L149.103,664.145L145.798,664.145Z" style="fill:rgb(0,104,255);fill-rule:nonzero;"/>
    <path d="M155.396,680.897L158.525,680.405C158.7,681.659 159.19,682.62 159.992,683.288C160.795,683.956 161.917,684.29 163.358,684.29C164.812,684.29 165.89,683.994 166.593,683.402C167.296,682.81 167.648,682.116 167.648,681.319C167.648,680.604 167.337,680.041 166.716,679.631C166.282,679.35 165.204,678.993 163.482,678.559C161.161,677.973 159.553,677.466 158.656,677.039C157.76,676.611 157.08,676.019 156.617,675.263C156.154,674.507 155.923,673.672 155.923,672.758C155.923,671.926 156.113,671.156 156.494,670.447C156.875,669.738 157.394,669.149 158.05,668.68C158.542,668.317 159.213,668.009 160.063,667.757C160.912,667.505 161.823,667.379 162.796,667.379C164.261,667.379 165.547,667.59 166.654,668.012C167.762,668.434 168.579,669.005 169.107,669.726C169.634,670.447 169.997,671.411 170.196,672.618L167.103,673.04C166.962,672.079 166.555,671.329 165.881,670.79C165.207,670.25 164.255,669.981 163.025,669.981C161.571,669.981 160.534,670.221 159.913,670.702C159.292,671.182 158.982,671.745 158.982,672.389C158.982,672.799 159.11,673.168 159.368,673.497C159.626,673.836 160.03,674.118 160.581,674.34C160.898,674.457 161.829,674.727 163.376,675.149C165.614,675.747 167.176,676.236 168.061,676.617C168.945,676.998 169.64,677.551 170.144,678.278C170.648,679.004 170.9,679.907 170.9,680.985C170.9,682.04 170.592,683.033 169.977,683.964C169.361,684.896 168.474,685.617 167.314,686.126C166.153,686.636 164.841,686.891 163.376,686.891C160.95,686.891 159.102,686.387 157.83,685.379C156.559,684.372 155.747,682.877 155.396,680.897Z" style="fill:rgb(0,104,255);fill-rule:nonzero;"/>
    <path d="M187.441,680.457L190.71,680.862C190.194,682.772 189.239,684.254 187.845,685.309C186.45,686.364 184.669,686.891 182.501,686.891C179.771,686.891 177.606,686.05 176.006,684.369C174.406,682.687 173.607,680.329 173.607,677.293C173.607,674.153 174.415,671.715 176.032,669.981C177.65,668.247 179.747,667.379 182.325,667.379C184.821,667.379 186.86,668.229 188.442,669.928C190.025,671.627 190.816,674.018 190.816,677.1C190.816,677.288 190.81,677.569 190.798,677.944L176.876,677.944C176.993,679.995 177.573,681.565 178.616,682.655C179.659,683.745 180.96,684.29 182.519,684.29C183.679,684.29 184.669,683.985 185.489,683.375C186.31,682.766 186.96,681.793 187.441,680.457ZM177.052,675.342L187.476,675.342C187.335,673.772 186.937,672.594 186.28,671.809C185.273,670.59 183.966,669.981 182.36,669.981C180.907,669.981 179.686,670.467 178.695,671.44C177.705,672.413 177.157,673.713 177.052,675.342Z" style="fill:rgb(0,104,255);fill-rule:nonzero;"/>
    <path d="M194.648,686.469L194.648,667.801L197.495,667.801L197.495,670.631C198.222,669.307 198.893,668.434 199.508,668.012C200.123,667.59 200.8,667.379 201.538,667.379C202.605,667.379 203.689,667.719 204.79,668.399L203.7,671.334C202.927,670.877 202.153,670.649 201.38,670.649C200.689,670.649 200.067,670.857 199.517,671.273C198.966,671.689 198.573,672.266 198.339,673.004C197.987,674.129 197.812,675.36 197.812,676.696L197.812,686.469L194.648,686.469Z" style="fill:rgb(0,104,255);fill-rule:nonzero;"/>
    <path d="M207.55,671.405L207.55,667.801L211.153,667.801L211.153,671.405L207.55,671.405ZM207.55,686.469L207.55,682.866L211.153,682.866L211.153,686.469L207.55,686.469Z" style="fill:rgb(0,104,255);fill-rule:nonzero;"/>
    <path d="M245.466,677.434L248.876,678.295C248.161,681.096 246.875,683.232 245.018,684.703C243.16,686.173 240.89,686.909 238.206,686.909C235.429,686.909 233.17,686.343 231.43,685.212C229.69,684.082 228.365,682.444 227.457,680.299C226.549,678.155 226.095,675.852 226.095,673.391C226.095,670.707 226.608,668.367 227.633,666.369C228.658,664.371 230.117,662.853 232.01,661.816C233.902,660.779 235.985,660.26 238.259,660.26C240.837,660.26 243.005,660.916 244.763,662.229C246.521,663.541 247.745,665.387 248.437,667.766L245.079,668.557C244.482,666.682 243.614,665.317 242.478,664.461C241.341,663.606 239.911,663.178 238.189,663.178C236.208,663.178 234.553,663.653 233.223,664.602C231.893,665.551 230.958,666.826 230.419,668.425C229.88,670.025 229.61,671.674 229.61,673.374C229.61,675.565 229.93,677.478 230.568,679.113C231.207,680.748 232.2,681.969 233.548,682.778C234.896,683.586 236.355,683.991 237.925,683.991C239.835,683.991 241.452,683.44 242.776,682.338C244.101,681.237 244.997,679.602 245.466,677.434Z" style="fill:rgb(0,104,255);fill-rule:nonzero;"/>
    <path d="M252.532,693.659L252.181,690.688C252.872,690.875 253.476,690.969 253.991,690.969C254.694,690.969 255.257,690.852 255.679,690.618C256.101,690.383 256.446,690.055 256.716,689.633C256.915,689.317 257.237,688.532 257.683,687.278C257.741,687.102 257.835,686.844 257.964,686.504L250.88,667.801L254.29,667.801L258.175,678.612C258.679,679.983 259.13,681.424 259.528,682.936C259.892,681.483 260.325,680.065 260.829,678.682L264.819,667.801L267.983,667.801L260.882,686.786C260.12,688.836 259.528,690.249 259.107,691.022C258.544,692.065 257.9,692.83 257.173,693.316C256.446,693.802 255.579,694.045 254.571,694.045C253.962,694.045 253.282,693.916 252.532,693.659Z" style="fill:rgb(0,104,255);fill-rule:nonzero;"/>
    <rect x="270.603" y="660.7" width="3.164" height="25.77" style="fill:rgb(0,104,255);fill-rule:nonzero;"/>
    <path d="M278.689,664.338L278.689,660.7L281.853,660.7L281.853,664.338L278.689,664.338ZM278.689,686.469L278.689,667.801L281.853,667.801L281.853,686.469L278.689,686.469Z" style="fill:rgb(0,104,255);fill-rule:nonzero;"/>
    <path d="M286.669,686.469L286.669,667.801L289.517,667.801L289.517,670.456C290.888,668.405 292.868,667.379 295.458,667.379C296.583,667.379 297.617,667.582 298.561,667.986C299.504,668.39 300.21,668.92 300.679,669.577C301.148,670.233 301.476,671.012 301.663,671.915C301.78,672.5 301.839,673.526 301.839,674.991L301.839,686.469L298.675,686.469L298.675,675.114C298.675,673.825 298.552,672.861 298.306,672.222C298.06,671.583 297.623,671.074 296.996,670.693C296.369,670.312 295.634,670.122 294.79,670.122C293.442,670.122 292.279,670.549 291.301,671.405C290.322,672.26 289.833,673.883 289.833,676.274L289.833,686.469L286.669,686.469Z" style="fill:rgb(0,104,255);fill-rule:nonzero;"/>
    <path d="M318.802,686.469L318.802,684.114C317.618,685.965 315.878,686.891 313.581,686.891C312.093,686.891 310.725,686.481 309.477,685.661C308.229,684.84 307.262,683.695 306.576,682.224C305.891,680.753 305.548,679.063 305.548,677.153C305.548,675.29 305.858,673.599 306.48,672.082C307.101,670.564 308.032,669.401 309.275,668.592C310.517,667.784 311.905,667.379 313.441,667.379C314.566,667.379 315.567,667.617 316.446,668.091C317.325,668.566 318.04,669.184 318.591,669.946L318.591,660.7L321.737,660.7L321.737,686.469L318.802,686.469ZM308.8,677.153C308.8,679.543 309.304,681.331 310.312,682.514C311.319,683.698 312.509,684.29 313.88,684.29C315.263,684.29 316.438,683.724 317.404,682.593C318.371,681.462 318.855,679.737 318.855,677.416C318.855,674.862 318.362,672.987 317.378,671.791C316.394,670.596 315.181,669.999 313.739,669.999C312.333,669.999 311.158,670.573 310.215,671.721C309.272,672.87 308.8,674.68 308.8,677.153Z" style="fill:rgb(0,104,255);fill-rule:nonzero;"/>
    <path d="M339.491,680.457L342.761,680.862C342.245,682.772 341.29,684.254 339.896,685.309C338.501,686.364 336.72,686.891 334.552,686.891C331.821,686.891 329.656,686.05 328.057,684.369C326.457,682.687 325.657,680.329 325.657,677.293C325.657,674.153 326.466,671.715 328.083,669.981C329.7,668.247 331.798,667.379 334.376,667.379C336.872,667.379 338.911,668.229 340.493,669.928C342.075,671.627 342.866,674.018 342.866,677.1C342.866,677.288 342.86,677.569 342.849,677.944L328.927,677.944C329.044,679.995 329.624,681.565 330.667,682.655C331.71,683.745 333.011,684.29 334.569,684.29C335.73,684.29 336.72,683.985 337.54,683.375C338.36,682.766 339.011,681.793 339.491,680.457ZM329.103,675.342L339.526,675.342C339.386,673.772 338.987,672.594 338.331,671.809C337.323,670.59 336.017,669.981 334.411,669.981C332.958,669.981 331.736,670.467 330.746,671.44C329.756,672.413 329.208,673.713 329.103,675.342Z" style="fill:rgb(0,104,255);fill-rule:nonzero;"/>
    <path d="M346.698,686.469L346.698,667.801L349.546,667.801L349.546,670.631C350.273,669.307 350.943,668.434 351.559,668.012C352.174,667.59 352.851,667.379 353.589,667.379C354.655,667.379 355.739,667.719 356.841,668.399L355.751,671.334C354.978,670.877 354.204,670.649 353.431,670.649C352.739,670.649 352.118,670.857 351.567,671.273C351.017,671.689 350.624,672.266 350.39,673.004C350.038,674.129 349.862,675.36 349.862,676.696L349.862,686.469L346.698,686.469Z" style="fill:rgb(0,104,255);fill-rule:nonzero;"/>
    <path d="M388.323,663.055L391.276,659.75L393.017,661.227L389.923,664.707C390.931,666.207 391.61,667.52 391.962,668.645C392.431,670.122 392.665,671.774 392.665,673.602C392.665,676.239 392.132,678.588 391.066,680.651C389.999,682.713 388.502,684.272 386.574,685.327C384.647,686.381 382.599,686.909 380.431,686.909C378.814,686.909 377.349,686.68 376.036,686.223C375.028,685.872 373.851,685.198 372.503,684.202L369.55,687.506L367.81,686.03L370.903,682.567C369.755,680.821 368.987,679.33 368.601,678.093C368.214,676.857 368.021,675.372 368.021,673.637C368.021,670.989 368.548,668.63 369.603,666.562C370.657,664.494 372.137,662.926 374.041,661.86C375.945,660.793 378.064,660.26 380.396,660.26C381.966,660.26 383.34,660.468 384.518,660.884C385.695,661.3 386.964,662.024 388.323,663.055ZM386.214,665.428C385.112,664.561 384.149,663.969 383.322,663.653C382.496,663.336 381.526,663.178 380.413,663.178C377.847,663.178 375.726,664.048 374.05,665.789C372.374,667.529 371.536,670.127 371.536,673.584C371.536,674.944 371.665,676.151 371.923,677.206C372.11,677.991 372.503,678.957 373.101,680.106L386.214,665.428ZM387.655,667.239L374.595,681.864C375.497,682.602 376.329,683.118 377.091,683.411C378.087,683.797 379.165,683.991 380.325,683.991C382.88,683.991 384.989,683.088 386.653,681.284C388.317,679.479 389.15,676.948 389.15,673.69C389.15,671.252 388.651,669.102 387.655,667.239Z" style="fill:rgb(0,104,255);fill-rule:nonzero;"/>
    <path d="M397.605,671.405L397.605,667.801L401.208,667.801L401.208,671.405L397.605,671.405ZM397.605,686.469L397.605,682.866L401.208,682.866L401.208,686.469L397.605,686.469Z" style="fill:rgb(0,104,255);fill-rule:nonzero;"/>
    <path d="M432.269,667.01L429.122,667.256C428.841,666.014 428.442,665.112 427.927,664.549C427.071,663.647 426.017,663.196 424.763,663.196C423.755,663.196 422.87,663.477 422.108,664.04C421.112,664.766 420.327,665.827 419.753,667.221C419.179,668.616 418.88,670.602 418.857,673.18C419.618,672.02 420.55,671.159 421.651,670.596C422.753,670.034 423.907,669.752 425.114,669.752C427.224,669.752 429.02,670.529 430.502,672.082C431.984,673.634 432.726,675.641 432.726,678.102C432.726,679.719 432.377,681.222 431.68,682.611C430.983,683.999 430.025,685.063 428.806,685.801C427.587,686.54 426.204,686.909 424.657,686.909C422.021,686.909 419.87,685.939 418.206,683.999C416.542,682.06 415.71,678.864 415.71,674.411C415.71,669.43 416.63,665.809 418.47,663.547C420.075,661.579 422.237,660.594 424.956,660.594C426.983,660.594 428.645,661.163 429.94,662.299C431.234,663.436 432.011,665.006 432.269,667.01ZM419.349,678.12C419.349,679.209 419.58,680.252 420.043,681.249C420.506,682.245 421.153,683.003 421.985,683.525C422.817,684.046 423.691,684.307 424.605,684.307C425.941,684.307 427.089,683.768 428.05,682.69C429.011,681.612 429.491,680.147 429.491,678.295C429.491,676.514 429.017,675.111 428.067,674.085C427.118,673.06 425.923,672.547 424.482,672.547C423.052,672.547 421.839,673.06 420.843,674.085C419.847,675.111 419.349,676.456 419.349,678.12Z" style="fill:rgb(0,104,255);fill-rule:nonzero;"/>
    <path d="M436.751,686.469L436.751,667.801L439.581,667.801L439.581,670.42C440.167,669.506 440.946,668.771 441.919,668.214C442.892,667.658 443.999,667.379 445.241,667.379C446.624,667.379 447.758,667.666 448.643,668.241C449.527,668.815 450.151,669.618 450.515,670.649C451.991,668.469 453.913,667.379 456.28,667.379C458.132,667.379 459.556,667.892 460.552,668.917C461.548,669.943 462.046,671.522 462.046,673.655L462.046,686.469L458.9,686.469L458.9,674.709C458.9,673.444 458.797,672.533 458.592,671.976C458.387,671.419 458.015,670.971 457.476,670.631C456.937,670.291 456.304,670.122 455.577,670.122C454.265,670.122 453.175,670.558 452.308,671.431C451.441,672.304 451.007,673.702 451.007,675.624L451.007,686.469L447.843,686.469L447.843,674.34C447.843,672.934 447.585,671.879 447.069,671.176C446.554,670.473 445.71,670.122 444.538,670.122C443.648,670.122 442.824,670.356 442.068,670.825C441.313,671.293 440.765,671.979 440.425,672.881C440.085,673.784 439.915,675.084 439.915,676.784L439.915,686.469L436.751,686.469Z" style="fill:rgb(0,104,255);fill-rule:nonzero;"/>
    <path d="M466.739,686.469L466.739,667.801L469.569,667.801L469.569,670.42C470.155,669.506 470.935,668.771 471.907,668.214C472.88,667.658 473.987,667.379 475.23,667.379C476.612,667.379 477.746,667.666 478.631,668.241C479.516,668.815 480.14,669.618 480.503,670.649C481.98,668.469 483.901,667.379 486.269,667.379C488.12,667.379 489.544,667.892 490.54,668.917C491.536,669.943 492.034,671.522 492.034,673.655L492.034,686.469L488.888,686.469L488.888,674.709C488.888,673.444 488.785,672.533 488.58,671.976C488.375,671.419 488.003,670.971 487.464,670.631C486.925,670.291 486.292,670.122 485.566,670.122C484.253,670.122 483.163,670.558 482.296,671.431C481.429,672.304 480.995,673.702 480.995,675.624L480.995,686.469L477.831,686.469L477.831,674.34C477.831,672.934 477.573,671.879 477.058,671.176C476.542,670.473 475.698,670.122 474.526,670.122C473.636,670.122 472.813,670.356 472.057,670.825C471.301,671.293 470.753,671.979 470.413,672.881C470.073,673.784 469.903,675.084 469.903,676.784L469.903,686.469L466.739,686.469Z" style="fill:rgb(0,104,255);fill-rule:nonzero;"/>
    <path d="M102.96,735.101L102.96,709.331L108.093,709.331L114.192,727.578C114.755,729.277 115.165,730.548 115.423,731.392C115.716,730.455 116.173,729.078 116.794,727.261L122.964,709.331L127.552,709.331L127.552,735.101L124.265,735.101L124.265,713.533L116.776,735.101L113.7,735.101L106.247,713.163L106.247,735.101L102.96,735.101Z" style="fill:rgb(0,104,255);fill-rule:nonzero;"/>
    <path d="M144.831,732.798C143.659,733.794 142.531,734.497 141.447,734.908C140.363,735.318 139.2,735.523 137.958,735.523C135.907,735.523 134.331,735.022 133.23,734.02C132.128,733.018 131.577,731.738 131.577,730.179C131.577,729.265 131.785,728.43 132.201,727.674C132.617,726.918 133.162,726.312 133.836,725.855C134.51,725.398 135.269,725.052 136.112,724.818C136.733,724.654 137.671,724.496 138.925,724.343C141.48,724.038 143.36,723.675 144.567,723.253C144.579,722.82 144.585,722.544 144.585,722.427C144.585,721.138 144.286,720.23 143.689,719.703C142.88,718.988 141.679,718.63 140.085,718.63C138.597,718.63 137.498,718.891 136.789,719.413C136.08,719.934 135.556,720.857 135.216,722.181L132.122,721.759C132.403,720.435 132.866,719.366 133.511,718.551C134.155,717.737 135.087,717.11 136.306,716.67C137.525,716.231 138.937,716.011 140.542,716.011C142.136,716.011 143.431,716.199 144.427,716.574C145.423,716.949 146.155,717.42 146.624,717.989C147.093,718.557 147.421,719.275 147.608,720.142C147.714,720.681 147.767,721.654 147.767,723.06L147.767,727.279C147.767,730.22 147.834,732.08 147.969,732.86C148.104,733.639 148.37,734.386 148.769,735.101L145.464,735.101C145.136,734.445 144.925,733.677 144.831,732.798ZM144.567,725.732C143.419,726.201 141.696,726.599 139.4,726.927C138.099,727.115 137.179,727.326 136.64,727.56C136.101,727.794 135.685,728.137 135.392,728.588C135.099,729.039 134.952,729.54 134.952,730.091C134.952,730.935 135.272,731.638 135.91,732.201C136.549,732.763 137.483,733.044 138.714,733.044C139.933,733.044 141.017,732.778 141.966,732.245C142.915,731.711 143.612,730.982 144.058,730.056C144.398,729.341 144.567,728.287 144.567,726.892L144.567,725.732Z" style="fill:rgb(0,104,255);fill-rule:nonzero;"/>
    <path d="M159.579,732.271L160.036,735.066C159.146,735.253 158.349,735.347 157.646,735.347C156.497,735.347 155.607,735.165 154.974,734.802C154.341,734.439 153.896,733.961 153.638,733.37C153.38,732.778 153.251,731.533 153.251,729.634L153.251,718.894L150.931,718.894L150.931,716.433L153.251,716.433L153.251,711.81L156.398,709.912L156.398,716.433L159.579,716.433L159.579,718.894L156.398,718.894L156.398,729.81C156.398,730.712 156.453,731.292 156.565,731.55C156.676,731.808 156.858,732.013 157.109,732.165C157.361,732.318 157.722,732.394 158.191,732.394C158.542,732.394 159.005,732.353 159.579,732.271Z" style="fill:rgb(0,104,255);fill-rule:nonzero;"/>
    <path d="M175.452,729.089L178.722,729.494C178.206,731.404 177.251,732.886 175.857,733.941C174.462,734.996 172.681,735.523 170.513,735.523C167.782,735.523 165.617,734.682 164.018,733C162.418,731.319 161.618,728.96 161.618,725.925C161.618,722.785 162.427,720.347 164.044,718.613C165.661,716.878 167.759,716.011 170.337,716.011C172.833,716.011 174.872,716.861 176.454,718.56C178.036,720.259 178.827,722.65 178.827,725.732C178.827,725.919 178.821,726.201 178.81,726.576L164.888,726.576C165.005,728.626 165.585,730.197 166.628,731.287C167.671,732.376 168.972,732.921 170.53,732.921C171.691,732.921 172.681,732.617 173.501,732.007C174.321,731.398 174.972,730.425 175.452,729.089ZM165.064,723.974L175.487,723.974C175.347,722.404 174.948,721.226 174.292,720.441C173.284,719.222 171.978,718.613 170.372,718.613C168.919,718.613 167.697,719.099 166.707,720.072C165.717,721.044 165.169,722.345 165.064,723.974Z" style="fill:rgb(0,104,255);fill-rule:nonzero;"/>
    <path d="M182.659,735.101L182.659,716.433L185.507,716.433L185.507,719.263C186.233,717.939 186.904,717.066 187.52,716.644C188.135,716.222 188.812,716.011 189.55,716.011C190.616,716.011 191.7,716.351 192.802,717.031L191.712,719.966C190.939,719.509 190.165,719.281 189.392,719.281C188.7,719.281 188.079,719.489 187.528,719.905C186.978,720.321 186.585,720.898 186.351,721.636C185.999,722.761 185.823,723.992 185.823,725.328L185.823,735.101L182.659,735.101Z" style="fill:rgb(0,104,255);fill-rule:nonzero;"/>
    <path d="M194.7,712.97L194.7,709.331L197.864,709.331L197.864,712.97L194.7,712.97ZM194.7,735.101L194.7,716.433L197.864,716.433L197.864,735.101L194.7,735.101Z" style="fill:rgb(0,104,255);fill-rule:nonzero;"/>
    <path d="M214.862,732.798C213.691,733.794 212.563,734.497 211.479,734.908C210.395,735.318 209.232,735.523 207.989,735.523C205.939,735.523 204.362,735.022 203.261,734.02C202.159,733.018 201.608,731.738 201.608,730.179C201.608,729.265 201.817,728.43 202.233,727.674C202.649,726.918 203.193,726.312 203.867,725.855C204.541,725.398 205.3,725.052 206.144,724.818C206.765,724.654 207.702,724.496 208.956,724.343C211.511,724.038 213.392,723.675 214.599,723.253C214.61,722.82 214.616,722.544 214.616,722.427C214.616,721.138 214.317,720.23 213.72,719.703C212.911,718.988 211.71,718.63 210.116,718.63C208.628,718.63 207.529,718.891 206.82,719.413C206.111,719.934 205.587,720.857 205.247,722.181L202.153,721.759C202.435,720.435 202.898,719.366 203.542,718.551C204.187,717.737 205.118,717.11 206.337,716.67C207.556,716.231 208.968,716.011 210.573,716.011C212.167,716.011 213.462,716.199 214.458,716.574C215.454,716.949 216.187,717.42 216.655,717.989C217.124,718.557 217.452,719.275 217.64,720.142C217.745,720.681 217.798,721.654 217.798,723.06L217.798,727.279C217.798,730.22 217.865,732.08 218,732.86C218.135,733.639 218.401,734.386 218.8,735.101L215.495,735.101C215.167,734.445 214.956,733.677 214.862,732.798ZM214.599,725.732C213.45,726.201 211.728,726.599 209.431,726.927C208.13,727.115 207.21,727.326 206.671,727.56C206.132,727.794 205.716,728.137 205.423,728.588C205.13,729.039 204.983,729.54 204.983,730.091C204.983,730.935 205.303,731.638 205.942,732.201C206.58,732.763 207.515,733.044 208.745,733.044C209.964,733.044 211.048,732.778 211.997,732.245C212.946,731.711 213.644,730.982 214.089,730.056C214.429,729.341 214.599,728.287 214.599,726.892L214.599,725.732Z" style="fill:rgb(0,104,255);fill-rule:nonzero;"/>
    <rect x="222.632" y="709.331" width="3.164" height="25.77" style="fill:rgb(0,104,255);fill-rule:nonzero;"/>
    <path d="M231.579,720.037L231.579,716.433L235.183,716.433L235.183,720.037L231.579,720.037ZM231.579,735.101L231.579,731.497L235.183,731.497L235.183,735.101L231.579,735.101Z" style="fill:rgb(0,104,255);fill-rule:nonzero;"/>
    <path d="M251.003,735.101L251.003,709.331L256.136,709.331L262.235,727.578C262.798,729.277 263.208,730.548 263.466,731.392C263.759,730.455 264.216,729.078 264.837,727.261L271.007,709.331L275.595,709.331L275.595,735.101L272.308,735.101L272.308,713.533L264.819,735.101L261.743,735.101L254.29,713.163L254.29,735.101L251.003,735.101Z" style="fill:rgb(0,104,255);fill-rule:nonzero;"/>
    <path d="M292.927,735.101L292.927,732.359C291.474,734.468 289.499,735.523 287.003,735.523C285.901,735.523 284.873,735.312 283.918,734.89C282.963,734.468 282.254,733.938 281.791,733.299C281.328,732.661 281.003,731.878 280.816,730.953C280.687,730.331 280.622,729.347 280.622,727.999L280.622,716.433L283.786,716.433L283.786,726.787C283.786,728.439 283.851,729.552 283.98,730.126C284.179,730.958 284.601,731.612 285.245,732.086C285.89,732.561 286.687,732.798 287.636,732.798C288.585,732.798 289.476,732.555 290.308,732.069C291.14,731.582 291.729,730.92 292.074,730.082C292.42,729.245 292.593,728.029 292.593,726.435L292.593,716.433L295.757,716.433L295.757,735.101L292.927,735.101Z" style="fill:rgb(0,104,255);fill-rule:nonzero;"/>
    <rect x="300.644" y="709.331" width="3.164" height="25.77" style="fill:rgb(0,104,255);fill-rule:nonzero;"/>
    <path d="M315.62,732.271L316.077,735.066C315.187,735.253 314.39,735.347 313.687,735.347C312.538,735.347 311.648,735.165 311.015,734.802C310.382,734.439 309.937,733.961 309.679,733.37C309.421,732.778 309.292,731.533 309.292,729.634L309.292,718.894L306.972,718.894L306.972,716.433L309.292,716.433L309.292,711.81L312.439,709.912L312.439,716.433L315.62,716.433L315.62,718.894L312.439,718.894L312.439,729.81C312.439,730.712 312.494,731.292 312.606,731.55C312.717,731.808 312.899,732.013 313.15,732.165C313.402,732.318 313.763,732.394 314.232,732.394C314.583,732.394 315.046,732.353 315.62,732.271Z" style="fill:rgb(0,104,255);fill-rule:nonzero;"/>
    <path d="M318.732,712.97L318.732,709.331L321.896,709.331L321.896,712.97L318.732,712.97ZM318.732,735.101L318.732,716.433L321.896,716.433L321.896,735.101L318.732,735.101Z" style="fill:rgb(0,104,255);fill-rule:nonzero;"/>
    <path d="M326.712,742.255L326.712,716.433L329.595,716.433L329.595,718.859C330.275,717.91 331.042,717.198 331.898,716.723C332.753,716.248 333.79,716.011 335.009,716.011C336.603,716.011 338.009,716.421 339.228,717.242C340.446,718.062 341.366,719.219 341.987,720.713C342.608,722.207 342.919,723.845 342.919,725.626C342.919,727.537 342.576,729.256 341.891,730.786C341.205,732.315 340.209,733.487 338.902,734.301C337.596,735.116 336.222,735.523 334.78,735.523C333.726,735.523 332.779,735.3 331.942,734.855C331.104,734.41 330.415,733.847 329.876,733.167L329.876,742.255L326.712,742.255ZM329.577,725.872C329.577,728.275 330.064,730.05 331.036,731.199C332.009,732.347 333.187,732.921 334.569,732.921C335.976,732.921 337.18,732.327 338.182,731.137C339.184,729.948 339.685,728.105 339.685,725.609C339.685,723.23 339.195,721.449 338.217,720.265C337.238,719.081 336.069,718.49 334.71,718.49C333.362,718.49 332.17,719.12 331.133,720.379C330.096,721.639 329.577,723.47 329.577,725.872Z" style="fill:rgb(0,104,255);fill-rule:nonzero;"/>
    <rect x="346.663" y="709.331" width="3.164" height="25.77" style="fill:rgb(0,104,255);fill-rule:nonzero;"/>
    <path d="M367.511,729.089L370.78,729.494C370.265,731.404 369.31,732.886 367.915,733.941C366.521,734.996 364.739,735.523 362.571,735.523C359.841,735.523 357.676,734.682 356.076,733C354.477,731.319 353.677,728.96 353.677,725.925C353.677,722.785 354.485,720.347 356.103,718.613C357.72,716.878 359.817,716.011 362.396,716.011C364.892,716.011 366.931,716.861 368.513,718.56C370.095,720.259 370.886,722.65 370.886,725.732C370.886,725.919 370.88,726.201 370.868,726.576L356.946,726.576C357.064,728.626 357.644,730.197 358.687,731.287C359.73,732.376 361.03,732.921 362.589,732.921C363.749,732.921 364.739,732.617 365.56,732.007C366.38,731.398 367.03,730.425 367.511,729.089ZM357.122,723.974L367.546,723.974C367.405,722.404 367.007,721.226 366.351,720.441C365.343,719.222 364.036,718.613 362.431,718.613C360.978,718.613 359.756,719.099 358.766,720.072C357.775,721.044 357.228,722.345 357.122,723.974Z" style="fill:rgb(0,104,255);fill-rule:nonzero;"/>
    <path d="M372.644,735.101L379.464,725.398L373.153,716.433L377.108,716.433L379.974,720.81C380.513,721.642 380.946,722.339 381.275,722.902C381.79,722.128 382.265,721.443 382.698,720.845L385.845,716.433L389.624,716.433L383.173,725.222L390.116,735.101L386.232,735.101L382.4,729.3L381.38,727.736L376.476,735.101L372.644,735.101Z" style="fill:rgb(0,104,255);fill-rule:nonzero;"/>
    <path d="M413.794,735.101L410.63,735.101L410.63,714.939C409.868,715.665 408.869,716.392 407.633,717.119C406.397,717.845 405.286,718.39 404.302,718.753L404.302,715.695C406.071,714.863 407.618,713.855 408.942,712.671C410.267,711.488 411.204,710.339 411.755,709.226L413.794,709.226L413.794,735.101Z" style="fill:rgb(0,104,255);fill-rule:nonzero;"/>
    <path d="M421.898,722.392C421.898,719.345 422.211,716.893 422.838,715.036C423.465,713.178 424.397,711.746 425.633,710.738C426.869,709.73 428.425,709.226 430.3,709.226C431.683,709.226 432.896,709.504 433.939,710.061C434.982,710.618 435.843,711.42 436.523,712.469C437.202,713.518 437.735,714.795 438.122,716.301C438.509,717.807 438.702,719.837 438.702,722.392C438.702,725.415 438.392,727.856 437.771,729.713C437.15,731.571 436.221,733.006 434.984,734.02C433.748,735.034 432.187,735.54 430.3,735.54C427.816,735.54 425.864,734.65 424.446,732.869C422.747,730.724 421.898,727.232 421.898,722.392ZM425.15,722.392C425.15,726.622 425.645,729.438 426.635,730.838C427.625,732.239 428.847,732.939 430.3,732.939C431.753,732.939 432.975,732.236 433.965,730.83C434.955,729.423 435.45,726.611 435.45,722.392C435.45,718.15 434.955,715.331 433.965,713.937C432.975,712.542 431.741,711.845 430.265,711.845C428.812,711.845 427.651,712.46 426.784,713.691C425.694,715.261 425.15,718.162 425.15,722.392Z" style="fill:rgb(0,104,255);fill-rule:nonzero;"/>
    <path d="M442.798,735.101L442.798,716.433L445.628,716.433L445.628,719.052C446.214,718.138 446.993,717.403 447.966,716.846C448.939,716.289 450.046,716.011 451.288,716.011C452.671,716.011 453.805,716.298 454.69,716.872C455.574,717.447 456.198,718.249 456.562,719.281C458.038,717.101 459.96,716.011 462.327,716.011C464.179,716.011 465.603,716.524 466.599,717.549C467.595,718.575 468.093,720.154 468.093,722.287L468.093,735.101L464.946,735.101L464.946,723.341C464.946,722.076 464.844,721.164 464.639,720.608C464.434,720.051 464.062,719.603 463.523,719.263C462.983,718.923 462.351,718.753 461.624,718.753C460.312,718.753 459.222,719.19 458.355,720.063C457.487,720.936 457.054,722.333 457.054,724.255L457.054,735.101L453.89,735.101L453.89,722.972C453.89,721.566 453.632,720.511 453.116,719.808C452.601,719.105 451.757,718.753 450.585,718.753C449.694,718.753 448.871,718.988 448.115,719.456C447.359,719.925 446.812,720.611 446.472,721.513C446.132,722.415 445.962,723.716 445.962,725.415L445.962,735.101L442.798,735.101Z" style="fill:rgb(0,104,255);fill-rule:nonzero;"/>
    <path d="M472.786,735.101L472.786,716.433L475.616,716.433L475.616,719.052C476.202,718.138 476.982,717.403 477.954,716.846C478.927,716.289 480.034,716.011 481.276,716.011C482.659,716.011 483.793,716.298 484.678,716.872C485.563,717.447 486.187,718.249 486.55,719.281C488.026,717.101 489.948,716.011 492.316,716.011C494.167,716.011 495.591,716.524 496.587,717.549C497.583,718.575 498.081,720.154 498.081,722.287L498.081,735.101L494.935,735.101L494.935,723.341C494.935,722.076 494.832,721.164 494.627,720.608C494.422,720.051 494.05,719.603 493.511,719.263C492.972,718.923 492.339,718.753 491.612,718.753C490.3,718.753 489.21,719.19 488.343,720.063C487.476,720.936 487.042,722.333 487.042,724.255L487.042,735.101L483.878,735.101L483.878,722.972C483.878,721.566 483.62,720.511 483.105,719.808C482.589,719.105 481.745,718.753 480.573,718.753C479.683,718.753 478.859,718.988 478.104,719.456C477.348,719.925 476.8,720.611 476.46,721.513C476.12,722.415 475.95,723.716 475.95,725.415L475.95,735.101L472.786,735.101Z" style="fill:rgb(0,104,255);fill-rule:nonzero;"/>
</svg>
