<?xml version="1.0" encoding="UTF-8" standalone="no"?>
<!DOCTYPE svg PUBLIC "-//W3C//DTD SVG 1.1//EN" "http://www.w3.org/Graphics/SVG/1.1/DTD/svg11.dtd">
<svg width="842px" height="596px" version="1.1" xmlns="http://www.w3.org/2000/svg" xmlns:xlink="http://www.w3.org/1999/xlink" xml:space="preserve" xmlns:serif="http://www.serif.com/" style="fill-rule:evenodd;clip-rule:evenodd;stroke-linecap:round;stroke-linejoin:round;stroke-miterlimit:1.5;">
    <path d="M80.787,283.465L80.787,411.024C80.787,418.846 74.437,425.197 66.614,425.197L28.346,425.197L28.346,141.732L822.047,141.732L822.047,425.197L740.87,425.197C733.047,425.197 726.696,418.846 726.696,411.024L726.696,289.92L624.649,289.92L624.649,411.024C624.649,418.846 618.298,425.197 610.476,425.197L477.638,425.197C469.815,425.197 463.465,418.846 463.465,411.024L463.465,283.465L386.929,283.465L386.929,411.024C386.929,418.846 380.578,425.197 372.756,425.197L270.118,425.197C262.296,425.197 255.945,418.846 255.945,411.024L255.945,283.465L213.425,283.465L213.425,411.024C213.425,418.846 207.074,425.197 199.252,425.197L145.984,425.197C138.162,425.197 131.811,418.846 131.811,411.024L131.811,283.465L80.787,283.465Z"/>
    <path id="Bezugspunkt" d="M28.346,400.124L28.346,425.197L42.479,425.197L28.346,400.124Z" style="fill:rgb(255,0,0);stroke:rgb(255,0,0);stroke-width:0.24px;"/>
</svg>
