<?xml version="1.0" encoding="UTF-8" standalone="no"?>
<!DOCTYPE svg PUBLIC "-//W3C//DTD SVG 1.1//EN" "http://www.w3.org/Graphics/SVG/1.1/DTD/svg11.dtd">
<svg width="1191px" height="842px" version="1.1" xmlns="http://www.w3.org/2000/svg" xmlns:xlink="http://www.w3.org/1999/xlink" xml:space="preserve" xmlns:serif="http://www.serif.com/" style="fill-rule:evenodd;clip-rule:evenodd;stroke-miterlimit:10;">
    <path d="M620.611,340.157L600.554,340.157C587.315,340.157 576.567,329.409 576.567,316.17L576.567,184.252L559.559,184.252L559.559,316.17C559.559,329.409 548.811,340.157 535.572,340.157L515.515,340.157C502.276,340.157 491.528,329.409 491.528,316.17L491.528,184.252L474.52,184.252L474.52,316.17C474.52,329.409 463.771,340.157 450.532,340.157L430.476,340.157C417.237,340.157 406.488,329.409 406.488,316.17L406.488,184.252L389.48,184.252L389.48,316.17C389.48,329.409 378.732,340.157 365.493,340.157L345.436,340.157C332.197,340.157 321.449,329.409 321.449,316.17L321.449,184.252L304.441,184.252L304.441,316.17C304.441,329.409 293.692,340.157 280.453,340.157L260.397,340.157C247.158,340.157 236.409,329.409 236.409,316.17L236.409,184.252L219.402,184.252L219.402,316.17C219.402,329.409 208.653,340.157 195.414,340.157L175.481,340.157C162.242,340.157 151.494,329.409 151.494,316.17L151.494,184.252L134.486,184.252L134.486,316.17C134.486,329.409 123.737,340.157 110.498,340.157L56.693,340.157L56.693,56.693L737.008,56.693L737.008,340.157L685.594,340.157C672.355,340.157 661.606,329.409 661.606,316.17L661.606,184.252L644.598,184.252L644.598,316.17C644.598,329.409 633.85,340.157 620.611,340.157Z"/>
    <path d="M175.588,182.406C175.588,175.602 170.065,170.079 163.261,170.079L122.718,170.079C115.915,170.079 110.391,175.602 110.391,182.406L110.391,256.965C110.391,263.768 115.915,269.291 122.718,269.291L163.261,269.291C170.065,269.291 175.588,263.768 175.588,256.965L175.588,182.406Z" style="fill:white;stroke:black;stroke-width:0.37px;"/>
    <path d="M260.504,182.406C260.504,175.602 254.98,170.079 248.177,170.079L207.634,170.079C200.831,170.079 195.307,175.602 195.307,182.406L195.307,256.965C195.307,263.768 200.831,269.291 207.634,269.291L248.177,269.291C254.98,269.291 260.504,263.768 260.504,256.965L260.504,182.406Z" style="fill:white;stroke:black;stroke-width:0.37px;"/>
    <path d="M345.543,182.406C345.543,175.602 340.02,170.079 333.217,170.079L292.673,170.079C285.87,170.079 280.346,175.602 280.346,182.406L280.346,256.965C280.346,263.768 285.87,269.291 292.673,269.291L333.217,269.291C340.02,269.291 345.543,263.768 345.543,256.965L345.543,182.406Z" style="fill:white;stroke:black;stroke-width:0.37px;"/>
    <path d="M430.583,182.406C430.583,175.602 425.059,170.079 418.256,170.079L377.713,170.079C370.909,170.079 365.386,175.602 365.386,182.406L365.386,256.965C365.386,263.768 370.909,269.291 377.713,269.291L418.256,269.291C425.059,269.291 430.583,263.768 430.583,256.965L430.583,182.406Z" style="fill:white;stroke:black;stroke-width:0.37px;"/>
    <path d="M515.622,182.406C515.622,175.602 510.099,170.079 503.295,170.079L462.752,170.079C455.949,170.079 450.425,175.602 450.425,182.406L450.425,256.965C450.425,263.768 455.949,269.291 462.752,269.291L503.295,269.291C510.099,269.291 515.622,263.768 515.622,256.965L515.622,182.406Z" style="fill:white;stroke:black;stroke-width:0.37px;"/>
    <path d="M600.661,182.406C600.661,175.602 595.138,170.079 588.335,170.079L547.791,170.079C540.988,170.079 535.465,175.602 535.465,182.406L535.465,256.965C535.465,263.768 540.988,269.291 547.791,269.291L588.335,269.291C595.138,269.291 600.661,263.768 600.661,256.965L600.661,182.406Z" style="fill:white;stroke:black;stroke-width:0.37px;"/>
    <path d="M685.701,182.406C685.701,175.602 680.177,170.079 673.374,170.079L632.831,170.079C626.027,170.079 620.504,175.602 620.504,182.406L620.504,256.965C620.504,263.768 626.027,269.291 632.831,269.291L673.374,269.291C680.177,269.291 685.701,263.768 685.701,256.965L685.701,182.406Z" style="fill:white;stroke:black;stroke-width:0.37px;"/>
    <path id="Bezugspunkt" d="M56.693,315.085L56.693,340.157L70.826,340.157L56.693,315.085Z" style="fill:rgb(255,0,0);stroke:rgb(255,0,0);stroke-width:0.24px;stroke-linecap:round;stroke-linejoin:round;stroke-miterlimit:1.5;"/>
</svg>
