<?xml version="1.0" encoding="UTF-8" standalone="no"?>
<!DOCTYPE svg PUBLIC "-//W3C//DTD SVG 1.1//EN" "http://www.w3.org/Graphics/SVG/1.1/DTD/svg11.dtd">
<svg width="842px" height="596px" version="1.1" xmlns="http://www.w3.org/2000/svg" xmlns:xlink="http://www.w3.org/1999/xlink" xml:space="preserve" xmlns:serif="http://www.serif.com/" style="fill-rule:evenodd;clip-rule:evenodd;stroke-linecap:round;stroke-linejoin:round;stroke-miterlimit:1.5;">
    <path d="M82.205,360.598L82.205,382.677C82.205,390.5 75.854,396.85 68.031,396.85L28.346,396.85L28.346,141.732L822.047,141.732L822.047,396.85L762.52,396.85C754.697,396.85 748.346,390.5 748.346,382.677L748.346,367.053C758.398,362.273 765.354,352.021 765.354,340.157C765.354,323.73 752.018,310.394 735.591,310.394C719.163,310.394 705.827,323.73 705.827,340.157C705.827,352.021 712.783,362.273 722.835,367.053L722.835,382.677C722.835,390.5 716.484,396.85 708.661,396.85L649.134,396.85C641.311,396.85 634.961,390.5 634.961,382.677L634.961,367.053C645.012,362.273 651.969,352.021 651.969,340.157C651.969,323.73 638.632,310.394 622.205,310.394C605.778,310.394 592.441,323.73 592.441,340.157C592.441,352.021 599.397,362.273 609.449,367.053L609.449,382.677C609.449,390.5 603.098,396.85 595.276,396.85L535.748,396.85C527.926,396.85 521.575,390.5 521.575,382.677L521.575,367.053C531.627,362.273 538.583,352.021 538.583,340.157C538.583,323.73 525.246,310.394 508.819,310.394C492.392,310.394 479.055,323.73 479.055,340.157C479.055,352.021 486.011,362.273 496.063,367.053L496.063,382.677C496.063,390.5 489.712,396.85 481.89,396.85L377.008,396.85C369.185,396.85 362.835,390.5 362.835,382.677L362.835,360.598C369.643,356.337 374.173,348.772 374.173,340.157C374.173,326.859 363.377,316.063 350.079,316.063C336.781,316.063 325.984,326.859 325.984,340.157C325.984,348.772 330.515,356.337 337.323,360.598L337.323,382.677C337.323,390.5 330.972,396.85 323.15,396.85L291.969,396.85C284.146,396.85 277.795,390.5 277.795,382.677L277.795,360.598C284.603,356.337 289.134,348.772 289.134,340.157C289.134,326.859 278.337,316.063 265.039,316.063C251.741,316.063 240.945,326.859 240.945,340.157C240.945,348.772 245.476,356.337 252.283,360.598L252.283,382.677C252.283,390.5 245.933,396.85 238.11,396.85L206.929,396.85C199.107,396.85 192.756,390.5 192.756,382.677L192.756,360.598C199.564,356.337 204.094,348.772 204.094,340.157C204.094,326.859 193.298,316.063 180,316.063C166.702,316.063 155.906,326.859 155.906,340.157C155.906,348.772 160.436,356.337 167.244,360.598L167.244,382.677C167.244,390.5 160.893,396.85 153.071,396.85L121.89,396.85C114.067,396.85 107.717,390.5 107.717,382.677L107.717,360.598C114.524,356.337 119.055,348.772 119.055,340.157C119.055,326.859 108.259,316.063 94.961,316.063C81.663,316.063 70.866,326.859 70.866,340.157C70.866,348.772 75.397,356.337 82.205,360.598Z"/>
    <path id="Bezugspunkt" d="M28.346,371.778L28.346,396.85L42.479,396.85L28.346,371.778Z" style="fill:rgb(255,0,0);stroke:rgb(255,0,0);stroke-width:0.24px;"/>
    <circle cx="137.48" cy="198.425" r="24.094" style="fill:white;stroke:black;stroke-width:0.23px;stroke-linecap:butt;stroke-linejoin:miter;stroke-miterlimit:10;"/>
    <circle cx="222.52" cy="198.425" r="24.094" style="fill:white;stroke:black;stroke-width:0.23px;stroke-linecap:butt;stroke-linejoin:miter;stroke-miterlimit:10;"/>
    <circle cx="307.559" cy="198.425" r="24.094" style="fill:white;stroke:black;stroke-width:0.23px;stroke-linecap:butt;stroke-linejoin:miter;stroke-miterlimit:10;"/>
    <path d="M721.417,185.669C721.417,178.629 715.702,172.913 708.661,172.913L649.134,172.913C642.094,172.913 636.378,178.629 636.378,185.669L636.378,211.181C636.378,218.221 642.094,223.937 649.134,223.937L708.661,223.937C715.702,223.937 721.417,218.221 721.417,211.181L721.417,185.669Z" style="fill:white;stroke:black;stroke-width:0.3px;stroke-linecap:butt;stroke-linejoin:miter;stroke-miterlimit:10;"/>
    <path d="M608.031,185.669C608.031,178.629 602.316,172.913 595.276,172.913L535.748,172.913C528.708,172.913 522.992,178.629 522.992,185.669L522.992,211.181C522.992,218.221 528.708,223.937 535.748,223.937L595.276,223.937C602.316,223.937 608.031,218.221 608.031,211.181L608.031,185.669Z" style="fill:white;stroke:black;stroke-width:0.3px;stroke-linecap:butt;stroke-linejoin:miter;stroke-miterlimit:10;"/>
    <path d="M494.646,185.669C494.646,178.629 488.93,172.913 481.89,172.913L422.362,172.913C415.322,172.913 409.606,178.629 409.606,185.669L409.606,211.181C409.606,218.221 415.322,223.937 422.362,223.937L481.89,223.937C488.93,223.937 494.646,218.221 494.646,211.181L494.646,185.669Z" style="fill:white;stroke:black;stroke-width:0.3px;stroke-linecap:butt;stroke-linejoin:miter;stroke-miterlimit:10;"/>
</svg>
