<?xml version="1.0" encoding="UTF-8" standalone="no"?>
<!DOCTYPE svg PUBLIC "-//W3C//DTD SVG 1.1//EN" "http://www.w3.org/Graphics/SVG/1.1/DTD/svg11.dtd">
<svg width="842px" height="596px" version="1.1" xmlns="http://www.w3.org/2000/svg" xmlns:xlink="http://www.w3.org/1999/xlink" xml:space="preserve" xmlns:serif="http://www.serif.com/" style="fill-rule:evenodd;clip-rule:evenodd;stroke-linecap:round;stroke-linejoin:round;stroke-miterlimit:1.5;">
    <path d="M651.969,255.118L592.441,255.118C584.619,255.118 578.268,248.767 578.268,240.945L578.268,225.321C588.32,220.541 595.276,210.289 595.276,198.425C595.276,181.998 581.939,168.661 565.512,168.661C549.085,168.661 535.748,181.998 535.748,198.425C535.748,210.289 542.704,220.541 552.756,225.321L552.756,240.945C552.756,248.767 546.405,255.118 538.583,255.118L479.138,255.118C471.316,255.118 464.965,248.767 464.965,240.945L464.965,225.281C474.972,220.484 481.89,210.256 481.89,198.425C481.89,181.998 468.553,168.661 452.126,168.661C435.699,168.661 422.362,181.998 422.362,198.425C422.362,210.322 429.357,220.597 439.453,225.36L439.453,240.945C439.453,248.767 433.102,255.118 425.28,255.118L334.488,255.118C326.666,255.118 320.315,248.767 320.315,240.945L320.315,218.865C327.123,214.604 331.654,207.04 331.654,198.425C331.654,185.127 320.857,174.331 307.559,174.331C294.261,174.331 283.465,185.127 283.465,198.425C283.465,207.04 287.995,214.604 294.803,218.865L294.803,240.945C294.803,248.767 288.452,255.118 280.63,255.118L249.449,255.118C241.626,255.118 235.276,248.767 235.276,240.945L235.276,218.865C242.084,214.604 246.614,207.04 246.614,198.425C246.614,185.127 235.818,174.331 222.52,174.331C209.222,174.331 198.425,185.127 198.425,198.425C198.425,207.04 202.956,214.604 209.764,218.865L209.764,240.945C209.764,248.767 203.413,255.118 195.591,255.118L164.409,255.118C156.587,255.118 150.236,248.767 150.236,240.945L150.236,218.865C157.044,214.604 161.575,207.04 161.575,198.425C161.575,185.127 150.778,174.331 137.48,174.331C124.182,174.331 113.386,185.127 113.386,198.425C113.386,207.04 117.916,214.604 124.724,218.865L124.724,240.945C124.724,248.767 118.374,255.118 110.551,255.118L28.346,255.118L28.346,141.732L822.047,141.732L822.047,255.118L705.827,255.118C698.004,255.118 691.654,248.767 691.654,240.945L691.654,225.321C701.705,220.541 708.661,210.289 708.661,198.425C708.661,181.998 695.325,168.661 678.898,168.661C662.471,168.661 649.134,181.998 649.134,198.425C649.134,210.289 656.09,220.541 666.142,225.321L666.142,240.945C666.142,248.767 659.791,255.118 651.969,255.118Z"/>
    <path id="Bezugspunkt" d="M28.346,230.045L28.346,255.118L42.479,255.118L28.346,230.045Z" style="fill:rgb(255,0,0);stroke:rgb(255,0,0);stroke-width:0.24px;"/>
</svg>
