<?xml version="1.0" encoding="UTF-8" standalone="no"?>
<!DOCTYPE svg PUBLIC "-//W3C//DTD SVG 1.1//EN" "http://www.w3.org/Graphics/SVG/1.1/DTD/svg11.dtd">
<svg width="842px" height="596px" version="1.1" xmlns="http://www.w3.org/2000/svg" xmlns:xlink="http://www.w3.org/1999/xlink" xml:space="preserve" xmlns:serif="http://www.serif.com/" style="fill-rule:evenodd;clip-rule:evenodd;stroke-linecap:round;stroke-linejoin:round;stroke-miterlimit:1.5;">
    <path d="M759.685,198.425L759.736,294.841C759.736,304.207 767.34,311.811 776.706,311.811L822.047,311.811L822.047,113.386L28.346,113.386L28.346,311.811L65.224,311.811C74.59,311.811 82.194,304.207 82.194,294.841L82.205,198.425L121.89,198.425L121.89,295.817C122.397,304.73 129.794,311.811 138.832,311.811L173.625,311.811C182.338,311.231 189.261,304.061 189.449,295.246L189.449,198.425L229.134,198.425L229.203,294.841C229.203,304.207 236.807,311.811 246.173,311.811L289.668,311.811C298.73,311.811 306.142,304.693 306.614,295.75L306.614,198.425L326.457,198.425L326.531,294.841C326.531,304.207 334.135,311.811 343.501,311.811L396.859,311.811C406.225,311.811 413.829,304.207 413.829,294.841L413.858,198.425L433.701,198.425L433.736,294.879C433.736,303.861 440.729,311.223 449.563,311.811L504.142,311.811C513.318,311.811 520.802,304.513 521.102,295.409L521.102,198.425L540.945,198.425L541.005,294.879C541.005,303.861 547.999,311.223 556.833,311.811L612.511,311.811C621.345,311.223 628.338,303.861 628.338,294.879L628.346,198.425L648.189,198.425L648.283,294.879C648.283,303.861 655.276,311.223 664.11,311.811L714.339,311.811C723.705,311.811 731.309,304.207 731.309,294.841L731.339,198.425L759.685,198.425Z"/>
    <path id="Bezugspunkt" d="M28.346,286.738L28.346,311.811L42.479,311.811L28.346,286.738Z" style="fill:rgb(255,0,0);stroke:rgb(255,0,0);stroke-width:0.24px;"/>
</svg>
