<?xml version="1.0" encoding="UTF-8" standalone="no"?>
<!DOCTYPE svg PUBLIC "-//W3C//DTD SVG 1.1//EN" "http://www.w3.org/Graphics/SVG/1.1/DTD/svg11.dtd">
<svg width="1191px" height="842px" version="1.1" xmlns="http://www.w3.org/2000/svg" xmlns:xlink="http://www.w3.org/1999/xlink" xml:space="preserve" xmlns:serif="http://www.serif.com/" style="fill-rule:evenodd;clip-rule:evenodd;stroke-miterlimit:10;">
    <path d="M667.964,578.268L667.964,558.432C682.698,554.137 693.476,540.522 693.476,524.409C693.476,504.853 677.599,488.976 658.043,488.976C638.487,488.976 622.61,504.853 622.61,524.409C622.61,540.522 633.387,554.137 648.121,558.432L648.121,578.268C648.121,587.655 640.501,595.276 631.114,595.276L571.789,595.276C562.402,595.276 554.781,587.655 554.781,578.268L554.781,564.506C571.288,558.664 583.127,542.909 583.127,524.409C583.127,500.942 564.075,481.89 540.607,481.89C517.14,481.89 498.088,500.942 498.088,524.409C498.088,542.909 509.927,558.664 526.434,564.506L526.434,578.268C526.434,587.655 518.813,595.276 509.426,595.276L451.519,595.276C442.132,595.276 434.511,587.655 434.511,578.268L434.511,557.986C448.512,553.255 458.605,540.001 458.605,524.409C458.605,504.853 442.728,488.976 423.172,488.976C403.616,488.976 387.739,504.853 387.739,524.409C387.739,540.001 397.832,553.255 411.834,557.986L411.834,578.268C411.834,587.655 404.213,595.276 394.826,595.276L332.666,595.276C323.279,595.276 315.658,587.655 315.658,578.268L315.658,558.432C330.392,554.137 341.17,540.522 341.17,524.409C341.17,504.853 325.293,488.976 305.737,488.976C286.181,488.976 270.304,504.853 270.304,524.409C270.304,540.522 281.081,554.137 295.816,558.432L295.816,578.268C295.816,587.655 288.195,595.276 278.808,595.276L215.231,595.276C205.844,595.276 198.223,587.655 198.223,578.268L198.223,558.432C212.957,554.137 223.735,540.522 223.735,524.409C223.735,504.853 207.858,488.976 188.301,488.976C168.745,488.976 152.868,504.853 152.868,524.409C152.868,540.522 163.646,554.137 178.38,558.432L178.38,578.268C178.38,587.655 170.759,595.276 161.372,595.276L85.039,595.276L85.039,283.465L878.74,283.465L878.74,595.276L806.659,595.276C797.272,595.276 789.651,587.655 789.651,578.268L789.651,564.506C806.158,558.664 817.998,542.909 817.998,524.409C817.998,500.942 798.945,481.89 775.478,481.89C752.011,481.89 732.958,500.942 732.958,524.409C732.958,542.909 744.798,558.664 761.305,564.506L761.305,578.268C761.305,587.655 753.684,595.276 744.297,595.276L684.972,595.276C675.585,595.276 667.964,587.655 667.964,578.268Z"/>
    <path d="M174.956,372.676C168.592,377.014 164.409,384.322 164.409,392.598C164.409,405.897 175.206,416.693 188.504,416.693C201.802,416.693 212.598,405.897 212.598,392.598C212.598,384.322 208.416,377.014 202.052,372.676C202.458,371.357 202.677,369.956 202.677,368.504C202.677,360.682 196.326,354.331 188.504,354.331C180.682,354.331 174.331,360.682 174.331,368.504C174.331,369.956 174.549,371.357 174.956,372.676Z" style="fill:white;stroke:black;stroke-width:0.25px;"/>
    <path d="M292.391,372.676C286.027,377.014 281.845,384.322 281.845,392.598C281.845,405.897 292.641,416.693 305.939,416.693C319.237,416.693 330.034,405.897 330.034,392.598C330.034,384.322 325.851,377.014 319.487,372.676C319.894,371.357 320.112,369.956 320.112,368.504C320.112,360.682 313.762,354.331 305.939,354.331C298.117,354.331 291.766,360.682 291.766,368.504C291.766,369.956 291.985,371.357 292.391,372.676Z" style="fill:white;stroke:black;stroke-width:0.25px;"/>
    <path d="M409.826,372.676C403.462,377.014 399.28,384.322 399.28,392.598C399.28,405.897 410.076,416.693 423.375,416.693C436.673,416.693 447.469,405.897 447.469,392.598C447.469,384.322 443.287,377.014 436.923,372.676C437.329,371.357 437.548,369.956 437.548,368.504C437.548,360.682 431.197,354.331 423.375,354.331C415.552,354.331 409.201,360.682 409.201,368.504C409.201,369.956 409.42,371.357 409.826,372.676Z" style="fill:white;stroke:black;stroke-width:0.25px;"/>
    <path d="M527.262,372.676C520.898,377.014 516.715,384.322 516.715,392.598C516.715,405.897 527.512,416.693 540.81,416.693C554.108,416.693 564.904,405.897 564.904,392.598C564.904,384.322 560.722,377.014 554.358,372.676C554.764,371.357 554.983,369.956 554.983,368.504C554.983,360.682 548.632,354.331 540.81,354.331C532.987,354.331 526.637,360.682 526.637,368.504C526.637,369.956 526.855,371.357 527.262,372.676Z" style="fill:white;stroke:black;stroke-width:0.25px;"/>
    <path d="M644.697,372.676C638.333,377.014 634.151,384.322 634.151,392.598C634.151,405.897 644.947,416.693 658.245,416.693C671.543,416.693 682.34,405.897 682.34,392.598C682.34,384.322 678.157,377.014 671.793,372.676C672.2,371.357 672.418,369.956 672.418,368.504C672.418,360.682 666.068,354.331 658.245,354.331C650.423,354.331 644.072,360.682 644.072,368.504C644.072,369.956 644.291,371.357 644.697,372.676Z" style="fill:white;stroke:black;stroke-width:0.25px;"/>
    <path d="M762.132,372.676C755.768,377.014 751.586,384.322 751.586,392.598C751.586,405.897 762.382,416.693 775.681,416.693C788.979,416.693 799.775,405.897 799.775,392.598C799.775,384.322 795.593,377.014 789.229,372.676C789.635,371.357 789.854,369.956 789.854,368.504C789.854,360.682 783.503,354.331 775.681,354.331C767.858,354.331 761.507,360.682 761.507,368.504C761.507,369.956 761.726,371.357 762.132,372.676Z" style="fill:white;stroke:black;stroke-width:0.25px;"/>
    <path id="Bezugspunkt" d="M85.039,570.203L85.039,595.276L99.172,595.276L85.039,570.203Z" style="fill:rgb(255,0,0);stroke:rgb(255,0,0);stroke-width:0.24px;stroke-linecap:round;stroke-linejoin:round;stroke-miterlimit:1.5;"/>
</svg>
