<?xml version="1.0" encoding="UTF-8" standalone="no"?>
<!DOCTYPE svg PUBLIC "-//W3C//DTD SVG 1.1//EN" "http://www.w3.org/Graphics/SVG/1.1/DTD/svg11.dtd">
<svg width="1191px" height="842px" version="1.1" xmlns="http://www.w3.org/2000/svg" xmlns:xlink="http://www.w3.org/1999/xlink" xml:space="preserve" xmlns:serif="http://www.serif.com/" style="fill-rule:evenodd;clip-rule:evenodd;stroke-linecap:round;stroke-linejoin:round;stroke-miterlimit:1.5;">
    <path d="M744.297,198.425L686.389,198.425C677.002,198.425 669.381,190.804 669.381,181.417L669.381,154.374C687.352,149.407 700.562,132.927 700.562,113.386C700.562,89.919 681.51,70.866 658.043,70.866C634.575,70.866 615.523,89.919 615.523,113.386C615.523,132.927 628.734,149.407 646.704,154.374L646.704,181.417C646.704,190.804 639.083,198.425 629.696,198.425L568.954,198.425C559.567,198.425 551.946,190.804 551.946,181.417L551.946,154.374C569.916,149.407 583.127,132.927 583.127,113.386C583.127,89.919 564.075,70.866 540.607,70.866C517.14,70.866 498.088,89.919 498.088,113.386C498.088,132.927 511.298,149.407 529.269,154.374L529.269,181.417C529.269,190.804 521.648,198.425 512.261,198.425L450.101,198.425C440.714,198.425 433.093,190.804 433.093,181.417L433.093,148.883C448.62,144.546 460.022,130.287 460.022,113.386C460.022,93.048 443.51,76.535 423.172,76.535C402.834,76.535 386.322,93.048 386.322,113.386C386.322,130.287 397.724,144.546 413.251,148.883L413.251,181.417C413.251,190.804 405.63,198.425 396.243,198.425L332.666,198.425C323.279,198.425 315.658,190.804 315.658,181.417L315.658,148.883C331.185,144.546 342.587,130.287 342.587,113.386C342.587,93.048 326.075,76.535 305.737,76.535C285.398,76.535 268.886,93.048 268.886,113.386C268.886,130.287 280.289,144.546 295.816,148.883L295.816,181.417C295.816,190.804 288.195,198.425 278.808,198.425L215.231,198.425C205.844,198.425 198.223,190.804 198.223,181.417L198.223,144.444C211.368,140.244 220.9,127.919 220.9,113.386C220.9,95.394 206.293,80.787 188.301,80.787C170.31,80.787 155.703,95.394 155.703,113.386C155.703,127.919 165.235,140.244 178.38,144.444L178.38,181.417C178.38,190.804 170.759,198.425 161.372,198.425L85.039,198.425L85.039,28.346L878.74,28.346L878.74,198.425L806.659,198.425C797.272,198.425 789.651,190.804 789.651,181.417L789.651,160.934C810.135,154.828 825.084,135.839 825.084,113.386C825.084,86.007 802.857,63.78 775.478,63.78C748.1,63.78 725.872,86.007 725.872,113.386C725.872,135.839 740.821,154.828 761.305,160.934L761.305,181.417C761.305,190.804 753.684,198.425 744.297,198.425Z"/>
    <path id="Bezugspunkt" d="M85.039,173.352L85.039,198.425L99.172,198.425L85.039,173.352Z" style="fill:rgb(255,0,0);stroke:rgb(255,0,0);stroke-width:0.24px;"/>
</svg>
