<?xml version="1.0" encoding="UTF-8" standalone="no"?>
<!DOCTYPE svg PUBLIC "-//W3C//DTD SVG 1.1//EN" "http://www.w3.org/Graphics/SVG/1.1/DTD/svg11.dtd">
<svg width="842px" height="596px" version="1.1" xmlns="http://www.w3.org/2000/svg" xmlns:xlink="http://www.w3.org/1999/xlink" xml:space="preserve" xmlns:serif="http://www.serif.com/" style="fill-rule:evenodd;clip-rule:evenodd;stroke-linecap:round;stroke-linejoin:round;stroke-miterlimit:1.5;">
    <path d="M718.583,240.945L718.583,218.028C725.729,214.4 730.63,206.98 730.63,198.425C730.63,186.3 720.786,176.457 708.661,176.457C696.537,176.457 686.693,186.3 686.693,198.425C686.693,206.98 691.594,214.4 698.74,218.028L698.74,240.945C698.74,248.767 692.389,255.118 684.567,255.118L619.37,255.118C611.548,255.118 605.197,248.767 605.197,240.945L605.197,218.028C612.343,214.4 617.244,206.98 617.244,198.425C617.244,186.3 607.4,176.457 595.276,176.457C583.151,176.457 573.307,186.3 573.307,198.425C573.307,206.98 578.208,214.4 585.354,218.028L585.354,240.945C585.354,248.767 579.004,255.118 571.181,255.118L507.402,255.118C499.579,255.118 493.228,248.767 493.228,240.945L493.228,219.687C500.817,215.627 505.984,207.625 505.984,198.425C505.984,185.127 495.188,174.331 481.89,174.331C468.592,174.331 457.795,185.127 457.795,198.425C457.795,207.625 462.962,215.627 470.551,219.687L470.551,240.945C470.551,248.767 464.2,255.118 456.378,255.118L394.016,255.118C386.193,255.118 379.843,248.767 379.843,240.945L379.843,219.687C387.431,215.627 392.598,207.625 392.598,198.425C392.598,185.127 381.802,174.331 368.504,174.331C355.206,174.331 344.409,185.127 344.409,198.425C344.409,207.625 349.576,215.627 357.165,219.687L357.165,240.945C357.165,248.767 350.815,255.118 342.992,255.118L280.63,255.118C272.808,255.118 266.457,248.767 266.457,240.945L266.457,227.477C278.067,222.937 286.299,211.635 286.299,198.425C286.299,181.216 272.327,167.244 255.118,167.244C237.909,167.244 223.937,181.216 223.937,198.425C223.937,211.635 232.169,222.937 243.78,227.477L243.78,240.945C243.78,248.767 237.429,255.118 229.606,255.118L174.331,255.118C166.508,255.118 160.157,248.767 160.157,240.945L160.157,223.576C167.89,217.899 172.913,208.744 172.913,198.425C172.913,181.216 158.942,167.244 141.732,167.244C124.523,167.244 110.551,181.216 110.551,198.425C110.551,208.744 115.574,217.899 123.307,223.576L123.307,240.945C123.307,248.767 116.956,255.118 109.134,255.118L28.346,255.118L28.346,141.732L822.047,141.732L822.047,255.118L732.756,255.118C724.933,255.118 718.583,248.767 718.583,240.945Z"/>
    <path id="Bezugspunkt" d="M28.346,230.045L28.346,255.118L42.479,255.118L28.346,230.045Z" style="fill:rgb(255,0,0);stroke:rgb(255,0,0);stroke-width:0.24px;"/>
</svg>
