<?xml version="1.0" encoding="UTF-8" standalone="no"?>
<!DOCTYPE svg PUBLIC "-//W3C//DTD SVG 1.1//EN" "http://www.w3.org/Graphics/SVG/1.1/DTD/svg11.dtd">
<svg width="842px" height="596px" version="1.1" xmlns="http://www.w3.org/2000/svg" xmlns:xlink="http://www.w3.org/1999/xlink" xml:space="preserve" xmlns:serif="http://www.serif.com/" style="fill-rule:evenodd;clip-rule:evenodd;stroke-miterlimit:10;">
    <path d="M771.024,382.677L771.024,368.659C784.35,366.018 794.409,354.253 794.409,340.157C794.409,324.122 781.39,311.102 765.354,311.102C749.318,311.102 736.299,324.122 736.299,340.157C736.299,354.253 746.358,366.018 759.685,368.659L759.685,382.677C759.685,390.5 753.334,396.85 745.512,396.85L671.811,396.85C663.989,396.85 657.638,390.5 657.638,382.677L657.638,363.58C668.204,361.028 676.063,351.503 676.063,340.157C676.063,326.859 665.267,316.063 651.969,316.063C638.67,316.063 627.874,326.859 627.874,340.157C627.874,351.503 635.733,361.028 646.299,363.58L646.299,382.677C646.299,390.5 639.948,396.85 632.126,396.85L558.425,396.85C550.603,396.85 544.252,390.5 544.252,382.677L544.252,369.381C557.972,366.731 568.346,354.646 568.346,340.157C568.346,323.73 555.01,310.394 538.583,310.394C522.156,310.394 508.819,323.73 508.819,340.157C508.819,354.646 519.194,366.731 532.913,369.381L532.913,382.677C532.913,390.5 526.563,396.85 518.74,396.85L445.039,396.85C437.217,396.85 430.866,390.5 430.866,382.677L430.866,369.381C444.586,366.731 454.961,354.646 454.961,340.157C454.961,323.73 441.624,310.394 425.197,310.394C408.77,310.394 395.433,323.73 395.433,340.157C395.433,354.646 405.808,366.731 419.528,369.381L419.528,382.677C419.528,390.5 413.177,396.85 405.354,396.85L331.654,396.85C323.831,396.85 317.48,390.5 317.48,382.677L317.48,371.544C332.38,368.866 343.701,355.824 343.701,340.157C343.701,322.557 329.411,308.268 311.811,308.268C294.211,308.268 279.921,322.557 279.921,340.157C279.921,355.824 291.242,368.866 306.142,371.544L306.142,382.677C306.142,390.5 299.791,396.85 291.969,396.85L218.268,396.85C210.445,396.85 204.094,390.5 204.094,382.677L204.094,366.488C216.238,363.882 225.354,353.076 225.354,340.157C225.354,325.295 213.288,313.228 198.425,313.228C183.563,313.228 171.496,325.295 171.496,340.157C171.496,353.076 180.612,363.882 192.756,366.488L192.756,382.677C192.756,390.5 186.405,396.85 178.583,396.85L104.882,396.85C97.059,396.85 90.709,390.5 90.709,382.677L90.709,366.488C102.852,363.882 111.969,353.076 111.969,340.157C111.969,325.295 99.902,313.228 85.039,313.228C70.177,313.228 58.11,325.295 58.11,340.157C58.11,353.076 67.227,363.882 79.37,366.488L79.37,382.677C79.37,390.5 73.019,396.85 65.197,396.85L28.346,396.85L28.346,141.732L822.047,141.732L822.047,396.85L785.197,396.85C777.374,396.85 771.024,390.5 771.024,382.677Z"/>
    <path d="M141.732,167.244C158.942,167.244 172.913,181.216 172.913,198.425L172.913,254.798L110.551,254.798L110.551,198.425C110.551,181.216 124.523,167.244 141.732,167.244Z" style="fill:white;stroke:black;stroke-width:0.34px;"/>
    <path d="M255.118,170.079C270.763,170.079 283.465,182.78 283.465,198.425L283.465,254.798L226.772,254.798L226.772,198.425C226.772,182.78 239.473,170.079 255.118,170.079Z" style="fill:white;stroke:black;stroke-width:0.32px;"/>
    <path d="M368.504,170.079C393.536,170.079 413.858,182.78 413.858,198.425L413.858,254.798L323.15,254.798L323.15,198.425C323.15,182.78 343.472,170.079 368.504,170.079Z" style="fill:white;stroke:black;stroke-width:0.42px;"/>
    <path d="M481.89,170.079C497.535,170.079 510.236,182.78 510.236,198.425L510.236,254.798L453.543,254.798L453.543,198.425C453.543,182.78 466.245,170.079 481.89,170.079Z" style="fill:white;stroke:black;stroke-width:0.32px;"/>
    <path d="M595.276,177.165C607.009,177.165 616.535,186.692 616.535,198.425L616.535,254.798L574.016,254.798L574.016,198.425C574.016,186.692 583.542,177.165 595.276,177.165Z" style="fill:white;stroke:black;stroke-width:0.26px;"/>
    <path d="M708.661,177.165C720.395,177.165 729.921,186.692 729.921,198.425L729.921,254.798L687.402,254.798L687.402,198.425C687.402,186.692 696.928,177.165 708.661,177.165Z" style="fill:white;stroke:black;stroke-width:0.26px;"/>
    <path id="Bezugspunkt" d="M28.346,371.778L28.346,396.85L42.479,396.85L28.346,371.778Z" style="fill:rgb(255,0,0);stroke:rgb(255,0,0);stroke-width:0.24px;stroke-linecap:round;stroke-linejoin:round;stroke-miterlimit:1.5;"/>
</svg>
