<?xml version="1.0" encoding="UTF-8" standalone="no"?>
<!DOCTYPE svg PUBLIC "-//W3C//DTD SVG 1.1//EN" "http://www.w3.org/Graphics/SVG/1.1/DTD/svg11.dtd">
<svg width="469px" height="299px" version="1.1" xmlns="http://www.w3.org/2000/svg" xmlns:xlink="http://www.w3.org/1999/xlink" xml:space="preserve" xmlns:serif="http://www.serif.com/" style="fill-rule:evenodd;clip-rule:evenodd;stroke-miterlimit:10;">
    <rect x="21.731" y="21.731" width="425.197" height="255.118" style="fill:none;stroke:rgb(127,127,127);stroke-width:1.38px;"/>
    <path d="M7.558,61.416L7.558,52.912L383.432,52.912C396.573,52.912 407.243,42.243 407.243,29.101L407.243,7.558L415.747,7.558L415.747,210.809C415.747,223.951 426.416,234.62 439.558,234.62L461.101,234.62L461.101,243.117L84.645,243.117C71.503,243.117 60.834,253.786 60.834,266.928L60.834,291.022L52.345,291.022L52.345,85.227C52.345,72.085 41.676,61.416 28.534,61.416L7.558,61.416Z" style="fill:none;stroke:rgb(127,127,127);stroke-width:1.5px;"/>
    <path id="Bezugspunkt" d="M21.731,251.776L21.731,276.849L35.863,276.849L21.731,251.776Z" style="fill:rgb(255,0,0);stroke:rgb(255,0,0);stroke-width:0.24px;stroke-linecap:round;stroke-linejoin:round;stroke-miterlimit:1.5;"/>
    <g>
        <path d="M194.142,110.903L160.045,110.903C157.227,110.903 154.943,113.188 154.943,116.005L154.943,126.895C154.943,128.248 155.48,129.546 156.437,130.502C157.394,131.459 158.692,131.997 160.045,131.997C169.997,131.997 191.036,131.997 191.036,131.997C193.693,131.997 195.675,132.593 196.984,133.784C198.292,134.975 198.946,136.548 198.946,138.501C198.946,140.454 198.302,142.046 197.013,143.276C195.724,144.507 193.732,145.122 191.036,145.122L160.045,145.122C158.692,145.122 157.394,145.659 156.437,146.616C155.48,147.573 154.943,148.871 154.943,150.224C154.943,154.4 154.943,160.277 154.943,164.453C154.943,167.271 157.227,169.555 160.045,169.555C170.939,169.555 195.489,169.555 195.489,169.555C198.224,169.555 200.284,170.19 201.671,171.46C203.058,172.729 203.751,174.419 203.751,176.528C203.751,178.559 203.058,180.21 201.671,181.479C200.284,182.749 198.224,183.384 195.489,183.384L148.204,183.384C144.415,183.384 141.691,182.544 140.03,180.864C138.37,179.184 137.54,176.47 137.54,172.72L137.54,108.149C137.54,105.649 137.911,103.608 138.653,102.026C139.396,100.444 140.558,99.292 142.14,98.569C143.722,97.846 145.743,97.485 148.204,97.485L194.142,97.485C196.915,97.485 198.976,98.1 200.323,99.331C201.671,100.561 202.345,102.173 202.345,104.165C202.345,106.196 201.671,107.827 200.323,109.057C198.976,110.288 196.915,110.903 194.142,110.903Z" style="fill:rgb(127,127,127);fill-rule:nonzero;"/>
        <path d="M251.153,178.227C251.153,178.227 247.045,172.189 243.718,167.299C242.774,165.912 241.208,165.077 239.529,165.067C237.851,165.058 236.275,165.874 235.315,167.25C231.898,172.149 227.657,178.227 227.657,178.227C225.939,180.61 224.484,182.309 223.292,183.325C222.101,184.341 220.587,184.848 218.751,184.848C216.72,184.848 214.991,184.214 213.566,182.944C212.14,181.675 211.427,180.22 211.427,178.579C211.427,176.899 212.521,174.497 214.708,171.372C214.708,171.372 223.066,159.393 227.079,153.642C228.335,151.843 228.299,149.442 226.992,147.681C223.327,142.745 216.349,133.345 216.349,133.345C214.122,130.493 213.009,128.013 213.009,125.903C213.009,124.263 213.673,122.837 215.001,121.626C216.329,120.415 218.068,119.809 220.216,119.809C222.091,119.809 223.644,120.337 224.874,121.391C226.105,122.446 227.54,124.106 229.181,126.372C229.181,126.372 232.493,130.901 235.374,134.84C236.342,136.163 237.888,136.941 239.527,136.93C241.167,136.919 242.702,136.12 243.652,134.783C246.442,130.858 249.63,126.372 249.63,126.372C251.31,124.028 252.765,122.348 253.995,121.333C255.226,120.317 256.759,119.809 258.595,119.809C260.704,119.809 262.452,120.405 263.839,121.596C265.226,122.788 265.919,124.223 265.919,125.903C265.919,127.114 265.636,128.276 265.07,129.389C264.503,130.503 263.634,131.821 262.462,133.345C262.462,133.345 255.484,142.745 251.819,147.681C250.512,149.442 250.476,151.843 251.732,153.642C255.745,159.393 264.103,171.372 264.103,171.372C266.368,174.614 267.501,177.055 267.501,178.696C267.501,180.376 266.798,181.821 265.392,183.032C263.986,184.243 262.247,184.848 260.177,184.848C258.341,184.848 256.788,184.321 255.519,183.266C254.249,182.212 252.794,180.532 251.153,178.227Z" style="fill:rgb(127,127,127);fill-rule:nonzero;"/>
        <path d="M294.982,128.891L294.982,175.122C294.982,178.325 294.22,180.747 292.696,182.388C291.173,184.028 289.239,184.848 286.896,184.848C284.552,184.848 282.648,184.009 281.183,182.329C279.718,180.649 278.986,178.247 278.986,175.122L278.986,129.36C278.986,126.196 279.718,123.813 281.183,122.212C282.648,120.61 284.552,119.809 286.896,119.809C289.239,119.809 291.173,120.61 292.696,122.212C294.22,123.813 294.982,126.04 294.982,128.891ZM287.071,112.368C284.845,112.368 282.941,111.684 281.359,110.317C279.777,108.95 278.986,107.016 278.986,104.516C278.986,102.251 279.796,100.386 281.417,98.921C283.038,97.456 284.923,96.723 287.071,96.723C289.142,96.723 290.978,97.388 292.579,98.716C294.181,100.044 294.982,101.977 294.982,104.516C294.982,106.977 294.2,108.901 292.638,110.288C291.075,111.675 289.22,112.368 287.071,112.368Z" style="fill:rgb(127,127,127);fill-rule:nonzero;"/>
        <path d="M310.04,121.62C312.407,121.138 314.11,119.059 314.118,116.644C314.133,114.166 314.142,111.606 314.142,111.606C314.142,109.028 314.21,107.007 314.347,105.542C314.484,104.077 314.864,102.817 315.489,101.763C316.114,100.669 317.013,99.78 318.185,99.096C319.357,98.413 320.665,98.071 322.111,98.071C324.142,98.071 325.978,98.833 327.618,100.356C328.712,101.372 329.405,102.612 329.698,104.077C329.991,105.542 330.138,107.622 330.138,110.317L330.138,116.113C330.138,118.931 332.422,121.216 335.24,121.216L335.997,121.216C338.263,121.216 339.991,121.753 341.183,122.827C342.374,123.901 342.97,125.278 342.97,126.958C342.97,129.106 342.12,130.61 340.421,131.47C339.427,131.972 337.217,132.328 334.92,132.536C332.302,132.773 330.292,134.96 330.277,137.588C330.229,145.935 330.138,162.173 330.138,162.173C330.138,164.673 330.226,166.596 330.402,167.944C330.577,169.292 331.046,170.386 331.808,171.225C332.57,172.065 333.81,172.485 335.528,172.485C336.466,172.485 337.736,172.319 339.337,171.987C340.939,171.655 342.189,171.489 343.087,171.489C344.376,171.489 345.538,172.007 346.573,173.042C347.609,174.077 348.126,175.356 348.126,176.88C348.126,179.458 346.72,181.43 343.907,182.798C341.095,184.165 337.052,184.848 331.778,184.848C326.778,184.848 322.989,184.009 320.411,182.329C317.833,180.649 316.144,178.325 315.343,175.356C314.542,172.388 314.142,168.423 314.142,163.462C314.142,163.462 314.124,145.896 314.115,137.337C314.113,134.909 312.399,132.819 310.018,132.34C308.622,132.074 307.363,131.664 306.759,131.118C305.548,130.024 304.943,128.638 304.943,126.958C304.943,125.278 305.577,123.901 306.847,122.827C307.481,122.291 308.688,121.888 310.04,121.62Z" style="fill:rgb(127,127,127);fill-rule:nonzero;"/>
    </g>
</svg>
