<?xml version="1.0" encoding="UTF-8" standalone="no"?>
<!DOCTYPE svg PUBLIC "-//W3C//DTD SVG 1.1//EN" "http://www.w3.org/Graphics/SVG/1.1/DTD/svg11.dtd">
<svg width="596px" height="842px" version="1.1" xmlns="http://www.w3.org/2000/svg" xmlns:xlink="http://www.w3.org/1999/xlink" xml:space="preserve" xmlns:serif="http://www.serif.com/" style="fill-rule:evenodd;clip-rule:evenodd;stroke-linecap:round;stroke-linejoin:round;stroke-miterlimit:1.5;">
    <rect id="Holzleiste-45mm-x-20mm" serif:id="Holzleiste 45mm x 20mm" x="104.741" y="403.867" width="127.559" height="283.465" style="fill:rgb(0,104,255);"/>
    <path id="Aussparung-d:10mm" serif:id="Aussparung d:10mm" d="M232.086,434.737L232.086,403.867L256.122,403.867L256.122,531.286L232.086,531.286L232.086,500.567L232.085,500.567C232.086,500.514 232.086,500.461 232.086,500.408C232.086,494.15 227.006,489.069 220.748,489.069C218.211,489.069 215.867,489.904 213.978,491.314L213.851,491.182C207.36,498.44 197.927,503.01 187.435,503.01C167.879,503.01 152.002,487.132 152.002,467.576C152.002,448.02 167.879,432.143 187.435,432.143C197.334,432.143 206.291,436.212 212.72,442.764L212.732,442.753C214.784,444.805 217.619,446.076 220.748,446.076C227.006,446.076 232.086,440.995 232.086,434.737Z" style="fill:rgb(127,127,127);"/>
    <path id="Bezugspunkt" d="M232.317,403.867L232.317,467.576L268.228,467.576L232.317,403.867Z" style="fill:rgb(255,0,0);stroke:rgb(255,0,0);stroke-width:0.24px;"/>
    <path id="waagrechte-Achse" serif:id="waagrechte Achse" d="M26.316,403.867L366.474,403.867" style="fill:none;stroke:rgb(0,104,255);stroke-width:0.5px;stroke-linecap:butt;stroke-miterlimit:2;stroke-dasharray:3,3,0,0;"/>
    <path id="senkrechte-Achse" serif:id="senkrechte Achse" d="M232.317,382.909L232.317,723.067" style="fill:none;stroke:rgb(0,104,255);stroke-width:0.5px;stroke-linecap:butt;stroke-miterlimit:2;stroke-dasharray:3,3,0,0;"/>
    <g id="_22-5mm" serif:id="22,5mm">
        <path d="M278.267,467.646L278.267,403.867" style="fill:none;"/>
        <path d="M275.267,467.396L281.267,467.396" style="fill:none;stroke:rgb(0,104,255);stroke-width:0.5px;stroke-linecap:butt;stroke-linejoin:miter;stroke-miterlimit:10;"/>
        <path d="M275.267,404.117L281.267,404.117" style="fill:none;stroke:rgb(0,104,255);stroke-width:0.5px;stroke-linecap:butt;stroke-linejoin:miter;stroke-miterlimit:10;"/>
        <path d="M278.267,467.396L278.267,404.117" style="fill:none;stroke:rgb(0,104,255);stroke-width:0.5px;stroke-linecap:butt;stroke-miterlimit:2;stroke-dasharray:3,3,0,0;"/>
    </g>
    <path d="M291.489,438.206L291.489,439.22L285.812,439.22C285.804,438.966 285.845,438.722 285.935,438.487C286.079,438.1 286.311,437.72 286.629,437.345C286.947,436.97 287.407,436.536 288.009,436.044C288.942,435.278 289.573,434.672 289.901,434.224C290.23,433.777 290.394,433.354 290.394,432.956C290.394,432.538 290.244,432.185 289.945,431.898C289.647,431.611 289.257,431.468 288.776,431.468C288.269,431.468 287.862,431.62 287.558,431.925C287.253,432.229 287.099,432.651 287.095,433.19L286.011,433.079C286.085,432.27 286.364,431.654 286.849,431.23C287.333,430.806 287.984,430.595 288.8,430.595C289.624,430.595 290.276,430.823 290.757,431.28C291.237,431.737 291.478,432.304 291.478,432.979C291.478,433.323 291.407,433.661 291.267,433.993C291.126,434.325 290.893,434.675 290.567,435.042C290.24,435.409 289.698,435.913 288.941,436.554C288.308,437.085 287.901,437.445 287.722,437.635C287.542,437.824 287.394,438.014 287.276,438.206L291.489,438.206Z" style="fill:rgb(0,104,255);fill-rule:nonzero;"/>
    <path d="M298.163,438.206L298.163,439.22L292.485,439.22C292.478,438.966 292.519,438.722 292.609,438.487C292.753,438.1 292.984,437.72 293.303,437.345C293.621,436.97 294.081,436.536 294.683,436.044C295.616,435.278 296.247,434.672 296.575,434.224C296.903,433.777 297.067,433.354 297.067,432.956C297.067,432.538 296.918,432.185 296.619,431.898C296.32,431.611 295.931,431.468 295.45,431.468C294.942,431.468 294.536,431.62 294.232,431.925C293.927,432.229 293.773,432.651 293.769,433.19L292.685,433.079C292.759,432.27 293.038,431.654 293.523,431.23C294.007,430.806 294.657,430.595 295.474,430.595C296.298,430.595 296.95,430.823 297.431,431.28C297.911,431.737 298.151,432.304 298.151,432.979C298.151,433.323 298.081,433.661 297.941,433.993C297.8,434.325 297.567,434.675 297.24,435.042C296.914,435.409 296.372,435.913 295.614,436.554C294.982,437.085 294.575,437.445 294.396,437.635C294.216,437.824 294.067,438.014 293.95,438.206L298.163,438.206Z" style="fill:rgb(0,104,255);fill-rule:nonzero;"/>
    <path d="M299.862,439.22L299.862,438.018L301.064,438.018L301.064,439.22C301.064,439.661 300.985,440.017 300.829,440.289C300.673,440.56 300.425,440.77 300.085,440.919L299.792,440.468C300.015,440.37 300.179,440.226 300.284,440.037C300.39,439.847 300.448,439.575 300.46,439.22L299.862,439.22Z" style="fill:rgb(0,104,255);fill-rule:nonzero;"/>
    <path d="M302.628,436.97L303.735,436.876C303.817,437.415 304.008,437.82 304.307,438.092C304.606,438.363 304.966,438.499 305.388,438.499C305.896,438.499 306.325,438.307 306.677,437.925C307.028,437.542 307.204,437.034 307.204,436.401C307.204,435.8 307.035,435.325 306.697,434.977C306.359,434.63 305.917,434.456 305.37,434.456C305.03,434.456 304.724,434.533 304.45,434.687C304.177,434.842 303.962,435.042 303.806,435.288L302.816,435.159L303.648,430.747L307.919,430.747L307.919,431.755L304.491,431.755L304.028,434.063C304.544,433.704 305.085,433.524 305.651,433.524C306.401,433.524 307.034,433.784 307.55,434.304C308.066,434.823 308.323,435.491 308.323,436.307C308.323,437.085 308.097,437.757 307.644,438.323C307.093,439.018 306.341,439.366 305.388,439.366C304.607,439.366 303.969,439.147 303.475,438.71C302.981,438.272 302.698,437.692 302.628,436.97Z" style="fill:rgb(0,104,255);fill-rule:nonzero;"/>
    <path d="M309.595,439.22L309.595,432.997L310.538,432.997L310.538,433.87C310.734,433.565 310.993,433.32 311.317,433.135C311.642,432.949 312.011,432.856 312.425,432.856C312.886,432.856 313.264,432.952 313.559,433.143C313.854,433.335 314.062,433.602 314.183,433.946C314.675,433.22 315.316,432.856 316.105,432.856C316.722,432.856 317.196,433.027 317.528,433.369C317.86,433.711 318.026,434.237 318.026,434.948L318.026,439.22L316.978,439.22L316.978,435.3C316.978,434.878 316.943,434.574 316.875,434.389C316.807,434.203 316.683,434.054 316.503,433.94C316.323,433.827 316.112,433.77 315.87,433.77C315.433,433.77 315.069,433.916 314.78,434.207C314.491,434.498 314.347,434.964 314.347,435.604L314.347,439.22L313.292,439.22L313.292,435.177C313.292,434.708 313.206,434.356 313.034,434.122C312.862,433.888 312.581,433.77 312.191,433.77C311.894,433.77 311.619,433.848 311.367,434.005C311.115,434.161 310.933,434.389 310.819,434.69C310.706,434.991 310.65,435.425 310.65,435.991L310.65,439.22L309.595,439.22Z" style="fill:rgb(0,104,255);fill-rule:nonzero;"/>
    <path d="M319.591,439.22L319.591,432.997L320.534,432.997L320.534,433.87C320.73,433.565 320.989,433.32 321.314,433.135C321.638,432.949 322.007,432.856 322.421,432.856C322.882,432.856 323.26,432.952 323.555,433.143C323.85,433.335 324.058,433.602 324.179,433.946C324.671,433.22 325.312,432.856 326.101,432.856C326.718,432.856 327.192,433.027 327.525,433.369C327.857,433.711 328.023,434.237 328.023,434.948L328.023,439.22L326.974,439.22L326.974,435.3C326.974,434.878 326.94,434.574 326.871,434.389C326.803,434.203 326.679,434.054 326.499,433.94C326.319,433.827 326.109,433.77 325.866,433.77C325.429,433.77 325.066,433.916 324.776,434.207C324.487,434.498 324.343,434.964 324.343,435.604L324.343,439.22L323.288,439.22L323.288,435.177C323.288,434.708 323.202,434.356 323.03,434.122C322.859,433.888 322.577,433.77 322.187,433.77C321.89,433.77 321.615,433.848 321.363,434.005C321.111,434.161 320.929,434.389 320.816,434.69C320.702,434.991 320.646,435.425 320.646,435.991L320.646,439.22L319.591,439.22Z" style="fill:rgb(0,104,255);fill-rule:nonzero;"/>
</svg>
