<?xml version="1.0" encoding="UTF-8" standalone="no"?>
<!DOCTYPE svg PUBLIC "-//W3C//DTD SVG 1.1//EN" "http://www.w3.org/Graphics/SVG/1.1/DTD/svg11.dtd">
<svg width="596px" height="842px" version="1.1" xmlns="http://www.w3.org/2000/svg" xmlns:xlink="http://www.w3.org/1999/xlink" xml:space="preserve" xmlns:serif="http://www.serif.com/" style="fill-rule:evenodd;clip-rule:evenodd;stroke-linecap:round;stroke-linejoin:round;stroke-miterlimit:1.5;">
    <path id="Holzleiste-45mm-x-20mm" serif:id="Holzleiste 45mm x 20mm" d="M356.328,543.258L356.328,415.699L72.864,415.699L72.864,543.258L356.328,543.258Z" style="fill:rgb(0,104,255);"/>
    <path id="Aussparung-d:10mm" serif:id="Aussparung d:10mm" d="M325.458,543.045L356.328,543.045L356.328,567.081L228.909,567.081L228.909,543.045L259.628,543.045L259.628,543.043C259.681,543.044 259.734,543.045 259.787,543.045C266.045,543.045 271.126,537.964 271.126,531.706C271.126,529.169 270.291,526.825 268.881,524.936L269.013,524.809C261.755,518.318 257.186,508.885 257.186,498.393C257.186,478.837 273.063,462.96 292.619,462.96C312.175,462.96 328.052,478.837 328.052,498.393C328.052,508.292 323.983,517.249 317.431,523.679L317.442,523.69C315.39,525.742 314.12,528.577 314.12,531.706C314.12,537.964 319.2,543.045 325.458,543.045Z" style="fill:rgb(127,127,127);"/>
    <path id="Bezugspunkt" d="M292.535,518.186L292.535,543.258L306.668,543.258L292.535,518.186Z" style="fill:rgb(255,0,0);stroke:rgb(255,0,0);stroke-width:0.24px;"/>
    <path id="waagrechte-Achse" serif:id="waagrechte Achse" d="M292.535,337.275L292.535,677.432" style="fill:none;stroke:rgb(0,104,255);stroke-width:0.5px;stroke-linecap:butt;stroke-miterlimit:2;stroke-dasharray:3,3,0,0;"/>
    <path id="senkrechte-Achse" serif:id="senkrechte Achse" d="M377.286,543.275L37.128,543.275" style="fill:none;stroke:rgb(0,104,255);stroke-width:0.5px;stroke-linecap:butt;stroke-miterlimit:2;stroke-dasharray:3,3,0,0;"/>
    <g id="_22-5mm" serif:id="22,5mm">
        <path d="M292.549,589.225L356.328,589.225" style="fill:none;"/>
        <path d="M292.799,586.225L292.799,592.225" style="fill:none;stroke:rgb(0,104,255);stroke-width:0.5px;stroke-linecap:butt;stroke-linejoin:miter;stroke-miterlimit:10;"/>
        <path d="M356.078,586.225L356.078,592.225" style="fill:none;stroke:rgb(0,104,255);stroke-width:0.5px;stroke-linecap:butt;stroke-linejoin:miter;stroke-miterlimit:10;"/>
        <path d="M292.799,589.225L356.078,589.225" style="fill:none;stroke:rgb(0,104,255);stroke-width:0.5px;stroke-linecap:butt;stroke-miterlimit:2;stroke-dasharray:3,3,0,0;"/>
    </g>
    <path d="M309.382,584.922L309.382,585.936L303.705,585.936C303.697,585.682 303.738,585.438 303.828,585.203C303.972,584.817 304.204,584.436 304.522,584.061C304.84,583.686 305.3,583.252 305.902,582.76C306.835,581.994 307.466,581.388 307.794,580.941C308.123,580.493 308.287,580.07 308.287,579.672C308.287,579.254 308.137,578.901 307.838,578.614C307.54,578.327 307.15,578.184 306.669,578.184C306.162,578.184 305.755,578.336 305.451,578.641C305.146,578.945 304.992,579.367 304.988,579.906L303.904,579.795C303.978,578.986 304.257,578.37 304.742,577.946C305.226,577.523 305.876,577.311 306.693,577.311C307.517,577.311 308.169,577.539 308.65,577.996C309.13,578.453 309.371,579.02 309.371,579.695C309.371,580.039 309.3,580.377 309.16,580.709C309.019,581.041 308.786,581.391 308.459,581.758C308.133,582.125 307.591,582.629 306.833,583.27C306.201,583.801 305.794,584.161 305.615,584.351C305.435,584.54 305.287,584.731 305.169,584.922L309.382,584.922Z" style="fill:rgb(0,104,255);fill-rule:nonzero;"/>
    <path d="M316.056,584.922L316.056,585.936L310.378,585.936C310.371,585.682 310.412,585.438 310.501,585.203C310.646,584.817 310.877,584.436 311.196,584.061C311.514,583.686 311.974,583.252 312.576,582.76C313.509,581.994 314.14,581.388 314.468,580.941C314.796,580.493 314.96,580.07 314.96,579.672C314.96,579.254 314.811,578.901 314.512,578.614C314.213,578.327 313.824,578.184 313.343,578.184C312.835,578.184 312.429,578.336 312.125,578.641C311.82,578.945 311.666,579.367 311.662,579.906L310.578,579.795C310.652,578.986 310.931,578.37 311.416,577.946C311.9,577.523 312.55,577.311 313.367,577.311C314.191,577.311 314.843,577.539 315.324,577.996C315.804,578.453 316.044,579.02 316.044,579.695C316.044,580.039 315.974,580.377 315.833,580.709C315.693,581.041 315.459,581.391 315.133,581.758C314.807,582.125 314.265,582.629 313.507,583.27C312.875,583.801 312.468,584.161 312.289,584.351C312.109,584.54 311.96,584.731 311.843,584.922L316.056,584.922Z" style="fill:rgb(0,104,255);fill-rule:nonzero;"/>
    <path d="M317.755,585.936L317.755,584.734L318.957,584.734L318.957,585.936C318.957,586.377 318.878,586.734 318.722,587.005C318.566,587.276 318.318,587.486 317.978,587.635L317.685,587.184C317.908,587.086 318.072,586.942 318.177,586.753C318.283,586.564 318.341,586.291 318.353,585.936L317.755,585.936Z" style="fill:rgb(0,104,255);fill-rule:nonzero;"/>
    <path d="M320.521,583.686L321.628,583.592C321.71,584.131 321.901,584.536 322.2,584.808C322.499,585.079 322.859,585.215 323.281,585.215C323.789,585.215 324.218,585.024 324.57,584.641C324.921,584.258 325.097,583.75 325.097,583.117C325.097,582.516 324.928,582.041 324.59,581.693C324.252,581.346 323.81,581.172 323.263,581.172C322.923,581.172 322.617,581.249 322.343,581.403C322.07,581.558 321.855,581.758 321.699,582.004L320.708,581.875L321.541,577.463L325.812,577.463L325.812,578.471L322.384,578.471L321.921,580.779C322.437,580.42 322.978,580.24 323.544,580.24C324.294,580.24 324.927,580.5 325.443,581.02C325.958,581.539 326.216,582.207 326.216,583.024C326.216,583.801 325.99,584.473 325.537,585.039C324.986,585.734 324.234,586.082 323.281,586.082C322.5,586.082 321.862,585.863 321.368,585.426C320.874,584.988 320.591,584.408 320.521,583.686Z" style="fill:rgb(0,104,255);fill-rule:nonzero;"/>
    <path d="M327.488,585.936L327.488,579.713L328.431,579.713L328.431,580.586C328.626,580.281 328.886,580.036 329.21,579.851C329.535,579.665 329.904,579.572 330.318,579.572C330.779,579.572 331.157,579.668 331.452,579.859C331.747,580.051 331.955,580.318 332.076,580.662C332.568,579.936 333.208,579.572 333.998,579.572C334.615,579.572 335.089,579.743 335.421,580.085C335.753,580.427 335.919,580.953 335.919,581.664L335.919,585.936L334.871,585.936L334.871,582.016C334.871,581.594 334.836,581.29 334.768,581.105C334.7,580.919 334.576,580.77 334.396,580.656C334.216,580.543 334.005,580.486 333.763,580.486C333.326,580.486 332.962,580.632 332.673,580.923C332.384,581.214 332.24,581.68 332.24,582.32L332.24,585.936L331.185,585.936L331.185,581.893C331.185,581.424 331.099,581.072 330.927,580.838C330.755,580.604 330.474,580.486 330.083,580.486C329.787,580.486 329.512,580.565 329.26,580.721C329.008,580.877 328.826,581.106 328.712,581.406C328.599,581.707 328.542,582.141 328.542,582.707L328.542,585.936L327.488,585.936Z" style="fill:rgb(0,104,255);fill-rule:nonzero;"/>
    <path d="M337.484,585.936L337.484,579.713L338.427,579.713L338.427,580.586C338.623,580.281 338.882,580.036 339.207,579.851C339.531,579.665 339.9,579.572 340.314,579.572C340.775,579.572 341.153,579.668 341.448,579.859C341.743,580.051 341.951,580.318 342.072,580.662C342.564,579.936 343.205,579.572 343.994,579.572C344.611,579.572 345.085,579.743 345.417,580.085C345.75,580.427 345.916,580.953 345.916,581.664L345.916,585.936L344.867,585.936L344.867,582.016C344.867,581.594 344.833,581.29 344.764,581.105C344.696,580.919 344.572,580.77 344.392,580.656C344.212,580.543 344.001,580.486 343.759,580.486C343.322,580.486 342.958,580.632 342.669,580.923C342.38,581.214 342.236,581.68 342.236,582.32L342.236,585.936L341.181,585.936L341.181,581.893C341.181,581.424 341.095,581.072 340.923,580.838C340.751,580.604 340.47,580.486 340.08,580.486C339.783,580.486 339.508,580.565 339.256,580.721C339.004,580.877 338.822,581.106 338.708,581.406C338.595,581.707 338.539,582.141 338.539,582.707L338.539,585.936L337.484,585.936Z" style="fill:rgb(0,104,255);fill-rule:nonzero;"/>
</svg>
