<?xml version="1.0" encoding="UTF-8" standalone="no"?>
<!DOCTYPE svg PUBLIC "-//W3C//DTD SVG 1.1//EN" "http://www.w3.org/Graphics/SVG/1.1/DTD/svg11.dtd">
<svg width="596px" height="842px" version="1.1" xmlns="http://www.w3.org/2000/svg" xmlns:xlink="http://www.w3.org/1999/xlink" xml:space="preserve" xmlns:serif="http://www.serif.com/" style="fill-rule:evenodd;clip-rule:evenodd;stroke-linecap:round;stroke-linejoin:round;stroke-miterlimit:1.5;">
    <path d="M184.826,434.737L184.826,403.867L208.862,403.867L208.862,531.286L184.826,531.286L184.826,500.567L184.825,500.567C184.825,500.514 184.826,500.461 184.826,500.408C184.826,494.15 179.745,489.069 173.487,489.069C170.95,489.069 168.607,489.904 166.717,491.314L166.591,491.182C160.099,498.44 150.666,503.01 140.174,503.01C120.618,503.01 104.741,487.132 104.741,467.576C104.741,448.02 120.618,432.143 140.174,432.143C150.074,432.143 159.03,436.212 165.46,442.764L165.471,442.753C167.524,444.805 170.358,446.076 173.487,446.076C179.745,446.076 184.826,440.995 184.826,434.737Z" style="fill:rgb(127,127,127);"/>
    <path d="M185.057,403.867L185.057,467.576L220.968,467.576L185.057,403.867Z" style="fill:rgb(255,0,0);stroke:rgb(255,0,0);stroke-width:0.24px;"/>
</svg>
