<?xml version="1.0" encoding="UTF-8" standalone="no"?>
<!DOCTYPE svg PUBLIC "-//W3C//DTD SVG 1.1//EN" "http://www.w3.org/Graphics/SVG/1.1/DTD/svg11.dtd">
<svg width="596px" height="842px" version="1.1" xmlns="http://www.w3.org/2000/svg" xmlns:xlink="http://www.w3.org/1999/xlink" xml:space="preserve" xmlns:serif="http://www.serif.com/" style="fill-rule:evenodd;clip-rule:evenodd;stroke-linecap:round;stroke-linejoin:round;stroke-miterlimit:1.5;">
    <path id="Holzleiste-45mm-x-20mm" serif:id="Holzleiste 45mm x 20mm" d="M356.328,543.258L356.328,415.699L72.864,415.699L72.864,543.258L356.328,543.258Z" style="fill:rgb(0,104,255);"/>
    <path id="Aussparung-d:10mm" serif:id="Aussparung d:10mm" d="M325.458,543.045L356.328,543.045L356.328,567.081L228.909,567.081L228.909,543.045L259.628,543.045L259.628,543.043C259.681,543.044 259.734,543.045 259.787,543.045C266.045,543.045 271.126,537.964 271.126,531.706C271.126,529.169 270.291,526.825 268.881,524.936L269.013,524.809C261.755,518.318 257.186,508.885 257.186,498.393C257.186,478.837 273.063,462.96 292.619,462.96C312.175,462.96 328.052,478.837 328.052,498.393C328.052,508.292 323.983,517.249 317.431,523.679L317.442,523.69C315.39,525.742 314.12,528.577 314.12,531.706C314.12,537.964 319.2,543.045 325.458,543.045Z" style="fill:rgb(127,127,127);"/>
    <path id="Bezugspunkt" d="M292.535,518.186L292.535,543.258L306.668,543.258L292.535,518.186Z" style="fill:rgb(255,0,0);stroke:rgb(255,0,0);stroke-width:0.24px;"/>
    <path id="waagrechte-Achse" serif:id="waagrechte Achse" d="M292.535,337.275L292.535,677.432" style="fill:none;stroke:rgb(0,104,255);stroke-width:0.5px;stroke-linecap:butt;stroke-miterlimit:2;stroke-dasharray:3,3,0,0;"/>
    <path id="senkrechte-Achse" serif:id="senkrechte Achse" d="M377.286,543.275L37.128,543.275" style="fill:none;stroke:rgb(0,104,255);stroke-width:0.5px;stroke-linecap:butt;stroke-miterlimit:2;stroke-dasharray:3,3,0,0;"/>
    <g id="_22-5mm" serif:id="22,5mm">
        <path d="M292.549,589.225L356.328,589.225" style="fill:none;"/>
        <path d="M292.799,586.225L292.799,592.225" style="fill:none;stroke:rgb(0,104,255);stroke-width:0.5px;stroke-linecap:butt;stroke-linejoin:miter;stroke-miterlimit:10;"/>
        <path d="M356.078,586.225L356.078,592.225" style="fill:none;stroke:rgb(0,104,255);stroke-width:0.5px;stroke-linecap:butt;stroke-linejoin:miter;stroke-miterlimit:10;"/>
        <path d="M292.799,589.225L356.078,589.225" style="fill:none;stroke:rgb(0,104,255);stroke-width:0.5px;stroke-linecap:butt;stroke-miterlimit:2;stroke-dasharray:3,3,0,0;"/>
    </g>
    <path d="M309.382,584.922L309.382,585.936L303.705,585.936C303.697,585.682 303.738,585.438 303.828,585.203C303.972,584.817 304.204,584.436 304.522,584.061C304.84,583.686 305.3,583.252 305.902,582.76C306.835,581.994 307.466,581.388 307.794,580.941C308.123,580.493 308.287,580.07 308.287,579.672C308.287,579.254 308.137,578.901 307.838,578.614C307.54,578.327 307.15,578.184 306.669,578.184C306.162,578.184 305.755,578.336 305.451,578.641C305.146,578.945 304.992,579.367 304.988,579.906L303.904,579.795C303.978,578.986 304.257,578.37 304.742,577.946C305.226,577.523 305.876,577.311 306.693,577.311C307.517,577.311 308.169,577.539 308.65,577.996C309.13,578.453 309.371,579.02 309.371,579.695C309.371,580.039 309.3,580.377 309.16,580.709C309.019,581.041 308.786,581.391 308.459,581.758C308.133,582.125 307.591,582.629 306.833,583.27C306.201,583.801 305.794,584.161 305.615,584.351C305.435,584.54 305.287,584.731 305.169,584.922L309.382,584.922Z" style="fill:rgb(0,104,255);fill-rule:nonzero;"/>
    <path d="M316.056,584.922L316.056,585.936L310.378,585.936C310.371,585.682 310.412,585.438 310.501,585.203C310.646,584.817 310.877,584.436 311.196,584.061C311.514,583.686 311.974,583.252 312.576,582.76C313.509,581.994 314.14,581.388 314.468,580.941C314.796,580.493 314.96,580.07 314.96,579.672C314.96,579.254 314.811,578.901 314.512,578.614C314.213,578.327 313.824,578.184 313.343,578.184C312.835,578.184 312.429,578.336 312.125,578.641C311.82,578.945 311.666,579.367 311.662,579.906L310.578,579.795C310.652,578.986 310.931,578.37 311.416,577.946C311.9,577.523 312.55,577.311 313.367,577.311C314.191,577.311 314.843,577.539 315.324,577.996C315.804,578.453 316.044,579.02 316.044,579.695C316.044,580.039 315.974,580.377 315.833,580.709C315.693,581.041 315.459,581.391 315.133,581.758C314.807,582.125 314.265,582.629 313.507,583.27C312.875,583.801 312.468,584.161 312.289,584.351C312.109,584.54 311.96,584.731 311.843,584.922L316.056,584.922Z" style="fill:rgb(0,104,255);fill-rule:nonzero;"/>
    <path d="M317.755,585.936L317.755,584.734L318.957,584.734L318.957,585.936C318.957,586.377 318.878,586.734 318.722,587.005C318.566,587.276 318.318,587.486 317.978,587.635L317.685,587.184C317.908,587.086 318.072,586.942 318.177,586.753C318.283,586.564 318.341,586.291 318.353,585.936L317.755,585.936Z" style="fill:rgb(0,104,255);fill-rule:nonzero;"/>
    <path d="M320.521,583.686L321.628,583.592C321.71,584.131 321.901,584.536 322.2,584.808C322.499,585.079 322.859,585.215 323.281,585.215C323.789,585.215 324.218,585.024 324.57,584.641C324.921,584.258 325.097,583.75 325.097,583.117C325.097,582.516 324.928,582.041 324.59,581.693C324.252,581.346 323.81,581.172 323.263,581.172C322.923,581.172 322.617,581.249 322.343,581.403C322.07,581.558 321.855,581.758 321.699,582.004L320.708,581.875L321.541,577.463L325.812,577.463L325.812,578.471L322.384,578.471L321.921,580.779C322.437,580.42 322.978,580.24 323.544,580.24C324.294,580.24 324.927,580.5 325.443,581.02C325.958,581.539 326.216,582.207 326.216,583.024C326.216,583.801 325.99,584.473 325.537,585.039C324.986,585.734 324.234,586.082 323.281,586.082C322.5,586.082 321.862,585.863 321.368,585.426C320.874,584.988 320.591,584.408 320.521,583.686Z" style="fill:rgb(0,104,255);fill-rule:nonzero;"/>
    <path d="M327.488,585.936L327.488,579.713L328.431,579.713L328.431,580.586C328.626,580.281 328.886,580.036 329.21,579.851C329.535,579.665 329.904,579.572 330.318,579.572C330.779,579.572 331.157,579.668 331.452,579.859C331.747,580.051 331.955,580.318 332.076,580.662C332.568,579.936 333.208,579.572 333.998,579.572C334.615,579.572 335.089,579.743 335.421,580.085C335.753,580.427 335.919,580.953 335.919,581.664L335.919,585.936L334.871,585.936L334.871,582.016C334.871,581.594 334.836,581.29 334.768,581.105C334.7,580.919 334.576,580.77 334.396,580.656C334.216,580.543 334.005,580.486 333.763,580.486C333.326,580.486 332.962,580.632 332.673,580.923C332.384,581.214 332.24,581.68 332.24,582.32L332.24,585.936L331.185,585.936L331.185,581.893C331.185,581.424 331.099,581.072 330.927,580.838C330.755,580.604 330.474,580.486 330.083,580.486C329.787,580.486 329.512,580.565 329.26,580.721C329.008,580.877 328.826,581.106 328.712,581.406C328.599,581.707 328.542,582.141 328.542,582.707L328.542,585.936L327.488,585.936Z" style="fill:rgb(0,104,255);fill-rule:nonzero;"/>
    <path d="M337.484,585.936L337.484,579.713L338.427,579.713L338.427,580.586C338.623,580.281 338.882,580.036 339.207,579.851C339.531,579.665 339.9,579.572 340.314,579.572C340.775,579.572 341.153,579.668 341.448,579.859C341.743,580.051 341.951,580.318 342.072,580.662C342.564,579.936 343.205,579.572 343.994,579.572C344.611,579.572 345.085,579.743 345.417,580.085C345.75,580.427 345.916,580.953 345.916,581.664L345.916,585.936L344.867,585.936L344.867,582.016C344.867,581.594 344.833,581.29 344.764,581.105C344.696,580.919 344.572,580.77 344.392,580.656C344.212,580.543 344.001,580.486 343.759,580.486C343.322,580.486 342.958,580.632 342.669,580.923C342.38,581.214 342.236,581.68 342.236,582.32L342.236,585.936L341.181,585.936L341.181,581.893C341.181,581.424 341.095,581.072 340.923,580.838C340.751,580.604 340.47,580.486 340.08,580.486C339.783,580.486 339.508,580.565 339.256,580.721C339.004,580.877 338.822,581.106 338.708,581.406C338.595,581.707 338.539,582.141 338.539,582.707L338.539,585.936L337.484,585.936Z" style="fill:rgb(0,104,255);fill-rule:nonzero;"/>
    <g transform="matrix(0.24,0,0,0.24,522.308,194.893)">
        <g transform="matrix(150,0,0,150,-1849.96,1822.86)">
            <path d="M0.082,-0L0.082,-0.716L0.565,-0.716L0.565,-0.631L0.177,-0.631L0.177,-0.41L0.513,-0.41L0.513,-0.325L0.177,-0.325L0.177,-0L0.082,-0Z" style="fill:rgb(0,104,255);fill-rule:nonzero;"/>
        </g>
        <g transform="matrix(150,0,0,150,-1758.33,1822.86)">
            <path d="M0.065,-0L0.065,-0.519L0.144,-0.519L0.144,-0.44C0.164,-0.477 0.183,-0.501 0.2,-0.513C0.217,-0.524 0.236,-0.53 0.256,-0.53C0.286,-0.53 0.316,-0.521 0.347,-0.502L0.316,-0.42C0.295,-0.433 0.273,-0.439 0.252,-0.439C0.233,-0.439 0.215,-0.434 0.2,-0.422C0.185,-0.411 0.174,-0.395 0.167,-0.374C0.158,-0.343 0.153,-0.309 0.153,-0.271L0.153,-0L0.065,-0Z" style="fill:rgb(0,104,255);fill-rule:nonzero;"/>
        </g>
        <g transform="matrix(150,0,0,150,-1708.38,1822.86)">
            <path d="M0.404,-0.064C0.372,-0.036 0.34,-0.017 0.31,-0.005C0.28,0.006 0.248,0.012 0.213,0.012C0.156,0.012 0.113,-0.002 0.082,-0.03C0.051,-0.058 0.036,-0.093 0.036,-0.137C0.036,-0.162 0.042,-0.185 0.053,-0.206C0.065,-0.227 0.08,-0.244 0.099,-0.257C0.118,-0.27 0.139,-0.279 0.162,-0.286C0.179,-0.29 0.205,-0.295 0.24,-0.299C0.311,-0.307 0.363,-0.317 0.397,-0.329C0.397,-0.341 0.397,-0.349 0.397,-0.352C0.397,-0.388 0.389,-0.413 0.373,-0.428C0.35,-0.448 0.317,-0.458 0.272,-0.458C0.231,-0.458 0.201,-0.45 0.181,-0.436C0.161,-0.421 0.147,-0.396 0.137,-0.359L0.051,-0.371C0.059,-0.407 0.072,-0.437 0.09,-0.46C0.108,-0.482 0.134,-0.5 0.167,-0.512C0.201,-0.524 0.241,-0.53 0.285,-0.53C0.329,-0.53 0.365,-0.525 0.393,-0.515C0.421,-0.504 0.441,-0.491 0.454,-0.475C0.467,-0.46 0.476,-0.44 0.481,-0.416C0.484,-0.401 0.486,-0.374 0.486,-0.334L0.486,-0.217C0.486,-0.136 0.488,-0.084 0.491,-0.062C0.495,-0.041 0.503,-0.02 0.514,-0L0.422,-0C0.413,-0.018 0.407,-0.04 0.404,-0.064ZM0.397,-0.26C0.365,-0.247 0.317,-0.236 0.253,-0.227C0.217,-0.222 0.192,-0.216 0.177,-0.209C0.162,-0.203 0.15,-0.193 0.142,-0.181C0.134,-0.168 0.13,-0.154 0.13,-0.139C0.13,-0.116 0.139,-0.096 0.156,-0.081C0.174,-0.065 0.2,-0.057 0.234,-0.057C0.268,-0.057 0.298,-0.065 0.325,-0.079C0.351,-0.094 0.37,-0.114 0.383,-0.14C0.392,-0.16 0.397,-0.189 0.397,-0.228L0.397,-0.26ZM0.138,-0.62L0.138,-0.72L0.23,-0.72L0.23,-0.62L0.138,-0.62ZM0.32,-0.62L0.32,-0.72L0.412,-0.72L0.412,-0.62L0.32,-0.62Z" style="fill:rgb(0,104,255);fill-rule:nonzero;"/>
        </g>
        <g transform="matrix(150,0,0,150,-1624.96,1822.86)">
            <path d="M0.031,-0.155L0.118,-0.168C0.123,-0.134 0.136,-0.107 0.158,-0.088C0.181,-0.07 0.212,-0.061 0.252,-0.061C0.292,-0.061 0.322,-0.069 0.342,-0.085C0.361,-0.102 0.371,-0.121 0.371,-0.143C0.371,-0.163 0.362,-0.179 0.345,-0.19C0.333,-0.198 0.303,-0.208 0.255,-0.22C0.191,-0.236 0.146,-0.25 0.121,-0.262C0.096,-0.274 0.078,-0.29 0.065,-0.311C0.052,-0.332 0.045,-0.355 0.045,-0.381C0.045,-0.404 0.051,-0.425 0.061,-0.445C0.072,-0.465 0.086,-0.481 0.104,-0.494C0.118,-0.504 0.137,-0.513 0.16,-0.52C0.184,-0.527 0.209,-0.53 0.236,-0.53C0.277,-0.53 0.313,-0.524 0.344,-0.513C0.374,-0.501 0.397,-0.485 0.412,-0.465C0.426,-0.445 0.436,-0.418 0.442,-0.385L0.356,-0.373C0.352,-0.4 0.341,-0.421 0.322,-0.436C0.303,-0.451 0.277,-0.458 0.243,-0.458C0.202,-0.458 0.174,-0.451 0.156,-0.438C0.139,-0.425 0.13,-0.409 0.13,-0.391C0.13,-0.38 0.134,-0.369 0.141,-0.36C0.148,-0.351 0.16,-0.343 0.175,-0.337C0.184,-0.334 0.209,-0.326 0.252,-0.314C0.315,-0.298 0.358,-0.284 0.383,-0.274C0.407,-0.263 0.426,-0.248 0.44,-0.228C0.454,-0.207 0.461,-0.182 0.461,-0.152C0.461,-0.123 0.453,-0.095 0.436,-0.07C0.419,-0.044 0.394,-0.024 0.362,-0.01C0.33,0.005 0.293,0.012 0.252,0.012C0.185,0.012 0.134,-0.002 0.098,-0.03C0.063,-0.058 0.041,-0.1 0.031,-0.155Z" style="fill:rgb(0,104,255);fill-rule:nonzero;"/>
        </g>
        <g transform="matrix(150,0,0,150,-1549.96,1822.86)">
            <path d="M0.421,-0.167L0.512,-0.156C0.497,-0.103 0.471,-0.062 0.432,-0.032C0.393,-0.003 0.344,0.012 0.284,0.012C0.208,0.012 0.148,-0.012 0.103,-0.058C0.059,-0.105 0.037,-0.171 0.037,-0.255C0.037,-0.342 0.059,-0.41 0.104,-0.458C0.149,-0.506 0.207,-0.53 0.279,-0.53C0.348,-0.53 0.405,-0.507 0.449,-0.459C0.493,-0.412 0.515,-0.346 0.515,-0.26C0.515,-0.255 0.514,-0.247 0.514,-0.237L0.127,-0.237C0.131,-0.18 0.147,-0.136 0.176,-0.106C0.205,-0.076 0.241,-0.061 0.284,-0.061C0.316,-0.061 0.344,-0.069 0.367,-0.086C0.389,-0.103 0.408,-0.13 0.421,-0.167ZM0.132,-0.309L0.422,-0.309C0.418,-0.353 0.407,-0.385 0.389,-0.407C0.361,-0.441 0.324,-0.458 0.28,-0.458C0.239,-0.458 0.205,-0.444 0.178,-0.417C0.15,-0.39 0.135,-0.354 0.132,-0.309Z" style="fill:rgb(0,104,255);fill-rule:nonzero;"/>
        </g>
        <g transform="matrix(150,0,0,150,-1466.53,1822.86)">
            <path d="M0.065,-0L0.065,-0.519L0.144,-0.519L0.144,-0.44C0.164,-0.477 0.183,-0.501 0.2,-0.513C0.217,-0.524 0.236,-0.53 0.256,-0.53C0.286,-0.53 0.316,-0.521 0.347,-0.502L0.316,-0.42C0.295,-0.433 0.273,-0.439 0.252,-0.439C0.233,-0.439 0.215,-0.434 0.2,-0.422C0.185,-0.411 0.174,-0.395 0.167,-0.374C0.158,-0.343 0.153,-0.309 0.153,-0.271L0.153,-0L0.065,-0Z" style="fill:rgb(0,104,255);fill-rule:nonzero;"/>
        </g>
        <g transform="matrix(150,0,0,150,-1416.58,1822.86)">
            <path d="M0.09,-0.418L0.09,-0.519L0.19,-0.519L0.19,-0.418L0.09,-0.418ZM0.09,-0L0.09,-0.1L0.19,-0.1L0.19,-0L0.09,-0Z" style="fill:rgb(0,104,255);fill-rule:nonzero;"/>
        </g>
        <g transform="matrix(150,0,0,150,-1333.23,1822.86)">
            <path d="M0.588,-0.251L0.683,-0.227C0.663,-0.149 0.627,-0.09 0.575,-0.049C0.524,-0.008 0.461,0.012 0.386,0.012C0.309,0.012 0.246,-0.003 0.198,-0.035C0.15,-0.066 0.113,-0.112 0.088,-0.171C0.062,-0.231 0.05,-0.295 0.05,-0.363C0.05,-0.438 0.064,-0.503 0.093,-0.558C0.121,-0.614 0.162,-0.656 0.214,-0.685C0.267,-0.714 0.325,-0.728 0.388,-0.728C0.459,-0.728 0.52,-0.71 0.568,-0.673C0.617,-0.637 0.651,-0.586 0.67,-0.52L0.577,-0.498C0.561,-0.55 0.536,-0.588 0.505,-0.611C0.473,-0.635 0.434,-0.647 0.386,-0.647C0.331,-0.647 0.285,-0.634 0.248,-0.607C0.211,-0.581 0.185,-0.546 0.17,-0.501C0.155,-0.457 0.147,-0.411 0.147,-0.364C0.147,-0.303 0.156,-0.25 0.174,-0.204C0.192,-0.159 0.219,-0.125 0.257,-0.103C0.294,-0.08 0.335,-0.069 0.378,-0.069C0.431,-0.069 0.476,-0.084 0.513,-0.115C0.55,-0.145 0.575,-0.191 0.588,-0.251Z" style="fill:rgb(0,104,255);fill-rule:nonzero;"/>
        </g>
        <g transform="matrix(150,0,0,150,-1224.91,1822.86)">
            <path d="M0.062,0.2L0.052,0.117C0.071,0.122 0.088,0.125 0.103,0.125C0.122,0.125 0.138,0.122 0.149,0.115C0.161,0.109 0.171,0.1 0.178,0.088C0.184,0.079 0.193,0.057 0.205,0.022C0.207,0.018 0.209,0.01 0.213,0.001L0.016,-0.519L0.111,-0.519L0.219,-0.218C0.233,-0.18 0.245,-0.14 0.256,-0.098C0.266,-0.139 0.278,-0.178 0.292,-0.216L0.403,-0.519L0.491,-0.519L0.294,0.009C0.273,0.066 0.256,0.105 0.245,0.126C0.229,0.155 0.211,0.177 0.191,0.19C0.171,0.204 0.147,0.21 0.119,0.21C0.102,0.21 0.083,0.207 0.062,0.2Z" style="fill:rgb(0,104,255);fill-rule:nonzero;"/>
        </g>
        <g transform="matrix(150,0,0,150,-1149.91,1822.86)">
            <rect x="0.064" y="-0.716" width="0.088" height="0.716" style="fill:rgb(0,104,255);fill-rule:nonzero;"/>
        </g>
        <g transform="matrix(150,0,0,150,-1116.58,1822.86)">
            <path d="M0.066,-0.615L0.066,-0.716L0.154,-0.716L0.154,-0.615L0.066,-0.615ZM0.066,-0L0.066,-0.519L0.154,-0.519L0.154,-0L0.066,-0Z" style="fill:rgb(0,104,255);fill-rule:nonzero;"/>
        </g>
        <g transform="matrix(150,0,0,150,-1083.26,1822.86)">
            <path d="M0.066,-0L0.066,-0.519L0.145,-0.519L0.145,-0.445C0.183,-0.502 0.238,-0.53 0.31,-0.53C0.341,-0.53 0.37,-0.525 0.396,-0.513C0.422,-0.502 0.442,-0.487 0.455,-0.469C0.468,-0.451 0.477,-0.429 0.482,-0.404C0.486,-0.388 0.487,-0.36 0.487,-0.319L0.487,-0L0.399,-0L0.399,-0.315C0.399,-0.351 0.396,-0.378 0.389,-0.396C0.382,-0.413 0.37,-0.428 0.353,-0.438C0.335,-0.449 0.315,-0.454 0.292,-0.454C0.254,-0.454 0.222,-0.442 0.195,-0.418C0.167,-0.395 0.154,-0.35 0.154,-0.283L0.154,-0L0.066,-0Z" style="fill:rgb(0,104,255);fill-rule:nonzero;"/>
        </g>
        <g transform="matrix(150,0,0,150,-999.836,1822.86)">
            <path d="M0.402,-0L0.402,-0.065C0.369,-0.014 0.321,0.012 0.257,0.012C0.216,0.012 0.178,0 0.143,-0.022C0.109,-0.045 0.082,-0.077 0.063,-0.118C0.044,-0.159 0.034,-0.206 0.034,-0.259C0.034,-0.311 0.043,-0.358 0.06,-0.4C0.077,-0.442 0.103,-0.474 0.138,-0.497C0.172,-0.519 0.211,-0.53 0.253,-0.53C0.285,-0.53 0.313,-0.524 0.337,-0.51C0.361,-0.497 0.381,-0.48 0.396,-0.459L0.396,-0.716L0.484,-0.716L0.484,-0L0.402,-0ZM0.125,-0.259C0.125,-0.192 0.139,-0.143 0.167,-0.11C0.194,-0.077 0.228,-0.061 0.266,-0.061C0.304,-0.061 0.337,-0.076 0.364,-0.108C0.39,-0.139 0.404,-0.187 0.404,-0.251C0.404,-0.322 0.39,-0.375 0.363,-0.408C0.335,-0.441 0.302,-0.458 0.262,-0.458C0.223,-0.458 0.19,-0.442 0.164,-0.41C0.138,-0.378 0.125,-0.327 0.125,-0.259Z" style="fill:rgb(0,104,255);fill-rule:nonzero;"/>
        </g>
        <g transform="matrix(150,0,0,150,-916.413,1822.86)">
            <path d="M0.421,-0.167L0.512,-0.156C0.497,-0.103 0.471,-0.062 0.432,-0.032C0.393,-0.003 0.344,0.012 0.284,0.012C0.208,0.012 0.148,-0.012 0.103,-0.058C0.059,-0.105 0.037,-0.171 0.037,-0.255C0.037,-0.342 0.059,-0.41 0.104,-0.458C0.149,-0.506 0.207,-0.53 0.279,-0.53C0.348,-0.53 0.405,-0.507 0.449,-0.459C0.493,-0.412 0.515,-0.346 0.515,-0.26C0.515,-0.255 0.514,-0.247 0.514,-0.237L0.127,-0.237C0.131,-0.18 0.147,-0.136 0.176,-0.106C0.205,-0.076 0.241,-0.061 0.284,-0.061C0.316,-0.061 0.344,-0.069 0.367,-0.086C0.389,-0.103 0.408,-0.13 0.421,-0.167ZM0.132,-0.309L0.422,-0.309C0.418,-0.353 0.407,-0.385 0.389,-0.407C0.361,-0.441 0.324,-0.458 0.28,-0.458C0.239,-0.458 0.205,-0.444 0.178,-0.417C0.15,-0.39 0.135,-0.354 0.132,-0.309Z" style="fill:rgb(0,104,255);fill-rule:nonzero;"/>
        </g>
        <g transform="matrix(150,0,0,150,-832.99,1822.86)">
            <path d="M0.065,-0L0.065,-0.519L0.144,-0.519L0.144,-0.44C0.164,-0.477 0.183,-0.501 0.2,-0.513C0.217,-0.524 0.236,-0.53 0.256,-0.53C0.286,-0.53 0.316,-0.521 0.347,-0.502L0.316,-0.42C0.295,-0.433 0.273,-0.439 0.252,-0.439C0.233,-0.439 0.215,-0.434 0.2,-0.422C0.185,-0.411 0.174,-0.395 0.167,-0.374C0.158,-0.343 0.153,-0.309 0.153,-0.271L0.153,-0L0.065,-0Z" style="fill:rgb(0,104,255);fill-rule:nonzero;"/>
        </g>
        <g transform="matrix(150,0,0,150,-1849.96,1977.77)">
            <path d="M0.61,-0.65L0.692,-0.742L0.741,-0.701L0.655,-0.604C0.683,-0.563 0.702,-0.526 0.711,-0.495C0.724,-0.454 0.731,-0.408 0.731,-0.357C0.731,-0.284 0.716,-0.219 0.687,-0.162C0.657,-0.104 0.615,-0.061 0.562,-0.032C0.508,-0.002 0.451,0.012 0.391,0.012C0.346,0.012 0.306,0.006 0.269,-0.007C0.241,-0.017 0.208,-0.035 0.171,-0.063L0.089,0.029L0.041,-0.012L0.126,-0.108C0.095,-0.157 0.073,-0.198 0.063,-0.233C0.052,-0.267 0.046,-0.308 0.046,-0.356C0.046,-0.43 0.061,-0.496 0.09,-0.553C0.12,-0.61 0.161,-0.654 0.214,-0.684C0.267,-0.713 0.325,-0.728 0.39,-0.728C0.434,-0.728 0.472,-0.722 0.505,-0.711C0.537,-0.699 0.573,-0.679 0.61,-0.65ZM0.552,-0.584C0.521,-0.609 0.494,-0.625 0.471,-0.634C0.448,-0.643 0.422,-0.647 0.391,-0.647C0.319,-0.647 0.26,-0.623 0.214,-0.574C0.167,-0.526 0.144,-0.454 0.144,-0.358C0.144,-0.32 0.148,-0.287 0.155,-0.257C0.16,-0.236 0.171,-0.209 0.188,-0.177L0.552,-0.584ZM0.592,-0.534L0.229,-0.128C0.254,-0.107 0.277,-0.093 0.298,-0.085C0.326,-0.074 0.356,-0.069 0.388,-0.069C0.459,-0.069 0.518,-0.094 0.564,-0.144C0.61,-0.194 0.633,-0.264 0.633,-0.355C0.633,-0.423 0.619,-0.482 0.592,-0.534Z" style="fill:rgb(0,104,255);fill-rule:nonzero;"/>
        </g>
        <g transform="matrix(150,0,0,150,-1733.28,1977.77)">
            <path d="M0.09,-0.418L0.09,-0.519L0.19,-0.519L0.19,-0.418L0.09,-0.418ZM0.09,-0L0.09,-0.1L0.19,-0.1L0.19,-0L0.09,-0Z" style="fill:rgb(0,104,255);fill-rule:nonzero;"/>
        </g>
        <g transform="matrix(150,0,0,150,-1649.93,1977.77)">
            <path d="M0.498,-0.541L0.41,-0.534C0.402,-0.568 0.391,-0.593 0.377,-0.609C0.353,-0.634 0.324,-0.646 0.289,-0.646C0.261,-0.646 0.236,-0.639 0.215,-0.623C0.188,-0.603 0.166,-0.573 0.15,-0.535C0.134,-0.496 0.126,-0.441 0.125,-0.369C0.146,-0.401 0.172,-0.425 0.203,-0.441C0.233,-0.457 0.265,-0.464 0.299,-0.464C0.357,-0.464 0.407,-0.443 0.448,-0.4C0.49,-0.357 0.51,-0.301 0.51,-0.232C0.51,-0.188 0.501,-0.146 0.481,-0.107C0.462,-0.069 0.435,-0.039 0.401,-0.019C0.368,0.002 0.329,0.012 0.286,0.012C0.213,0.012 0.153,-0.015 0.107,-0.069C0.061,-0.122 0.038,-0.211 0.038,-0.335C0.038,-0.473 0.063,-0.574 0.114,-0.637C0.159,-0.691 0.219,-0.719 0.294,-0.719C0.351,-0.719 0.397,-0.703 0.433,-0.671C0.469,-0.64 0.49,-0.596 0.498,-0.541ZM0.139,-0.232C0.139,-0.202 0.145,-0.173 0.158,-0.145C0.171,-0.117 0.189,-0.096 0.212,-0.082C0.235,-0.067 0.259,-0.06 0.285,-0.06C0.322,-0.06 0.354,-0.075 0.38,-0.105C0.407,-0.135 0.42,-0.176 0.42,-0.227C0.42,-0.277 0.407,-0.316 0.381,-0.344C0.354,-0.372 0.321,-0.387 0.281,-0.387C0.242,-0.387 0.208,-0.372 0.18,-0.344C0.153,-0.316 0.139,-0.278 0.139,-0.232Z" style="fill:rgb(0,104,255);fill-rule:nonzero;"/>
        </g>
        <g transform="matrix(150,0,0,150,-1566.51,1977.77)">
            <path d="M0.066,-0L0.066,-0.519L0.145,-0.519L0.145,-0.446C0.161,-0.471 0.182,-0.492 0.209,-0.507C0.236,-0.523 0.267,-0.53 0.302,-0.53C0.34,-0.53 0.372,-0.522 0.396,-0.506C0.421,-0.49 0.438,-0.468 0.448,-0.439C0.489,-0.5 0.543,-0.53 0.608,-0.53C0.66,-0.53 0.699,-0.516 0.727,-0.488C0.755,-0.459 0.769,-0.415 0.769,-0.356L0.769,-0L0.681,-0L0.681,-0.327C0.681,-0.362 0.678,-0.387 0.673,-0.403C0.667,-0.418 0.657,-0.431 0.642,-0.44C0.627,-0.449 0.609,-0.454 0.589,-0.454C0.552,-0.454 0.522,-0.442 0.498,-0.418C0.474,-0.393 0.462,-0.355 0.462,-0.301L0.462,-0L0.374,-0L0.374,-0.337C0.374,-0.376 0.367,-0.405 0.353,-0.425C0.338,-0.444 0.315,-0.454 0.282,-0.454C0.257,-0.454 0.235,-0.448 0.214,-0.435C0.193,-0.422 0.177,-0.403 0.168,-0.377C0.159,-0.352 0.154,-0.316 0.154,-0.269L0.154,-0L0.066,-0Z" style="fill:rgb(0,104,255);fill-rule:nonzero;"/>
        </g>
        <g transform="matrix(150,0,0,150,-1441.56,1977.77)">
            <path d="M0.066,-0L0.066,-0.519L0.145,-0.519L0.145,-0.446C0.161,-0.471 0.182,-0.492 0.209,-0.507C0.236,-0.523 0.267,-0.53 0.302,-0.53C0.34,-0.53 0.372,-0.522 0.396,-0.506C0.421,-0.49 0.438,-0.468 0.448,-0.439C0.489,-0.5 0.543,-0.53 0.608,-0.53C0.66,-0.53 0.699,-0.516 0.727,-0.488C0.755,-0.459 0.769,-0.415 0.769,-0.356L0.769,-0L0.681,-0L0.681,-0.327C0.681,-0.362 0.678,-0.387 0.673,-0.403C0.667,-0.418 0.657,-0.431 0.642,-0.44C0.627,-0.449 0.609,-0.454 0.589,-0.454C0.552,-0.454 0.522,-0.442 0.498,-0.418C0.474,-0.393 0.462,-0.355 0.462,-0.301L0.462,-0L0.374,-0L0.374,-0.337C0.374,-0.376 0.367,-0.405 0.353,-0.425C0.338,-0.444 0.315,-0.454 0.282,-0.454C0.257,-0.454 0.235,-0.448 0.214,-0.435C0.193,-0.422 0.177,-0.403 0.168,-0.377C0.159,-0.352 0.154,-0.316 0.154,-0.269L0.154,-0L0.066,-0Z" style="fill:rgb(0,104,255);fill-rule:nonzero;"/>
        </g>
    </g>
</svg>
