<?xml version="1.0" encoding="UTF-8" standalone="no"?>
<!DOCTYPE svg PUBLIC "-//W3C//DTD SVG 1.1//EN" "http://www.w3.org/Graphics/SVG/1.1/DTD/svg11.dtd">
<svg width="596px" height="842px" version="1.1" xmlns="http://www.w3.org/2000/svg" xmlns:xlink="http://www.w3.org/1999/xlink" xml:space="preserve" xmlns:serif="http://www.serif.com/" style="fill-rule:evenodd;clip-rule:evenodd;stroke-linejoin:round;stroke-miterlimit:2;">
    <path id="Holzleiste-45mm-x-20mm" serif:id="Holzleiste 45mm x 20mm" d="M123.504,403.867L123.504,531.426L406.968,531.426L406.968,403.867L123.504,403.867Z" style="fill:rgb(0,104,255);"/>
    <path id="waagrechte-Achse" serif:id="waagrechte Achse" d="M50.041,403.867L390.198,403.867" style="fill:none;stroke:rgb(0,104,255);stroke-width:0.5px;stroke-dasharray:3,3,0,0;"/>
    <path id="senkrechte-Achse" serif:id="senkrechte Achse" d="M123.504,381.103L123.504,721.26" style="fill:none;stroke:rgb(0,104,255);stroke-width:0.5px;stroke-dasharray:3,3,0,0;"/>
    <path id="Bezugspunkt" d="M208.781,403.867L208.781,467.576L244.692,467.576L208.781,403.867Z" style="fill:rgb(255,0,0);stroke:rgb(255,0,0);stroke-width:0.24px;stroke-linecap:round;stroke-miterlimit:1.5;"/>
    <g id="_30mm" serif:id="30mm">
        <path d="M123.504,551.182L208.543,551.182" style="fill:none;"/>
        <path d="M123.754,548.182L123.754,554.182" style="fill:none;stroke:rgb(0,104,255);stroke-width:0.5px;stroke-linejoin:miter;stroke-miterlimit:10;"/>
        <path d="M208.293,548.182L208.293,554.182" style="fill:none;stroke:rgb(0,104,255);stroke-width:0.5px;stroke-linejoin:miter;stroke-miterlimit:10;"/>
        <path d="M123.754,551.182L208.293,551.182" style="fill:none;stroke:rgb(0,104,255);stroke-width:0.5px;stroke-dasharray:3,3,0,0;"/>
    </g>
    <path d="M149.992,561.714L151.047,561.573C151.168,562.171 151.374,562.601 151.665,562.865C151.956,563.129 152.311,563.261 152.729,563.261C153.225,563.261 153.644,563.089 153.985,562.745C154.327,562.401 154.498,561.975 154.498,561.468C154.498,560.983 154.34,560.584 154.024,560.269C153.707,559.955 153.305,559.798 152.817,559.798C152.617,559.798 152.369,559.837 152.072,559.915L152.19,558.989C152.26,558.997 152.317,559.001 152.36,559.001C152.809,559.001 153.213,558.884 153.572,558.649C153.932,558.415 154.111,558.054 154.111,557.565C154.111,557.179 153.981,556.858 153.719,556.604C153.457,556.35 153.119,556.224 152.705,556.224C152.295,556.224 151.953,556.352 151.68,556.61C151.406,556.868 151.231,557.255 151.152,557.77L150.098,557.583C150.227,556.876 150.52,556.328 150.977,555.939C151.434,555.551 152.002,555.356 152.682,555.356C153.151,555.356 153.582,555.457 153.977,555.658C154.371,555.859 154.673,556.134 154.882,556.481C155.091,556.829 155.195,557.198 155.195,557.589C155.195,557.96 155.096,558.298 154.897,558.602C154.697,558.907 154.402,559.149 154.012,559.329C154.52,559.446 154.914,559.689 155.195,560.058C155.477,560.428 155.617,560.89 155.617,561.444C155.617,562.194 155.344,562.83 154.797,563.351C154.25,563.873 153.559,564.134 152.723,564.134C151.969,564.134 151.343,563.909 150.845,563.46C150.347,563.011 150.063,562.429 149.992,561.714Z" style="fill:rgb(0,104,255);fill-rule:nonzero;"/>
    <path d="M156.66,559.745C156.66,558.729 156.765,557.912 156.974,557.293C157.183,556.674 157.493,556.196 157.905,555.86C158.318,555.524 158.836,555.356 159.461,555.356C159.922,555.356 160.326,555.449 160.674,555.635C161.022,555.82 161.309,556.088 161.535,556.437C161.762,556.787 161.94,557.213 162.068,557.715C162.197,558.217 162.262,558.893 162.262,559.745C162.262,560.753 162.158,561.566 161.951,562.185C161.744,562.805 161.435,563.283 161.023,563.621C160.61,563.959 160.09,564.128 159.461,564.128C158.633,564.128 157.983,563.831 157.51,563.237C156.943,562.522 156.66,561.358 156.66,559.745ZM157.744,559.745C157.744,561.155 157.909,562.094 158.239,562.56C158.569,563.027 158.977,563.261 159.461,563.261C159.945,563.261 160.353,563.026 160.683,562.557C161.013,562.089 161.178,561.151 161.178,559.745C161.178,558.331 161.013,557.391 160.683,556.927C160.353,556.462 159.942,556.229 159.449,556.229C158.965,556.229 158.578,556.434 158.289,556.845C157.926,557.368 157.744,558.335 157.744,559.745Z" style="fill:rgb(0,104,255);fill-rule:nonzero;"/>
    <path d="M163.627,563.981L163.627,557.759L164.57,557.759L164.57,558.632C164.766,558.327 165.026,558.082 165.35,557.896C165.674,557.711 166.043,557.618 166.457,557.618C166.918,557.618 167.296,557.714 167.591,557.905C167.886,558.097 168.094,558.364 168.215,558.708C168.707,557.981 169.348,557.618 170.137,557.618C170.754,557.618 171.229,557.789 171.561,558.131C171.893,558.473 172.059,558.999 172.059,559.71L172.059,563.981L171.01,563.981L171.01,560.061C171.01,559.64 170.976,559.336 170.907,559.15C170.839,558.965 170.715,558.815 170.535,558.702C170.356,558.589 170.145,558.532 169.902,558.532C169.465,558.532 169.102,558.678 168.813,558.969C168.524,559.26 168.379,559.725 168.379,560.366L168.379,563.981L167.324,563.981L167.324,559.938C167.324,559.47 167.238,559.118 167.067,558.884C166.895,558.649 166.613,558.532 166.223,558.532C165.926,558.532 165.651,558.61 165.4,558.766C165.148,558.923 164.965,559.151 164.852,559.452C164.738,559.753 164.682,560.186 164.682,560.753L164.682,563.981L163.627,563.981Z" style="fill:rgb(0,104,255);fill-rule:nonzero;"/>
    <path d="M173.623,563.981L173.623,557.759L174.567,557.759L174.567,558.632C174.762,558.327 175.022,558.082 175.346,557.896C175.67,557.711 176.039,557.618 176.453,557.618C176.914,557.618 177.292,557.714 177.587,557.905C177.882,558.097 178.09,558.364 178.211,558.708C178.703,557.981 179.344,557.618 180.133,557.618C180.75,557.618 181.225,557.789 181.557,558.131C181.889,558.473 182.055,558.999 182.055,559.71L182.055,563.981L181.006,563.981L181.006,560.061C181.006,559.64 180.972,559.336 180.903,559.15C180.835,558.965 180.711,558.815 180.531,558.702C180.352,558.589 180.141,558.532 179.899,558.532C179.461,558.532 179.098,558.678 178.809,558.969C178.52,559.26 178.375,559.725 178.375,560.366L178.375,563.981L177.32,563.981L177.32,559.938C177.32,559.47 177.235,559.118 177.063,558.884C176.891,558.649 176.61,558.532 176.219,558.532C175.922,558.532 175.648,558.61 175.396,558.766C175.144,558.923 174.961,559.151 174.848,559.452C174.735,559.753 174.678,560.186 174.678,560.753L174.678,563.981L173.623,563.981Z" style="fill:rgb(0,104,255);fill-rule:nonzero;"/>
    <g id="_25mm" serif:id="25mm">
        <path d="M102.374,467.576L102.374,403.797" style="fill:none;"/>
        <path d="M99.374,467.326L105.374,467.326" style="fill:none;stroke:rgb(0,104,255);stroke-width:0.5px;stroke-linejoin:miter;stroke-miterlimit:10;"/>
        <path d="M99.374,404.047L105.374,404.047" style="fill:none;stroke:rgb(0,104,255);stroke-width:0.5px;stroke-linejoin:miter;stroke-miterlimit:10;"/>
        <path d="M102.374,467.326L102.374,404.047" style="fill:none;stroke:rgb(0,104,255);stroke-width:0.5px;stroke-dasharray:3,3,0,0;"/>
    </g>
    <path d="M55.944,438.136L55.944,439.15L50.266,439.15C50.259,438.896 50.3,438.652 50.389,438.417C50.534,438.03 50.765,437.65 51.084,437.275C51.402,436.9 51.862,436.466 52.464,435.974C53.397,435.208 54.028,434.602 54.356,434.154C54.684,433.707 54.848,433.284 54.848,432.886C54.848,432.468 54.699,432.115 54.4,431.828C54.101,431.541 53.712,431.398 53.231,431.398C52.723,431.398 52.317,431.55 52.013,431.855C51.708,432.159 51.554,432.581 51.55,433.12L50.466,433.009C50.54,432.2 50.819,431.584 51.304,431.16C51.788,430.736 52.438,430.525 53.255,430.525C54.079,430.525 54.731,430.753 55.212,431.21C55.692,431.667 55.932,432.234 55.932,432.909C55.932,433.253 55.862,433.591 55.722,433.923C55.581,434.255 55.348,434.605 55.021,434.972C54.695,435.339 54.153,435.843 53.395,436.484C52.763,437.015 52.356,437.375 52.177,437.565C51.997,437.754 51.848,437.944 51.731,438.136L55.944,438.136Z" style="fill:rgb(0,104,255);fill-rule:nonzero;"/>
    <path d="M62.618,438.136L62.618,439.15L56.94,439.15C56.932,438.896 56.973,438.652 57.063,438.417C57.208,438.03 57.439,437.65 57.758,437.275C58.076,436.9 58.536,436.466 59.138,435.974C60.071,435.208 60.702,434.602 61.03,434.154C61.358,433.707 61.522,433.284 61.522,432.886C61.522,432.468 61.373,432.115 61.074,431.828C60.775,431.541 60.386,431.398 59.905,431.398C59.397,431.398 58.991,431.55 58.686,431.855C58.382,432.159 58.227,432.581 58.223,433.12L57.139,433.009C57.214,432.2 57.493,431.584 57.977,431.16C58.462,430.736 59.112,430.525 59.929,430.525C60.753,430.525 61.405,430.753 61.886,431.21C62.366,431.667 62.606,432.234 62.606,432.909C62.606,433.253 62.536,433.591 62.395,433.923C62.255,434.255 62.021,434.605 61.695,434.972C61.369,435.339 60.827,435.843 60.069,436.484C59.436,437.015 59.03,437.375 58.85,437.565C58.671,437.754 58.522,437.944 58.405,438.136L62.618,438.136Z" style="fill:rgb(0,104,255);fill-rule:nonzero;"/>
    <path d="M64.317,439.15L64.317,437.948L65.518,437.948L65.518,439.15C65.518,439.591 65.44,439.947 65.284,440.219C65.128,440.49 64.88,440.7 64.54,440.849L64.247,440.398C64.47,440.3 64.634,440.156 64.739,439.967C64.845,439.778 64.903,439.505 64.915,439.15L64.317,439.15Z" style="fill:rgb(0,104,255);fill-rule:nonzero;"/>
    <path d="M67.083,436.9L68.19,436.806C68.272,437.345 68.463,437.75 68.762,438.022C69.06,438.293 69.421,438.429 69.843,438.429C70.35,438.429 70.78,438.237 71.132,437.855C71.483,437.472 71.659,436.964 71.659,436.331C71.659,435.73 71.49,435.255 71.152,434.907C70.814,434.56 70.372,434.386 69.825,434.386C69.485,434.386 69.179,434.463 68.905,434.617C68.632,434.772 68.417,434.972 68.261,435.218L67.27,435.089L68.102,430.677L72.374,430.677L72.374,431.685L68.946,431.685L68.483,433.993C68.999,433.634 69.54,433.454 70.106,433.454C70.856,433.454 71.489,433.714 72.005,434.234C72.52,434.753 72.778,435.421 72.778,436.237C72.778,437.015 72.552,437.687 72.098,438.253C71.548,438.948 70.796,439.296 69.843,439.296C69.061,439.296 68.424,439.077 67.93,438.64C67.435,438.202 67.153,437.622 67.083,436.9Z" style="fill:rgb(0,104,255);fill-rule:nonzero;"/>
    <path d="M74.05,439.15L74.05,432.927L74.993,432.927L74.993,433.8C75.188,433.495 75.448,433.25 75.772,433.065C76.097,432.879 76.466,432.786 76.88,432.786C77.341,432.786 77.719,432.882 78.014,433.073C78.308,433.265 78.516,433.532 78.638,433.876C79.13,433.15 79.77,432.786 80.559,432.786C81.177,432.786 81.651,432.957 81.983,433.299C82.315,433.641 82.481,434.167 82.481,434.878L82.481,439.15L81.432,439.15L81.432,435.23C81.432,434.808 81.398,434.504 81.33,434.319C81.262,434.133 81.138,433.984 80.958,433.87C80.778,433.757 80.567,433.7 80.325,433.7C79.888,433.7 79.524,433.846 79.235,434.137C78.946,434.428 78.802,434.894 78.802,435.534L78.802,439.15L77.747,439.15L77.747,435.107C77.747,434.638 77.661,434.286 77.489,434.052C77.317,433.818 77.036,433.7 76.645,433.7C76.348,433.7 76.074,433.778 75.822,433.935C75.57,434.091 75.388,434.319 75.274,434.62C75.161,434.921 75.104,435.355 75.104,435.921L75.104,439.15L74.05,439.15Z" style="fill:rgb(0,104,255);fill-rule:nonzero;"/>
    <path d="M84.046,439.15L84.046,432.927L84.989,432.927L84.989,433.8C85.184,433.495 85.444,433.25 85.768,433.065C86.093,432.879 86.462,432.786 86.876,432.786C87.337,432.786 87.715,432.882 88.01,433.073C88.305,433.265 88.513,433.532 88.634,433.876C89.126,433.15 89.766,432.786 90.556,432.786C91.173,432.786 91.647,432.957 91.979,433.299C92.311,433.641 92.477,434.167 92.477,434.878L92.477,439.15L91.429,439.15L91.429,435.23C91.429,434.808 91.394,434.504 91.326,434.319C91.258,434.133 91.134,433.984 90.954,433.87C90.774,433.757 90.563,433.7 90.321,433.7C89.884,433.7 89.52,433.846 89.231,434.137C88.942,434.428 88.798,434.894 88.798,435.534L88.798,439.15L87.743,439.15L87.743,435.107C87.743,434.638 87.657,434.286 87.485,434.052C87.313,433.818 87.032,433.7 86.641,433.7C86.345,433.7 86.07,433.778 85.818,433.935C85.566,434.091 85.384,434.319 85.27,434.62C85.157,434.921 85.1,435.355 85.1,435.921L85.1,439.15L84.046,439.15Z" style="fill:rgb(0,104,255);fill-rule:nonzero;"/>
    <path id="Lasche-d:10mm" serif:id="Lasche d:10mm" d="M164.365,537.095L123.511,536.95L123.511,536.948C123.443,536.949 123.375,536.95 123.307,536.95C117.049,536.95 111.969,531.869 111.969,525.611C111.969,522.629 113.122,519.914 115.007,517.89L115.007,417.327C113.122,415.303 111.969,412.588 111.969,409.606C111.969,403.348 117.049,398.268 123.307,398.268C123.375,398.268 123.443,398.268 123.511,398.27L123.511,398.268L164.365,398.198L187.45,398.198C189.411,394.81 193.076,392.528 197.269,392.528C203.527,392.528 208.608,397.609 208.608,403.867C208.608,404.256 208.588,404.64 208.55,405.018L208.55,434.737C208.55,440.995 203.47,446.076 197.212,446.076C194.083,446.076 191.248,444.805 189.196,442.753L189.184,442.764C182.755,436.212 173.798,432.143 163.899,432.143C144.343,432.143 128.466,448.02 128.466,467.576C128.466,487.132 144.343,503.01 163.899,503.01C174.39,503.01 183.823,498.44 190.315,491.182L190.442,491.314C192.331,489.904 194.675,489.069 197.212,489.069C203.47,489.069 208.55,494.15 208.55,500.408C208.55,500.461 208.55,500.514 208.549,500.567L208.55,500.567L208.55,508.611C208.619,508.61 208.626,526.587 208.573,530.527C208.596,530.824 208.608,531.124 208.608,531.426C208.608,537.684 203.527,542.765 197.269,542.765C193.076,542.765 189.411,540.483 187.45,537.095L164.365,537.095Z" style="fill:rgb(127,127,127);"/>
</svg>
