<?xml version="1.0" encoding="UTF-8" standalone="no"?>
<!DOCTYPE svg PUBLIC "-//W3C//DTD SVG 1.1//EN" "http://www.w3.org/Graphics/SVG/1.1/DTD/svg11.dtd">
<svg width="596px" height="842px" version="1.1" xmlns="http://www.w3.org/2000/svg" xmlns:xlink="http://www.w3.org/1999/xlink" xml:space="preserve" xmlns:serif="http://www.serif.com/" style="fill-rule:evenodd;clip-rule:evenodd;stroke-linejoin:round;stroke-miterlimit:2;">
    <path id="Holzleiste-45mm-x-20mm" serif:id="Holzleiste 45mm x 20mm" d="M406.968,531.356L406.968,403.797L123.504,403.797L123.504,531.356L406.968,531.356Z" style="fill:rgb(0,104,255);"/>
    <path id="waagrechte-Achse" serif:id="waagrechte Achse" d="M50.041,403.867L390.198,403.867" style="fill:none;stroke:rgb(0,104,255);stroke-width:0.5px;stroke-dasharray:3,3,0,0;"/>
    <path id="senkrechte-Achse" serif:id="senkrechte Achse" d="M321.864,367.115L321.864,652.589" style="fill:none;stroke:rgb(0,104,255);stroke-width:0.5px;stroke-dasharray:3,3,0,0;"/>
    <g id="_30mm" serif:id="30mm">
        <path d="M321.864,553.718L406.904,553.718" style="fill:none;"/>
        <path d="M322.114,550.718L322.114,556.718" style="fill:none;stroke:rgb(0,104,255);stroke-width:0.5px;stroke-linejoin:miter;stroke-miterlimit:10;"/>
        <path d="M406.654,550.718L406.654,556.718" style="fill:none;stroke:rgb(0,104,255);stroke-width:0.5px;stroke-linejoin:miter;stroke-miterlimit:10;"/>
        <path d="M322.114,553.718L406.654,553.718" style="fill:none;stroke:rgb(0,104,255);stroke-width:0.5px;stroke-dasharray:3,3,0,0;"/>
    </g>
    <path d="M348.353,564.25L349.407,564.109C349.529,564.707 349.735,565.137 350.026,565.401C350.317,565.665 350.671,565.797 351.089,565.797C351.585,565.797 352.004,565.625 352.346,565.281C352.688,564.937 352.859,564.512 352.859,564.004C352.859,563.519 352.7,563.12 352.384,562.805C352.068,562.491 351.665,562.334 351.177,562.334C350.978,562.334 350.73,562.373 350.433,562.451L350.55,561.525C350.62,561.533 350.677,561.537 350.72,561.537C351.169,561.537 351.573,561.42 351.933,561.185C352.292,560.951 352.472,560.59 352.472,560.101C352.472,559.715 352.341,559.394 352.079,559.14C351.818,558.887 351.48,558.76 351.066,558.76C350.656,558.76 350.314,558.888 350.04,559.146C349.767,559.404 349.591,559.791 349.513,560.306L348.458,560.119C348.587,559.412 348.88,558.864 349.337,558.475C349.794,558.087 350.363,557.892 351.042,557.892C351.511,557.892 351.943,557.993 352.337,558.194C352.732,558.395 353.033,558.67 353.242,559.017C353.451,559.365 353.556,559.734 353.556,560.125C353.556,560.496 353.456,560.834 353.257,561.138C353.058,561.443 352.763,561.685 352.372,561.865C352.88,561.982 353.275,562.225 353.556,562.595C353.837,562.964 353.978,563.426 353.978,563.98C353.978,564.73 353.704,565.366 353.157,565.887C352.611,566.409 351.919,566.67 351.083,566.67C350.329,566.67 349.703,566.445 349.205,565.996C348.707,565.547 348.423,564.965 348.353,564.25Z" style="fill:rgb(0,104,255);fill-rule:nonzero;"/>
    <path d="M355.021,562.281C355.021,561.265 355.125,560.448 355.334,559.829C355.543,559.21 355.854,558.732 356.266,558.396C356.678,558.06 357.197,557.892 357.822,557.892C358.282,557.892 358.687,557.985 359.034,558.171C359.382,558.356 359.669,558.624 359.896,558.973C360.122,559.323 360.3,559.749 360.429,560.251C360.558,560.753 360.622,561.429 360.622,562.281C360.622,563.289 360.519,564.102 360.312,564.721C360.105,565.341 359.795,565.819 359.383,566.157C358.971,566.495 358.45,566.664 357.822,566.664C356.993,566.664 356.343,566.367 355.87,565.773C355.304,565.058 355.021,563.894 355.021,562.281ZM356.105,562.281C356.105,563.691 356.27,564.63 356.6,565.096C356.93,565.563 357.337,565.797 357.822,565.797C358.306,565.797 358.713,565.562 359.043,565.094C359.373,564.625 359.538,563.687 359.538,562.281C359.538,560.867 359.373,559.928 359.043,559.463C358.713,558.998 358.302,558.765 357.81,558.765C357.325,558.765 356.939,558.97 356.65,559.381C356.286,559.904 356.105,560.871 356.105,562.281Z" style="fill:rgb(0,104,255);fill-rule:nonzero;"/>
    <path d="M361.988,566.517L361.988,560.295L362.931,560.295L362.931,561.168C363.126,560.863 363.386,560.618 363.71,560.432C364.034,560.247 364.404,560.154 364.818,560.154C365.279,560.154 365.657,560.25 365.951,560.441C366.246,560.633 366.454,560.9 366.575,561.244C367.068,560.517 367.708,560.154 368.497,560.154C369.115,560.154 369.589,560.325 369.921,560.667C370.253,561.009 370.419,561.535 370.419,562.246L370.419,566.517L369.37,566.517L369.37,562.597C369.37,562.176 369.336,561.872 369.268,561.686C369.199,561.501 369.075,561.351 368.896,561.238C368.716,561.125 368.505,561.068 368.263,561.068C367.825,561.068 367.462,561.214 367.173,561.505C366.884,561.796 366.74,562.262 366.74,562.902L366.74,566.517L365.685,566.517L365.685,562.474C365.685,562.006 365.599,561.654 365.427,561.42C365.255,561.185 364.974,561.068 364.583,561.068C364.286,561.068 364.012,561.146 363.76,561.303C363.508,561.459 363.325,561.687 363.212,561.988C363.099,562.289 363.042,562.722 363.042,563.289L363.042,566.517L361.988,566.517Z" style="fill:rgb(0,104,255);fill-rule:nonzero;"/>
    <path d="M371.984,566.517L371.984,560.295L372.927,560.295L372.927,561.168C373.122,560.863 373.382,560.618 373.706,560.432C374.031,560.247 374.4,560.154 374.814,560.154C375.275,560.154 375.653,560.25 375.948,560.441C376.242,560.633 376.45,560.9 376.572,561.244C377.064,560.517 377.704,560.154 378.493,560.154C379.111,560.154 379.585,560.325 379.917,560.667C380.249,561.009 380.415,561.535 380.415,562.246L380.415,566.517L379.366,566.517L379.366,562.597C379.366,562.176 379.332,561.872 379.264,561.686C379.196,561.501 379.072,561.351 378.892,561.238C378.712,561.125 378.501,561.068 378.259,561.068C377.822,561.068 377.458,561.214 377.169,561.505C376.88,561.796 376.736,562.262 376.736,562.902L376.736,566.517L375.681,566.517L375.681,562.474C375.681,562.006 375.595,561.654 375.423,561.42C375.251,561.185 374.97,561.068 374.579,561.068C374.282,561.068 374.008,561.146 373.756,561.303C373.504,561.459 373.322,561.687 373.208,561.988C373.095,562.289 373.038,562.722 373.038,563.289L373.038,566.517L371.984,566.517Z" style="fill:rgb(0,104,255);fill-rule:nonzero;"/>
    <path id="Lasche-d:10mm" serif:id="Lasche d:10mm" d="M366.108,398.128L406.962,398.273L406.962,398.275C407.029,398.274 407.097,398.273 407.165,398.273C413.423,398.273 418.504,403.354 418.504,409.612C418.504,412.594 417.35,415.308 415.466,417.333L415.466,517.895C417.35,519.92 418.504,522.635 418.504,525.617C418.504,531.875 413.423,536.955 407.165,536.955C407.097,536.955 407.029,536.955 406.962,536.953L406.962,536.955L366.108,537.025L343.023,537.025C341.061,540.413 337.396,542.695 333.203,542.695C326.945,542.695 321.864,537.614 321.864,531.356C321.864,530.967 321.884,530.583 321.922,530.205L321.922,500.486C321.922,494.228 327.003,489.147 333.261,489.147C336.39,489.147 339.224,490.418 341.277,492.47L341.288,492.459C347.718,499.011 356.674,503.08 366.574,503.08C386.13,503.08 402.007,487.202 402.007,467.646C402.007,448.09 386.13,432.213 366.574,432.213C356.082,432.213 346.649,436.783 340.157,444.041L340.031,443.909C338.141,445.319 335.798,446.154 333.261,446.154C327.003,446.154 321.922,441.073 321.922,434.815C321.922,434.762 321.923,434.709 321.923,434.656L321.922,434.656L321.922,426.612C321.854,426.613 321.846,408.636 321.9,404.696C321.876,404.399 321.864,404.099 321.864,403.797C321.864,397.539 326.945,392.458 333.203,392.458C337.396,392.458 341.061,394.74 343.023,398.128L366.108,398.128Z" style="fill:rgb(127,127,127);"/>
    <g transform="matrix(0.24,0,0,0.24,580.22,193.1)">
        <g transform="matrix(150,0,0,150,-1849.96,1822.86)">
            <path d="M0.082,-0L0.082,-0.716L0.565,-0.716L0.565,-0.631L0.177,-0.631L0.177,-0.41L0.513,-0.41L0.513,-0.325L0.177,-0.325L0.177,-0L0.082,-0Z" style="fill:rgb(0,104,255);fill-rule:nonzero;"/>
        </g>
        <g transform="matrix(150,0,0,150,-1758.33,1822.86)">
            <path d="M0.065,-0L0.065,-0.519L0.144,-0.519L0.144,-0.44C0.164,-0.477 0.183,-0.501 0.2,-0.513C0.217,-0.524 0.236,-0.53 0.256,-0.53C0.286,-0.53 0.316,-0.521 0.347,-0.502L0.316,-0.42C0.295,-0.433 0.273,-0.439 0.252,-0.439C0.233,-0.439 0.215,-0.434 0.2,-0.422C0.185,-0.411 0.174,-0.395 0.167,-0.374C0.158,-0.343 0.153,-0.309 0.153,-0.271L0.153,-0L0.065,-0Z" style="fill:rgb(0,104,255);fill-rule:nonzero;"/>
        </g>
        <g transform="matrix(150,0,0,150,-1708.38,1822.86)">
            <path d="M0.404,-0.064C0.372,-0.036 0.34,-0.017 0.31,-0.005C0.28,0.006 0.248,0.012 0.213,0.012C0.156,0.012 0.113,-0.002 0.082,-0.03C0.051,-0.058 0.036,-0.093 0.036,-0.137C0.036,-0.162 0.042,-0.185 0.053,-0.206C0.065,-0.227 0.08,-0.244 0.099,-0.257C0.118,-0.27 0.139,-0.279 0.162,-0.286C0.179,-0.29 0.205,-0.295 0.24,-0.299C0.311,-0.307 0.363,-0.317 0.397,-0.329C0.397,-0.341 0.397,-0.349 0.397,-0.352C0.397,-0.388 0.389,-0.413 0.373,-0.428C0.35,-0.448 0.317,-0.458 0.272,-0.458C0.231,-0.458 0.201,-0.45 0.181,-0.436C0.161,-0.421 0.147,-0.396 0.137,-0.359L0.051,-0.371C0.059,-0.407 0.072,-0.437 0.09,-0.46C0.108,-0.482 0.134,-0.5 0.167,-0.512C0.201,-0.524 0.241,-0.53 0.285,-0.53C0.329,-0.53 0.365,-0.525 0.393,-0.515C0.421,-0.504 0.441,-0.491 0.454,-0.475C0.467,-0.46 0.476,-0.44 0.481,-0.416C0.484,-0.401 0.486,-0.374 0.486,-0.334L0.486,-0.217C0.486,-0.136 0.488,-0.084 0.491,-0.062C0.495,-0.041 0.503,-0.02 0.514,-0L0.422,-0C0.413,-0.018 0.407,-0.04 0.404,-0.064ZM0.397,-0.26C0.365,-0.247 0.317,-0.236 0.253,-0.227C0.217,-0.222 0.192,-0.216 0.177,-0.209C0.162,-0.203 0.15,-0.193 0.142,-0.181C0.134,-0.168 0.13,-0.154 0.13,-0.139C0.13,-0.116 0.139,-0.096 0.156,-0.081C0.174,-0.065 0.2,-0.057 0.234,-0.057C0.268,-0.057 0.298,-0.065 0.325,-0.079C0.351,-0.094 0.37,-0.114 0.383,-0.14C0.392,-0.16 0.397,-0.189 0.397,-0.228L0.397,-0.26ZM0.138,-0.62L0.138,-0.72L0.23,-0.72L0.23,-0.62L0.138,-0.62ZM0.32,-0.62L0.32,-0.72L0.412,-0.72L0.412,-0.62L0.32,-0.62Z" style="fill:rgb(0,104,255);fill-rule:nonzero;"/>
        </g>
        <g transform="matrix(150,0,0,150,-1624.96,1822.86)">
            <path d="M0.031,-0.155L0.118,-0.168C0.123,-0.134 0.136,-0.107 0.158,-0.088C0.181,-0.07 0.212,-0.061 0.252,-0.061C0.292,-0.061 0.322,-0.069 0.342,-0.085C0.361,-0.102 0.371,-0.121 0.371,-0.143C0.371,-0.163 0.362,-0.179 0.345,-0.19C0.333,-0.198 0.303,-0.208 0.255,-0.22C0.191,-0.236 0.146,-0.25 0.121,-0.262C0.096,-0.274 0.078,-0.29 0.065,-0.311C0.052,-0.332 0.045,-0.355 0.045,-0.381C0.045,-0.404 0.051,-0.425 0.061,-0.445C0.072,-0.465 0.086,-0.481 0.104,-0.494C0.118,-0.504 0.137,-0.513 0.16,-0.52C0.184,-0.527 0.209,-0.53 0.236,-0.53C0.277,-0.53 0.313,-0.524 0.344,-0.513C0.374,-0.501 0.397,-0.485 0.412,-0.465C0.426,-0.445 0.436,-0.418 0.442,-0.385L0.356,-0.373C0.352,-0.4 0.341,-0.421 0.322,-0.436C0.303,-0.451 0.277,-0.458 0.243,-0.458C0.202,-0.458 0.174,-0.451 0.156,-0.438C0.139,-0.425 0.13,-0.409 0.13,-0.391C0.13,-0.38 0.134,-0.369 0.141,-0.36C0.148,-0.351 0.16,-0.343 0.175,-0.337C0.184,-0.334 0.209,-0.326 0.252,-0.314C0.315,-0.298 0.358,-0.284 0.383,-0.274C0.407,-0.263 0.426,-0.248 0.44,-0.228C0.454,-0.207 0.461,-0.182 0.461,-0.152C0.461,-0.123 0.453,-0.095 0.436,-0.07C0.419,-0.044 0.394,-0.024 0.362,-0.01C0.33,0.005 0.293,0.012 0.252,0.012C0.185,0.012 0.134,-0.002 0.098,-0.03C0.063,-0.058 0.041,-0.1 0.031,-0.155Z" style="fill:rgb(0,104,255);fill-rule:nonzero;"/>
        </g>
        <g transform="matrix(150,0,0,150,-1549.96,1822.86)">
            <path d="M0.421,-0.167L0.512,-0.156C0.497,-0.103 0.471,-0.062 0.432,-0.032C0.393,-0.003 0.344,0.012 0.284,0.012C0.208,0.012 0.148,-0.012 0.103,-0.058C0.059,-0.105 0.037,-0.171 0.037,-0.255C0.037,-0.342 0.059,-0.41 0.104,-0.458C0.149,-0.506 0.207,-0.53 0.279,-0.53C0.348,-0.53 0.405,-0.507 0.449,-0.459C0.493,-0.412 0.515,-0.346 0.515,-0.26C0.515,-0.255 0.514,-0.247 0.514,-0.237L0.127,-0.237C0.131,-0.18 0.147,-0.136 0.176,-0.106C0.205,-0.076 0.241,-0.061 0.284,-0.061C0.316,-0.061 0.344,-0.069 0.367,-0.086C0.389,-0.103 0.408,-0.13 0.421,-0.167ZM0.132,-0.309L0.422,-0.309C0.418,-0.353 0.407,-0.385 0.389,-0.407C0.361,-0.441 0.324,-0.458 0.28,-0.458C0.239,-0.458 0.205,-0.444 0.178,-0.417C0.15,-0.39 0.135,-0.354 0.132,-0.309Z" style="fill:rgb(0,104,255);fill-rule:nonzero;"/>
        </g>
        <g transform="matrix(150,0,0,150,-1466.53,1822.86)">
            <path d="M0.065,-0L0.065,-0.519L0.144,-0.519L0.144,-0.44C0.164,-0.477 0.183,-0.501 0.2,-0.513C0.217,-0.524 0.236,-0.53 0.256,-0.53C0.286,-0.53 0.316,-0.521 0.347,-0.502L0.316,-0.42C0.295,-0.433 0.273,-0.439 0.252,-0.439C0.233,-0.439 0.215,-0.434 0.2,-0.422C0.185,-0.411 0.174,-0.395 0.167,-0.374C0.158,-0.343 0.153,-0.309 0.153,-0.271L0.153,-0L0.065,-0Z" style="fill:rgb(0,104,255);fill-rule:nonzero;"/>
        </g>
        <g transform="matrix(150,0,0,150,-1416.58,1822.86)">
            <path d="M0.09,-0.418L0.09,-0.519L0.19,-0.519L0.19,-0.418L0.09,-0.418ZM0.09,-0L0.09,-0.1L0.19,-0.1L0.19,-0L0.09,-0Z" style="fill:rgb(0,104,255);fill-rule:nonzero;"/>
        </g>
        <g transform="matrix(150,0,0,150,-1333.23,1822.86)">
            <path d="M0.588,-0.251L0.683,-0.227C0.663,-0.149 0.627,-0.09 0.575,-0.049C0.524,-0.008 0.461,0.012 0.386,0.012C0.309,0.012 0.246,-0.003 0.198,-0.035C0.15,-0.066 0.113,-0.112 0.088,-0.171C0.062,-0.231 0.05,-0.295 0.05,-0.363C0.05,-0.438 0.064,-0.503 0.093,-0.558C0.121,-0.614 0.162,-0.656 0.214,-0.685C0.267,-0.714 0.325,-0.728 0.388,-0.728C0.459,-0.728 0.52,-0.71 0.568,-0.673C0.617,-0.637 0.651,-0.586 0.67,-0.52L0.577,-0.498C0.561,-0.55 0.536,-0.588 0.505,-0.611C0.473,-0.635 0.434,-0.647 0.386,-0.647C0.331,-0.647 0.285,-0.634 0.248,-0.607C0.211,-0.581 0.185,-0.546 0.17,-0.501C0.155,-0.457 0.147,-0.411 0.147,-0.364C0.147,-0.303 0.156,-0.25 0.174,-0.204C0.192,-0.159 0.219,-0.125 0.257,-0.103C0.294,-0.08 0.335,-0.069 0.378,-0.069C0.431,-0.069 0.476,-0.084 0.513,-0.115C0.55,-0.145 0.575,-0.191 0.588,-0.251Z" style="fill:rgb(0,104,255);fill-rule:nonzero;"/>
        </g>
        <g transform="matrix(150,0,0,150,-1224.91,1822.86)">
            <path d="M0.062,0.2L0.052,0.117C0.071,0.122 0.088,0.125 0.103,0.125C0.122,0.125 0.138,0.122 0.149,0.115C0.161,0.109 0.171,0.1 0.178,0.088C0.184,0.079 0.193,0.057 0.205,0.022C0.207,0.018 0.209,0.01 0.213,0.001L0.016,-0.519L0.111,-0.519L0.219,-0.218C0.233,-0.18 0.245,-0.14 0.256,-0.098C0.266,-0.139 0.278,-0.178 0.292,-0.216L0.403,-0.519L0.491,-0.519L0.294,0.009C0.273,0.066 0.256,0.105 0.245,0.126C0.229,0.155 0.211,0.177 0.191,0.19C0.171,0.204 0.147,0.21 0.119,0.21C0.102,0.21 0.083,0.207 0.062,0.2Z" style="fill:rgb(0,104,255);fill-rule:nonzero;"/>
        </g>
        <g transform="matrix(150,0,0,150,-1149.91,1822.86)">
            <rect x="0.064" y="-0.716" width="0.088" height="0.716" style="fill:rgb(0,104,255);fill-rule:nonzero;"/>
        </g>
        <g transform="matrix(150,0,0,150,-1116.58,1822.86)">
            <path d="M0.066,-0.615L0.066,-0.716L0.154,-0.716L0.154,-0.615L0.066,-0.615ZM0.066,-0L0.066,-0.519L0.154,-0.519L0.154,-0L0.066,-0Z" style="fill:rgb(0,104,255);fill-rule:nonzero;"/>
        </g>
        <g transform="matrix(150,0,0,150,-1083.26,1822.86)">
            <path d="M0.066,-0L0.066,-0.519L0.145,-0.519L0.145,-0.445C0.183,-0.502 0.238,-0.53 0.31,-0.53C0.341,-0.53 0.37,-0.525 0.396,-0.513C0.422,-0.502 0.442,-0.487 0.455,-0.469C0.468,-0.451 0.477,-0.429 0.482,-0.404C0.486,-0.388 0.487,-0.36 0.487,-0.319L0.487,-0L0.399,-0L0.399,-0.315C0.399,-0.351 0.396,-0.378 0.389,-0.396C0.382,-0.413 0.37,-0.428 0.353,-0.438C0.335,-0.449 0.315,-0.454 0.292,-0.454C0.254,-0.454 0.222,-0.442 0.195,-0.418C0.167,-0.395 0.154,-0.35 0.154,-0.283L0.154,-0L0.066,-0Z" style="fill:rgb(0,104,255);fill-rule:nonzero;"/>
        </g>
        <g transform="matrix(150,0,0,150,-999.836,1822.86)">
            <path d="M0.402,-0L0.402,-0.065C0.369,-0.014 0.321,0.012 0.257,0.012C0.216,0.012 0.178,0 0.143,-0.022C0.109,-0.045 0.082,-0.077 0.063,-0.118C0.044,-0.159 0.034,-0.206 0.034,-0.259C0.034,-0.311 0.043,-0.358 0.06,-0.4C0.077,-0.442 0.103,-0.474 0.138,-0.497C0.172,-0.519 0.211,-0.53 0.253,-0.53C0.285,-0.53 0.313,-0.524 0.337,-0.51C0.361,-0.497 0.381,-0.48 0.396,-0.459L0.396,-0.716L0.484,-0.716L0.484,-0L0.402,-0ZM0.125,-0.259C0.125,-0.192 0.139,-0.143 0.167,-0.11C0.194,-0.077 0.228,-0.061 0.266,-0.061C0.304,-0.061 0.337,-0.076 0.364,-0.108C0.39,-0.139 0.404,-0.187 0.404,-0.251C0.404,-0.322 0.39,-0.375 0.363,-0.408C0.335,-0.441 0.302,-0.458 0.262,-0.458C0.223,-0.458 0.19,-0.442 0.164,-0.41C0.138,-0.378 0.125,-0.327 0.125,-0.259Z" style="fill:rgb(0,104,255);fill-rule:nonzero;"/>
        </g>
        <g transform="matrix(150,0,0,150,-916.413,1822.86)">
            <path d="M0.421,-0.167L0.512,-0.156C0.497,-0.103 0.471,-0.062 0.432,-0.032C0.393,-0.003 0.344,0.012 0.284,0.012C0.208,0.012 0.148,-0.012 0.103,-0.058C0.059,-0.105 0.037,-0.171 0.037,-0.255C0.037,-0.342 0.059,-0.41 0.104,-0.458C0.149,-0.506 0.207,-0.53 0.279,-0.53C0.348,-0.53 0.405,-0.507 0.449,-0.459C0.493,-0.412 0.515,-0.346 0.515,-0.26C0.515,-0.255 0.514,-0.247 0.514,-0.237L0.127,-0.237C0.131,-0.18 0.147,-0.136 0.176,-0.106C0.205,-0.076 0.241,-0.061 0.284,-0.061C0.316,-0.061 0.344,-0.069 0.367,-0.086C0.389,-0.103 0.408,-0.13 0.421,-0.167ZM0.132,-0.309L0.422,-0.309C0.418,-0.353 0.407,-0.385 0.389,-0.407C0.361,-0.441 0.324,-0.458 0.28,-0.458C0.239,-0.458 0.205,-0.444 0.178,-0.417C0.15,-0.39 0.135,-0.354 0.132,-0.309Z" style="fill:rgb(0,104,255);fill-rule:nonzero;"/>
        </g>
        <g transform="matrix(150,0,0,150,-832.99,1822.86)">
            <path d="M0.065,-0L0.065,-0.519L0.144,-0.519L0.144,-0.44C0.164,-0.477 0.183,-0.501 0.2,-0.513C0.217,-0.524 0.236,-0.53 0.256,-0.53C0.286,-0.53 0.316,-0.521 0.347,-0.502L0.316,-0.42C0.295,-0.433 0.273,-0.439 0.252,-0.439C0.233,-0.439 0.215,-0.434 0.2,-0.422C0.185,-0.411 0.174,-0.395 0.167,-0.374C0.158,-0.343 0.153,-0.309 0.153,-0.271L0.153,-0L0.065,-0Z" style="fill:rgb(0,104,255);fill-rule:nonzero;"/>
        </g>
        <g transform="matrix(150,0,0,150,-1849.96,1977.77)">
            <path d="M0.61,-0.65L0.692,-0.742L0.741,-0.701L0.655,-0.604C0.683,-0.563 0.702,-0.526 0.711,-0.495C0.724,-0.454 0.731,-0.408 0.731,-0.357C0.731,-0.284 0.716,-0.219 0.687,-0.162C0.657,-0.104 0.615,-0.061 0.562,-0.032C0.508,-0.002 0.451,0.012 0.391,0.012C0.346,0.012 0.306,0.006 0.269,-0.007C0.241,-0.017 0.208,-0.035 0.171,-0.063L0.089,0.029L0.041,-0.012L0.126,-0.108C0.095,-0.157 0.073,-0.198 0.063,-0.233C0.052,-0.267 0.046,-0.308 0.046,-0.356C0.046,-0.43 0.061,-0.496 0.09,-0.553C0.12,-0.61 0.161,-0.654 0.214,-0.684C0.267,-0.713 0.325,-0.728 0.39,-0.728C0.434,-0.728 0.472,-0.722 0.505,-0.711C0.537,-0.699 0.573,-0.679 0.61,-0.65ZM0.552,-0.584C0.521,-0.609 0.494,-0.625 0.471,-0.634C0.448,-0.643 0.422,-0.647 0.391,-0.647C0.319,-0.647 0.26,-0.623 0.214,-0.574C0.167,-0.526 0.144,-0.454 0.144,-0.358C0.144,-0.32 0.148,-0.287 0.155,-0.257C0.16,-0.236 0.171,-0.209 0.188,-0.177L0.552,-0.584ZM0.592,-0.534L0.229,-0.128C0.254,-0.107 0.277,-0.093 0.298,-0.085C0.326,-0.074 0.356,-0.069 0.388,-0.069C0.459,-0.069 0.518,-0.094 0.564,-0.144C0.61,-0.194 0.633,-0.264 0.633,-0.355C0.633,-0.423 0.619,-0.482 0.592,-0.534Z" style="fill:rgb(0,104,255);fill-rule:nonzero;"/>
        </g>
        <g transform="matrix(150,0,0,150,-1733.28,1977.77)">
            <path d="M0.09,-0.418L0.09,-0.519L0.19,-0.519L0.19,-0.418L0.09,-0.418ZM0.09,-0L0.09,-0.1L0.19,-0.1L0.19,-0L0.09,-0Z" style="fill:rgb(0,104,255);fill-rule:nonzero;"/>
        </g>
        <g transform="matrix(150,0,0,150,-1649.93,1977.77)">
            <path d="M0.498,-0.541L0.41,-0.534C0.402,-0.568 0.391,-0.593 0.377,-0.609C0.353,-0.634 0.324,-0.646 0.289,-0.646C0.261,-0.646 0.236,-0.639 0.215,-0.623C0.188,-0.603 0.166,-0.573 0.15,-0.535C0.134,-0.496 0.126,-0.441 0.125,-0.369C0.146,-0.401 0.172,-0.425 0.203,-0.441C0.233,-0.457 0.265,-0.464 0.299,-0.464C0.357,-0.464 0.407,-0.443 0.448,-0.4C0.49,-0.357 0.51,-0.301 0.51,-0.232C0.51,-0.188 0.501,-0.146 0.481,-0.107C0.462,-0.069 0.435,-0.039 0.401,-0.019C0.368,0.002 0.329,0.012 0.286,0.012C0.213,0.012 0.153,-0.015 0.107,-0.069C0.061,-0.122 0.038,-0.211 0.038,-0.335C0.038,-0.473 0.063,-0.574 0.114,-0.637C0.159,-0.691 0.219,-0.719 0.294,-0.719C0.351,-0.719 0.397,-0.703 0.433,-0.671C0.469,-0.64 0.49,-0.596 0.498,-0.541ZM0.139,-0.232C0.139,-0.202 0.145,-0.173 0.158,-0.145C0.171,-0.117 0.189,-0.096 0.212,-0.082C0.235,-0.067 0.259,-0.06 0.285,-0.06C0.322,-0.06 0.354,-0.075 0.38,-0.105C0.407,-0.135 0.42,-0.176 0.42,-0.227C0.42,-0.277 0.407,-0.316 0.381,-0.344C0.354,-0.372 0.321,-0.387 0.281,-0.387C0.242,-0.387 0.208,-0.372 0.18,-0.344C0.153,-0.316 0.139,-0.278 0.139,-0.232Z" style="fill:rgb(0,104,255);fill-rule:nonzero;"/>
        </g>
        <g transform="matrix(150,0,0,150,-1566.51,1977.77)">
            <path d="M0.066,-0L0.066,-0.519L0.145,-0.519L0.145,-0.446C0.161,-0.471 0.182,-0.492 0.209,-0.507C0.236,-0.523 0.267,-0.53 0.302,-0.53C0.34,-0.53 0.372,-0.522 0.396,-0.506C0.421,-0.49 0.438,-0.468 0.448,-0.439C0.489,-0.5 0.543,-0.53 0.608,-0.53C0.66,-0.53 0.699,-0.516 0.727,-0.488C0.755,-0.459 0.769,-0.415 0.769,-0.356L0.769,-0L0.681,-0L0.681,-0.327C0.681,-0.362 0.678,-0.387 0.673,-0.403C0.667,-0.418 0.657,-0.431 0.642,-0.44C0.627,-0.449 0.609,-0.454 0.589,-0.454C0.552,-0.454 0.522,-0.442 0.498,-0.418C0.474,-0.393 0.462,-0.355 0.462,-0.301L0.462,-0L0.374,-0L0.374,-0.337C0.374,-0.376 0.367,-0.405 0.353,-0.425C0.338,-0.444 0.315,-0.454 0.282,-0.454C0.257,-0.454 0.235,-0.448 0.214,-0.435C0.193,-0.422 0.177,-0.403 0.168,-0.377C0.159,-0.352 0.154,-0.316 0.154,-0.269L0.154,-0L0.066,-0Z" style="fill:rgb(0,104,255);fill-rule:nonzero;"/>
        </g>
        <g transform="matrix(150,0,0,150,-1441.56,1977.77)">
            <path d="M0.066,-0L0.066,-0.519L0.145,-0.519L0.145,-0.446C0.161,-0.471 0.182,-0.492 0.209,-0.507C0.236,-0.523 0.267,-0.53 0.302,-0.53C0.34,-0.53 0.372,-0.522 0.396,-0.506C0.421,-0.49 0.438,-0.468 0.448,-0.439C0.489,-0.5 0.543,-0.53 0.608,-0.53C0.66,-0.53 0.699,-0.516 0.727,-0.488C0.755,-0.459 0.769,-0.415 0.769,-0.356L0.769,-0L0.681,-0L0.681,-0.327C0.681,-0.362 0.678,-0.387 0.673,-0.403C0.667,-0.418 0.657,-0.431 0.642,-0.44C0.627,-0.449 0.609,-0.454 0.589,-0.454C0.552,-0.454 0.522,-0.442 0.498,-0.418C0.474,-0.393 0.462,-0.355 0.462,-0.301L0.462,-0L0.374,-0L0.374,-0.337C0.374,-0.376 0.367,-0.405 0.353,-0.425C0.338,-0.444 0.315,-0.454 0.282,-0.454C0.257,-0.454 0.235,-0.448 0.214,-0.435C0.193,-0.422 0.177,-0.403 0.168,-0.377C0.159,-0.352 0.154,-0.316 0.154,-0.269L0.154,-0L0.066,-0Z" style="fill:rgb(0,104,255);fill-rule:nonzero;"/>
        </g>
    </g>
    <path id="Bezugspunkt" d="M321.864,506.117L321.864,531.356L336.091,531.356L321.864,506.117Z" style="fill:rgb(255,0,0);stroke:rgb(255,0,0);stroke-width:0.24px;stroke-linecap:round;stroke-miterlimit:1.5;"/>
</svg>
