<?xml version="1.0" encoding="UTF-8" standalone="no"?>
<!DOCTYPE svg PUBLIC "-//W3C//DTD SVG 1.1//EN" "http://www.w3.org/Graphics/SVG/1.1/DTD/svg11.dtd">
<svg width="596px" height="842px" version="1.1" xmlns="http://www.w3.org/2000/svg" xmlns:xlink="http://www.w3.org/1999/xlink" xml:space="preserve" xmlns:serif="http://www.serif.com/" style="fill-rule:evenodd;clip-rule:evenodd;stroke-linejoin:round;stroke-miterlimit:2;">
    <path id="Holzleiste-45mm-x-20mm" serif:id="Holzleiste 45mm x 20mm" d="M406.968,531.356L406.968,403.797L123.504,403.797L123.504,531.356L406.968,531.356Z" style="fill:rgb(0,104,255);"/>
    <path id="waagrechte-Achse" serif:id="waagrechte Achse" d="M50.041,403.867L390.198,403.867" style="fill:none;stroke:rgb(0,104,255);stroke-width:0.5px;stroke-dasharray:3,3,0,0;"/>
    <path id="senkrechte-Achse" serif:id="senkrechte Achse" d="M321.864,367.115L321.864,652.589" style="fill:none;stroke:rgb(0,104,255);stroke-width:0.5px;stroke-dasharray:3,3,0,0;"/>
    <g id="_30mm" serif:id="30mm">
        <path d="M321.864,553.718L406.904,553.718" style="fill:none;"/>
        <path d="M322.114,550.718L322.114,556.718" style="fill:none;stroke:rgb(0,104,255);stroke-width:0.5px;stroke-linejoin:miter;stroke-miterlimit:10;"/>
        <path d="M406.654,550.718L406.654,556.718" style="fill:none;stroke:rgb(0,104,255);stroke-width:0.5px;stroke-linejoin:miter;stroke-miterlimit:10;"/>
        <path d="M322.114,553.718L406.654,553.718" style="fill:none;stroke:rgb(0,104,255);stroke-width:0.5px;stroke-dasharray:3,3,0,0;"/>
    </g>
    <path d="M348.353,564.25L349.407,564.109C349.529,564.707 349.735,565.137 350.026,565.401C350.317,565.665 350.671,565.797 351.089,565.797C351.585,565.797 352.004,565.625 352.346,565.281C352.688,564.937 352.859,564.512 352.859,564.004C352.859,563.519 352.7,563.12 352.384,562.805C352.068,562.491 351.665,562.334 351.177,562.334C350.978,562.334 350.73,562.373 350.433,562.451L350.55,561.525C350.62,561.533 350.677,561.537 350.72,561.537C351.169,561.537 351.573,561.42 351.933,561.185C352.292,560.951 352.472,560.59 352.472,560.101C352.472,559.715 352.341,559.394 352.079,559.14C351.818,558.887 351.48,558.76 351.066,558.76C350.656,558.76 350.314,558.888 350.04,559.146C349.767,559.404 349.591,559.791 349.513,560.306L348.458,560.119C348.587,559.412 348.88,558.864 349.337,558.475C349.794,558.087 350.363,557.892 351.042,557.892C351.511,557.892 351.943,557.993 352.337,558.194C352.732,558.395 353.033,558.67 353.242,559.017C353.451,559.365 353.556,559.734 353.556,560.125C353.556,560.496 353.456,560.834 353.257,561.138C353.058,561.443 352.763,561.685 352.372,561.865C352.88,561.982 353.275,562.225 353.556,562.595C353.837,562.964 353.978,563.426 353.978,563.98C353.978,564.73 353.704,565.366 353.157,565.887C352.611,566.409 351.919,566.67 351.083,566.67C350.329,566.67 349.703,566.445 349.205,565.996C348.707,565.547 348.423,564.965 348.353,564.25Z" style="fill:rgb(0,104,255);fill-rule:nonzero;"/>
    <path d="M355.021,562.281C355.021,561.265 355.125,560.448 355.334,559.829C355.543,559.21 355.854,558.732 356.266,558.396C356.678,558.06 357.197,557.892 357.822,557.892C358.282,557.892 358.687,557.985 359.034,558.171C359.382,558.356 359.669,558.624 359.896,558.973C360.122,559.323 360.3,559.749 360.429,560.251C360.558,560.753 360.622,561.429 360.622,562.281C360.622,563.289 360.519,564.102 360.312,564.721C360.105,565.341 359.795,565.819 359.383,566.157C358.971,566.495 358.45,566.664 357.822,566.664C356.993,566.664 356.343,566.367 355.87,565.773C355.304,565.058 355.021,563.894 355.021,562.281ZM356.105,562.281C356.105,563.691 356.27,564.63 356.6,565.096C356.93,565.563 357.337,565.797 357.822,565.797C358.306,565.797 358.713,565.562 359.043,565.094C359.373,564.625 359.538,563.687 359.538,562.281C359.538,560.867 359.373,559.928 359.043,559.463C358.713,558.998 358.302,558.765 357.81,558.765C357.325,558.765 356.939,558.97 356.65,559.381C356.286,559.904 356.105,560.871 356.105,562.281Z" style="fill:rgb(0,104,255);fill-rule:nonzero;"/>
    <path d="M361.988,566.517L361.988,560.295L362.931,560.295L362.931,561.168C363.126,560.863 363.386,560.618 363.71,560.432C364.034,560.247 364.404,560.154 364.818,560.154C365.279,560.154 365.657,560.25 365.951,560.441C366.246,560.633 366.454,560.9 366.575,561.244C367.068,560.517 367.708,560.154 368.497,560.154C369.115,560.154 369.589,560.325 369.921,560.667C370.253,561.009 370.419,561.535 370.419,562.246L370.419,566.517L369.37,566.517L369.37,562.597C369.37,562.176 369.336,561.872 369.268,561.686C369.199,561.501 369.075,561.351 368.896,561.238C368.716,561.125 368.505,561.068 368.263,561.068C367.825,561.068 367.462,561.214 367.173,561.505C366.884,561.796 366.74,562.262 366.74,562.902L366.74,566.517L365.685,566.517L365.685,562.474C365.685,562.006 365.599,561.654 365.427,561.42C365.255,561.185 364.974,561.068 364.583,561.068C364.286,561.068 364.012,561.146 363.76,561.303C363.508,561.459 363.325,561.687 363.212,561.988C363.099,562.289 363.042,562.722 363.042,563.289L363.042,566.517L361.988,566.517Z" style="fill:rgb(0,104,255);fill-rule:nonzero;"/>
    <path d="M371.984,566.517L371.984,560.295L372.927,560.295L372.927,561.168C373.122,560.863 373.382,560.618 373.706,560.432C374.031,560.247 374.4,560.154 374.814,560.154C375.275,560.154 375.653,560.25 375.948,560.441C376.242,560.633 376.45,560.9 376.572,561.244C377.064,560.517 377.704,560.154 378.493,560.154C379.111,560.154 379.585,560.325 379.917,560.667C380.249,561.009 380.415,561.535 380.415,562.246L380.415,566.517L379.366,566.517L379.366,562.597C379.366,562.176 379.332,561.872 379.264,561.686C379.196,561.501 379.072,561.351 378.892,561.238C378.712,561.125 378.501,561.068 378.259,561.068C377.822,561.068 377.458,561.214 377.169,561.505C376.88,561.796 376.736,562.262 376.736,562.902L376.736,566.517L375.681,566.517L375.681,562.474C375.681,562.006 375.595,561.654 375.423,561.42C375.251,561.185 374.97,561.068 374.579,561.068C374.282,561.068 374.008,561.146 373.756,561.303C373.504,561.459 373.322,561.687 373.208,561.988C373.095,562.289 373.038,562.722 373.038,563.289L373.038,566.517L371.984,566.517Z" style="fill:rgb(0,104,255);fill-rule:nonzero;"/>
    <path id="Lasche-d:10mm" serif:id="Lasche d:10mm" d="M366.108,398.128L406.962,398.273L406.962,398.275C407.029,398.274 407.097,398.273 407.165,398.273C413.423,398.273 417.639,403.414 418.504,409.612C419.615,417.581 425.036,450.816 425.036,467.576C425.036,484.337 420.187,516.528 418.504,525.617C417.364,531.77 413.423,536.955 407.165,536.955C407.097,536.955 407.029,536.955 406.962,536.953L406.962,536.955L366.108,537.025L343.023,537.025C341.061,540.413 337.396,542.695 333.203,542.695C326.945,542.695 321.864,537.614 321.864,531.356C321.864,530.967 321.884,530.583 321.922,530.205L321.922,500.486C321.922,494.228 327.003,489.147 333.261,489.147C336.39,489.147 339.224,490.418 341.277,492.47L341.288,492.459C347.718,499.011 356.674,503.08 366.574,503.08C386.13,503.08 402.007,487.202 402.007,467.646C402.007,448.09 386.13,432.213 366.574,432.213C356.082,432.213 346.649,436.783 340.157,444.041L340.031,443.909C338.141,445.319 335.798,446.154 333.261,446.154C327.003,446.154 321.922,441.073 321.922,434.815C321.922,434.762 321.923,434.709 321.923,434.656L321.922,434.656L321.922,426.612C321.854,426.613 321.846,408.636 321.9,404.696C321.876,404.399 321.864,404.099 321.864,403.797C321.864,397.539 326.945,392.458 333.203,392.458C337.396,392.458 341.061,394.74 343.023,398.128L366.108,398.128Z" style="fill:rgb(127,127,127);"/>
    <path id="Bezugspunkt" d="M321.864,506.117L321.864,531.356L336.091,531.356L321.864,506.117Z" style="fill:rgb(255,0,0);stroke:rgb(255,0,0);stroke-width:0.24px;stroke-linecap:round;stroke-miterlimit:1.5;"/>
</svg>
