<?xml version="1.0" encoding="UTF-8" standalone="no"?>
<!DOCTYPE svg PUBLIC "-//W3C//DTD SVG 1.1//EN" "http://www.w3.org/Graphics/SVG/1.1/DTD/svg11.dtd">
<svg width="596px" height="842px" version="1.1" xmlns="http://www.w3.org/2000/svg" xmlns:xlink="http://www.w3.org/1999/xlink" xml:space="preserve" xmlns:serif="http://www.serif.com/" style="fill-rule:evenodd;clip-rule:evenodd;stroke-linecap:round;stroke-linejoin:round;stroke-miterlimit:1.5;">
    <path d="M184.826,403.869C184.903,403.868 184.98,403.867 185.057,403.867C191.315,403.867 196.395,408.948 196.395,415.205C196.395,421.463 191.315,426.544 185.057,426.544C184.98,426.544 184.903,426.543 184.826,426.542L184.826,434.737C184.826,440.995 179.745,446.076 173.487,446.076C170.358,446.076 167.524,444.805 165.471,442.753L165.46,442.764C159.03,436.212 150.074,432.143 140.174,432.143C120.618,432.143 104.741,448.02 104.741,467.576C104.741,487.132 120.618,503.01 140.174,503.01C150.666,503.01 160.099,498.44 166.591,491.182L166.717,491.314C168.607,489.904 170.95,489.069 173.487,489.069C179.745,489.069 184.826,494.15 184.826,500.408C184.826,500.461 184.825,500.514 184.825,500.567L184.826,500.567L184.826,508.611C184.903,508.61 184.98,508.609 185.057,508.609C191.315,508.609 196.395,513.689 196.395,519.947C196.395,526.205 191.315,531.286 185.057,531.286C184.98,531.286 184.903,531.285 184.826,531.284L184.826,531.286L57.267,531.286L57.267,531.284C57.2,531.285 57.132,531.286 57.063,531.286C50.805,531.286 45.725,526.205 45.725,519.947C45.725,513.689 50.805,508.609 57.063,508.609C57.132,508.609 57.2,508.609 57.267,508.611L57.267,426.542C57.2,426.543 57.132,426.544 57.063,426.544C50.805,426.544 45.725,421.463 45.725,415.205C45.725,408.948 50.805,403.867 57.063,403.867C57.132,403.867 57.2,403.868 57.267,403.869L57.267,403.867L184.826,403.867L184.826,403.869Z" style="fill:rgb(127,127,127);"/>
    <path d="M185.057,403.867L185.057,467.576L220.968,467.576L185.057,403.867Z" style="fill:rgb(255,0,0);stroke:rgb(255,0,0);stroke-width:0.24px;"/>
</svg>
